<svg width="62" height="62" viewBox="0 0 62 62" fill="none" xmlns="http://www.w3.org/2000/svg">
<path fill-rule="evenodd" clip-rule="evenodd" d="M3.97397 0.900613C3.94524 0.919085 3.86985 0.934438 3.80639 0.93475C3.69025 0.93527 3.38149 1.01671 3.26925 1.07639C3.23599 1.09407 3.17721 1.10855 3.13866 1.10855C3.10007 1.10855 3.06852 1.12415 3.06852 1.14321C3.06852 1.16227 3.04651 1.17787 3.01962 1.17787C2.99274 1.17787 2.87371 1.23245 2.75509 1.29916C2.63648 1.36588 2.52824 1.42046 2.51452 1.42046C2.50083 1.42046 2.45852 1.44929 2.42053 1.48454C2.38253 1.51975 2.33472 1.55486 2.31431 1.56252C2.14252 1.62694 1.39249 2.37438 1.3305 2.54295C1.32274 2.56412 1.28746 2.60668 1.25214 2.63749C1.21687 2.66834 1.18796 2.71772 1.18796 2.74725C1.18796 2.77678 1.17623 2.80613 1.16184 2.81251C1.12705 2.82789 0.944186 3.19473 0.944186 3.24914C0.944186 3.27268 0.928515 3.29191 0.909361 3.29191C0.890207 3.29191 0.874536 3.32778 0.874536 3.37162C0.874536 3.41546 0.861024 3.46616 0.844517 3.48425C0.809169 3.52303 0.743629 3.75229 0.691495 4.0197C0.638596 4.29078 0.638248 10.8069 0.691112 11.0203C0.77222 11.3479 0.815542 11.4893 0.844517 11.5211C0.861024 11.5392 0.874536 11.5821 0.874536 11.6164C0.874536 11.6507 0.890207 11.6788 0.909361 11.6788C0.928515 11.6788 0.944186 11.6947 0.944186 11.7142C0.944186 11.7562 1.12427 12.0376 1.16184 12.0542C1.17619 12.0606 1.18796 12.0808 1.18796 12.0991C1.18796 12.1175 1.22324 12.1688 1.26632 12.2132C1.30943 12.2575 1.37602 12.3377 1.41433 12.3913C1.45263 12.4449 6.76131 17.7409 13.2113 24.1601C20.9299 31.8419 24.9387 35.8551 24.9387 35.9002C24.9387 35.938 24.923 35.9785 24.9039 35.9903C24.8847 36.0021 24.869 36.0498 24.869 36.0963C24.869 36.1428 24.8534 36.1809 24.8342 36.1809C24.8151 36.1809 24.7994 36.2112 24.7994 36.2482C24.7994 36.2852 24.7851 36.3242 24.7676 36.335C24.7501 36.3458 24.7253 36.4168 24.7123 36.4928C24.6994 36.5688 24.6745 36.6399 24.6571 36.6506C24.6396 36.6614 24.6253 36.7073 24.6253 36.7527C24.6253 36.7981 24.6096 36.8449 24.5904 36.8567C24.5713 36.8685 24.5556 36.9162 24.5556 36.9627C24.5556 37.0093 24.5399 37.0473 24.5208 37.0473C24.5016 37.0473 24.486 37.0779 24.486 37.1154C24.486 37.1529 24.4612 37.2561 24.4309 37.3449C24.3716 37.5187 24.3497 37.5999 24.3217 37.7495C24.3119 37.8022 24.2899 37.8538 24.273 37.8642C24.2561 37.8746 24.2422 37.9215 24.2422 37.9682C24.2422 38.015 24.2279 38.0804 24.2105 38.1135C24.193 38.1466 24.1525 38.3062 24.1203 38.4682C24.0882 38.6302 24.0476 38.7899 24.0301 38.823C24.0127 38.8561 23.9984 38.9458 23.9984 39.0222C23.9984 39.0988 23.9827 39.1614 23.9636 39.1614C23.9444 39.1614 23.9288 39.2187 23.9288 39.2889C23.9288 39.359 23.9142 39.4643 23.8963 39.5228C23.8682 39.6151 23.8055 40.0133 23.735 40.5476C23.7237 40.6334 23.7068 40.8478 23.6973 41.0241C23.6879 41.2005 23.6656 41.3447 23.6478 41.3447C23.6021 41.3447 23.6045 44.2104 23.6502 44.2385C23.6693 44.2503 23.685 44.3866 23.685 44.5414C23.685 44.6961 23.6996 44.8707 23.7174 44.9292C23.7454 45.021 23.7827 45.3101 23.8496 45.954C23.8586 46.0398 23.88 46.1248 23.8973 46.1429C23.9146 46.161 23.9288 46.2507 23.9288 46.3422C23.9288 46.4337 23.9444 46.5085 23.9636 46.5085C23.9827 46.5085 23.9984 46.5633 23.9984 46.6303C23.9984 46.6973 24.0123 46.7792 24.0293 46.8123C24.063 46.8777 24.1365 47.2105 24.1632 47.4185C24.1724 47.4901 24.1939 47.5573 24.2111 47.5678C24.2282 47.5783 24.2422 47.6319 24.2422 47.6868C24.2422 47.7418 24.2561 47.7953 24.2732 47.8058C24.2902 47.8163 24.3121 47.8757 24.3217 47.9378C24.3314 47.9999 24.3659 48.1365 24.3985 48.2413C24.4311 48.3462 24.4659 48.4748 24.4758 48.5273C24.4858 48.5797 24.5078 48.6226 24.5247 48.6226C24.5417 48.6226 24.5556 48.6618 24.5556 48.7097C24.5556 48.7934 24.5664 48.8245 24.654 48.9936C24.6758 49.0357 24.7037 49.1331 24.7161 49.2102C24.7285 49.2873 24.7523 49.3504 24.769 49.3504C24.7857 49.3504 24.7994 49.374 24.7994 49.4028C24.7994 49.4317 24.8132 49.4824 24.8301 49.5155C24.8471 49.5486 24.8768 49.6146 24.8962 49.6623C24.9157 49.7099 24.9567 49.8058 24.9874 49.8754C25.0181 49.945 25.0432 50.026 25.0432 50.0553C25.0432 50.0847 25.0588 50.1183 25.078 50.1301C25.0972 50.1419 25.1128 50.1818 25.1128 50.2188C25.1128 50.2558 25.1285 50.2861 25.1476 50.2861C25.1668 50.2861 25.1825 50.3163 25.1825 50.3534C25.1825 50.3904 25.1981 50.4303 25.2173 50.442C25.2365 50.4538 25.2521 50.4937 25.2521 50.5307C25.2521 50.5677 25.2665 50.598 25.2842 50.598C25.3018 50.598 25.3265 50.6446 25.3391 50.7016C25.3517 50.7585 25.3764 50.814 25.3941 50.8249C25.4118 50.8358 25.4262 50.8749 25.4262 50.9119C25.4262 50.949 25.4419 50.9792 25.4611 50.9792C25.4802 50.9792 25.4959 51.0104 25.4959 51.0485C25.4959 51.0866 25.5081 51.1178 25.5231 51.1178C25.538 51.1178 25.5806 51.1958 25.6178 51.2911C25.6549 51.3864 25.6976 51.4644 25.7125 51.4644C25.7274 51.4644 25.7397 51.4956 25.7397 51.5337C25.7397 51.5718 25.7521 51.603 25.7674 51.603C25.7826 51.603 25.8241 51.6732 25.8597 51.759C25.8952 51.8448 25.9347 51.9149 25.9474 51.9149C25.9601 51.9149 25.992 51.9695 26.0183 52.0362C26.0446 52.1029 26.075 52.1575 26.0859 52.1575C26.0968 52.1575 26.1282 52.2082 26.1556 52.2702C26.1831 52.3321 26.2261 52.4034 26.2512 52.4286C26.2763 52.4538 26.2969 52.4967 26.2969 52.5239C26.2969 52.5511 26.3125 52.5734 26.3317 52.5734C26.3509 52.5734 26.3665 52.5975 26.3665 52.6268C26.3665 52.6562 26.3829 52.6991 26.403 52.7222C26.423 52.7452 26.5481 52.9278 26.6809 53.1279C26.8137 53.3281 26.9383 53.5107 26.9579 53.5337C26.9774 53.5567 26.9934 53.5918 26.9934 53.6116C26.9934 53.6315 27.008 53.6478 27.0259 53.6478C27.0437 53.6478 27.0677 53.6771 27.0792 53.7131C27.0906 53.7489 27.1465 53.8268 27.2034 53.886C27.2603 53.9452 27.3068 54.0021 27.3068 54.0124C27.3068 54.0458 27.7701 54.6524 27.8901 54.7762C27.9141 54.8009 27.9337 54.828 27.9337 54.8365C27.9337 54.8449 28.012 54.9323 28.1078 55.0307C28.2036 55.129 28.2819 55.2218 28.2819 55.2368C28.2819 55.2614 28.4182 55.4068 29.1043 56.1141C29.441 56.4611 30.0997 57.0818 30.1963 57.143C30.2447 57.1737 30.3235 57.2387 30.3714 57.2875C30.4193 57.3363 30.5212 57.4223 30.5978 57.4786C30.6744 57.5348 30.7449 57.5893 30.7545 57.5996C30.7641 57.6099 30.8503 57.6801 30.946 57.7557C31.0418 57.8313 31.1254 57.9049 31.1318 57.9192C31.1382 57.9334 31.1588 57.9452 31.1778 57.9452C31.1967 57.9452 31.234 57.9647 31.2607 57.9885C31.3639 58.0806 31.4139 58.1184 31.4324 58.1184C31.443 58.1184 31.5003 58.1647 31.5599 58.2214C31.6194 58.278 31.6976 58.3336 31.7336 58.345C31.7697 58.3564 31.7992 58.3802 31.7992 58.398C31.7992 58.4158 31.8198 58.4304 31.8449 58.4304C31.87 58.4304 31.9218 58.4576 31.96 58.491C32.0383 58.5594 32.1397 58.6271 32.2171 58.6628C32.2459 58.676 32.2998 58.7148 32.3369 58.7492C32.374 58.7835 32.4249 58.8116 32.4501 58.8116C32.4752 58.8116 32.4957 58.8233 32.4958 58.8376C32.4958 58.8518 32.5781 58.9091 32.6786 58.9648C32.7792 59.0204 32.8692 59.075 32.8788 59.0861C32.8884 59.0971 32.9576 59.1373 33.0327 59.1755C33.2702 59.2961 33.2967 59.3126 33.2967 59.3396C33.2967 59.3542 33.3267 59.3661 33.3635 59.3661C33.4002 59.3661 33.4354 59.3785 33.4418 59.3937C33.4482 59.4089 33.524 59.4552 33.6102 59.4966C33.8163 59.5957 33.973 59.689 33.9874 59.7213C33.9938 59.7356 34.0189 59.7473 34.0432 59.7473C34.0675 59.7473 34.161 59.7863 34.2511 59.8339C34.3411 59.8816 34.4375 59.9206 34.4652 59.9206C34.4929 59.9206 34.5156 59.9362 34.5156 59.9552C34.5156 59.9743 34.5469 59.9899 34.5853 59.9899C34.6236 59.9899 34.6549 60.0055 34.6549 60.0245C34.6549 60.0436 34.6781 60.0592 34.7064 60.0592C34.7686 60.0592 35.1551 60.2392 35.1715 60.2758C35.1779 60.2901 35.221 60.3018 35.2672 60.3018C35.3136 60.3018 35.3514 60.3141 35.3514 60.3291C35.3514 60.3441 35.4533 60.387 35.5778 60.4244C35.7023 60.4618 35.8041 60.5041 35.8041 60.5184C35.8041 60.5327 35.8433 60.5444 35.8912 60.5444C35.9391 60.5444 35.9783 60.56 35.9783 60.5791C35.9783 60.5981 36.0174 60.6137 36.0653 60.6137C36.1132 60.6137 36.1524 60.6258 36.1524 60.6405C36.1524 60.6653 36.3531 60.7287 36.579 60.7751C36.6317 60.786 36.6748 60.8087 36.6748 60.8256C36.6748 60.8425 36.7218 60.8563 36.7792 60.8563C36.8367 60.8563 36.8837 60.8701 36.8837 60.887C36.8837 60.9039 36.9268 60.926 36.9795 60.9361C37.0322 60.9463 37.1301 60.9707 37.1971 60.9905C37.2642 61.0102 37.3895 61.0446 37.4757 61.0667C37.5619 61.0889 37.6597 61.1208 37.6929 61.1376C37.7262 61.1545 37.7918 61.1682 37.8389 61.1682C37.8859 61.1682 37.934 61.1838 37.9459 61.2029C37.9577 61.2219 38.0216 61.2375 38.0877 61.2375C38.1539 61.2375 38.2352 61.2517 38.2685 61.269C38.3554 61.3143 38.8074 61.4108 38.9326 61.4108C38.991 61.4108 39.0484 61.4264 39.0603 61.4455C39.0721 61.4645 39.1592 61.4801 39.2539 61.4801C39.3485 61.4801 39.4259 61.4957 39.4259 61.5148C39.4259 61.5338 39.5095 61.5494 39.6117 61.5494C39.7138 61.5494 39.809 61.5611 39.8232 61.5754C39.8479 61.6003 40.1474 61.6362 41.0976 61.7283C41.6469 61.7816 43.7927 61.7824 44.3537 61.7296C44.5835 61.708 44.9675 61.6648 45.2069 61.6338C45.4463 61.6028 45.7324 61.5697 45.8425 61.5603C45.9526 61.551 46.0427 61.5306 46.0427 61.5151C46.0427 61.4995 46.1172 61.4788 46.2081 61.4691C46.3575 61.4531 46.5241 61.4236 46.8263 61.3598C46.8837 61.3477 46.9899 61.3287 47.0622 61.3176C47.1345 61.3065 47.202 61.284 47.2123 61.2675C47.2225 61.251 47.2848 61.2375 47.3507 61.2375C47.4166 61.2375 47.4706 61.2219 47.4706 61.2029C47.4706 61.1838 47.5245 61.1682 47.5904 61.1682C47.6563 61.1682 47.7186 61.1547 47.7289 61.1382C47.7391 61.1217 47.8034 61.0992 47.8718 61.0882C48.0224 61.0638 48.4744 60.9321 48.5583 60.888C48.5916 60.8706 48.6478 60.8563 48.6832 60.8563C48.7185 60.8563 48.7576 60.8462 48.77 60.8339C48.8034 60.8006 49.15 60.6854 49.2205 60.6842C49.2541 60.6835 49.2815 60.6674 49.2815 60.6484C49.2815 60.6293 49.3206 60.6137 49.3685 60.6137C49.4164 60.6137 49.4556 60.5981 49.4556 60.5791C49.4556 60.56 49.4871 60.5444 49.5257 60.5444C49.5643 60.5444 49.6231 60.5307 49.6563 60.514C49.8026 60.4404 49.9844 60.3711 50.0314 60.3711C50.0595 60.3711 50.0824 60.3555 50.0824 60.3365C50.0824 60.3174 50.1106 60.3018 50.1451 60.3018C50.1796 60.3018 50.2227 60.289 50.2409 60.2734C50.2591 60.2578 50.3837 60.2 50.5177 60.1452C50.6518 60.0903 50.8597 59.9939 50.9797 59.931C51.0997 59.8681 51.2198 59.8166 51.2467 59.8166C51.2735 59.8166 51.3007 59.8049 51.3071 59.7906C51.3135 59.7763 51.4749 59.6866 51.6658 59.5913C51.8568 59.496 52.0292 59.4058 52.0489 59.3909C52.1313 59.3287 52.4962 59.1235 52.5244 59.1235C52.5413 59.1235 52.555 59.1079 52.555 59.0888C52.555 59.0698 52.5785 59.0542 52.6073 59.0542C52.636 59.0542 52.6597 59.0425 52.6599 59.0282C52.6601 59.0139 52.7223 58.9726 52.798 58.9365C52.8738 58.9004 52.9637 58.8458 52.9979 58.8152C53.0321 58.7846 53.1198 58.7284 53.1929 58.6903C53.266 58.6522 53.3555 58.5937 53.3917 58.5603C53.4279 58.5269 53.4739 58.4997 53.4938 58.4997C53.5138 58.4997 53.5304 58.4879 53.5308 58.4737C53.5311 58.4594 53.6092 58.4009 53.7043 58.3437C53.7993 58.2865 53.8774 58.228 53.8777 58.2137C53.8781 58.1995 53.9019 58.1878 53.9306 58.1878C53.9593 58.1878 53.9828 58.1755 53.9828 58.1606C53.9828 58.1456 54.0259 58.1078 54.0786 58.0766C54.1313 58.0454 54.2057 57.9913 54.2441 57.9565C54.2824 57.9217 54.3764 57.8469 54.453 57.7905C54.5296 57.734 54.6097 57.6716 54.631 57.6518C54.6523 57.6321 54.7295 57.5691 54.8026 57.512C54.8757 57.4548 54.9551 57.3885 54.979 57.3647C55.003 57.3408 55.0323 57.3213 55.0441 57.3213C55.0559 57.3213 55.1013 57.2862 55.1449 57.2434C55.1884 57.2005 55.3239 57.0796 55.4458 56.9748C55.7032 56.7535 56.7394 55.7306 56.8858 55.5532C56.9406 55.4868 57.0699 55.343 57.1731 55.2335C57.2764 55.124 57.3609 55.0259 57.3609 55.0154C57.3609 54.9961 57.3804 54.9714 57.535 54.7942C57.6616 54.6491 57.7154 54.5827 57.8316 54.4275C57.8888 54.3513 57.9512 54.2722 57.9703 54.2518C57.9895 54.2313 58.0443 54.1573 58.0922 54.0874C58.1401 54.0174 58.191 53.96 58.2054 53.9599C58.2197 53.9598 58.2315 53.9363 58.2315 53.9077C58.2315 53.8791 58.2433 53.8554 58.2576 53.855C58.272 53.8547 58.3308 53.777 58.3882 53.6824C58.4457 53.5878 58.5045 53.5101 58.5188 53.5098C58.5332 53.5094 58.5449 53.487 58.5449 53.46C58.5449 53.433 58.5567 53.4058 58.5711 53.3994C58.6086 53.3828 58.7887 53.1014 58.7887 53.0593C58.7887 53.0399 58.8025 53.0239 58.8193 53.0239C58.8361 53.0239 58.8948 52.9382 58.9499 52.8334C59.0049 52.7286 59.0617 52.6429 59.076 52.6428C59.0904 52.6428 59.1021 52.6206 59.1021 52.5936C59.1021 52.5666 59.1139 52.5393 59.1283 52.533C59.1604 52.5188 59.2538 52.3648 59.3561 52.1575C59.3984 52.0718 59.4447 51.9964 59.4591 51.99C59.4734 51.9837 59.4852 51.9639 59.4852 51.946C59.4852 51.9282 59.5244 51.8518 59.5723 51.7763C59.6202 51.7008 59.6593 51.6154 59.6593 51.5864C59.6593 51.5574 59.675 51.5337 59.6942 51.5337C59.7133 51.5337 59.729 51.5025 59.729 51.4644C59.729 51.4263 59.7447 51.3951 59.7638 51.3951C59.783 51.3951 59.7986 51.3717 59.7986 51.3431C59.7986 51.3145 59.8143 51.2911 59.8335 51.2911C59.8526 51.2911 59.8683 51.2629 59.8683 51.2284C59.8683 51.1939 59.8913 51.1355 59.9194 51.0985C59.9476 51.0615 59.9711 51.0039 59.9717 50.9705C59.9723 50.9372 59.9884 50.9099 60.0076 50.9099C60.0267 50.9099 60.0424 50.88 60.0424 50.8435C60.0424 50.8069 60.0545 50.7719 60.0693 50.7655C60.1017 50.7516 60.2864 50.3213 60.2863 50.2601C60.2862 50.2363 60.3019 50.2168 60.321 50.2168C60.3402 50.2168 60.3558 50.1932 60.3558 50.1643C60.3558 50.1355 60.3702 50.0848 60.3877 50.0517C60.4381 49.9566 60.5179 49.7613 60.5679 49.6103C60.5932 49.534 60.6263 49.4568 60.6416 49.4387C60.6568 49.4206 60.6693 49.3777 60.6693 49.3434C60.6693 49.3091 60.6849 49.281 60.7041 49.281C60.7233 49.281 60.7392 49.2538 60.7397 49.2204C60.7401 49.187 60.7792 49.0506 60.8266 48.9172C60.874 48.7837 60.9128 48.6473 60.9129 48.6139C60.913 48.5805 60.9287 48.5533 60.9479 48.5533C60.967 48.5533 60.9827 48.5096 60.9827 48.4562C60.9827 48.4028 60.9967 48.3443 61.0139 48.3263C61.0473 48.2909 61.1894 47.7777 61.2172 47.5915C61.2265 47.5296 61.2464 47.4789 61.2614 47.4789C61.2765 47.4789 61.2966 47.4204 61.3061 47.3489C61.3156 47.2775 61.35 47.1098 61.3825 46.9764C61.4149 46.843 61.45 46.6594 61.4604 46.5684C61.4707 46.4775 61.4929 46.3947 61.5096 46.3845C61.5263 46.3742 61.5399 46.2888 61.5399 46.1946C61.5399 46.1004 61.5542 46.0233 61.5716 46.0233C61.5891 46.0233 61.6117 45.9337 61.6219 45.8241C61.6322 45.7145 61.6651 45.422 61.6952 45.1743C61.8085 44.2395 61.8316 43.8265 61.8307 42.7483C61.8297 41.6517 61.8042 41.1995 61.6942 40.3223C61.6631 40.0746 61.6299 39.7821 61.6205 39.6725C61.6111 39.563 61.5906 39.4733 61.575 39.4733C61.5594 39.4733 61.5387 39.3992 61.529 39.3086C61.5193 39.2181 61.485 39.0115 61.4527 38.8494C61.4204 38.6874 61.3859 38.504 61.376 38.4419C61.3662 38.3798 61.3442 38.3204 61.3271 38.3099C61.3101 38.2994 61.2961 38.2372 61.2961 38.1716C61.2961 38.106 61.2805 38.0523 61.2613 38.0523C61.2421 38.0523 61.2265 38.0063 61.2265 37.95C61.2265 37.8937 61.2124 37.8118 61.1952 37.7681C61.1779 37.7243 61.1373 37.5871 61.1048 37.4632C61.0724 37.3393 61.0316 37.2109 61.0143 37.1778C60.9969 37.1447 60.9827 37.0871 60.9827 37.0498C60.9827 37.0126 60.967 36.9725 60.9479 36.9607C60.9287 36.9489 60.9131 36.9088 60.9131 36.8715C60.9131 36.8342 60.8995 36.7767 60.8829 36.7436C60.8339 36.6458 60.7671 36.448 60.7483 36.3451C60.7388 36.2925 60.717 36.2408 60.7001 36.2304C60.6831 36.22 60.6693 36.1734 60.6693 36.1269C60.6693 36.0803 60.6536 36.0423 60.6344 36.0423C60.6153 36.0423 60.5996 36.0033 60.5996 35.9556C60.5996 35.908 60.5878 35.869 60.5733 35.869C60.5588 35.869 60.5262 35.8027 60.5009 35.7217C60.4756 35.6407 60.4308 35.5198 60.4012 35.4531C60.3044 35.2343 60.1909 34.989 60.0809 34.7605C60.0215 34.6369 59.9728 34.516 59.9728 34.4919C59.9728 34.4678 59.9571 34.4481 59.9379 34.4481C59.9188 34.4481 59.9031 34.4286 59.903 34.4048C59.9029 34.3809 59.85 34.2601 59.7854 34.1362C59.5278 33.6419 59.4671 33.5289 59.4504 33.5124C59.431 33.493 59.3135 33.2823 59.2186 33.0965C59.1845 33.0298 59.1442 32.9596 59.1289 32.9405C59.055 32.8481 58.928 32.6391 58.928 32.6098C58.928 32.5915 58.9123 32.5766 58.8932 32.5766C58.874 32.5766 58.8584 32.5562 58.8584 32.5312C58.8584 32.5062 58.831 32.4546 58.7974 32.4167C58.7277 32.3376 58.6596 32.2363 58.6255 32.1607C58.6126 32.1322 58.5735 32.0835 58.5386 32.0527C58.5038 32.0219 58.4753 31.9779 58.4753 31.9549C58.4753 31.932 58.4557 31.8915 58.4318 31.8649C58.3321 31.7543 58.3012 31.7116 58.3012 31.6847C58.3012 31.669 58.2698 31.6337 58.2315 31.6062C58.1932 31.5788 58.1619 31.543 58.1619 31.5268C58.1619 31.5106 58.1423 31.4756 58.1183 31.449C58.0162 31.3357 57.9877 31.2954 57.9877 31.264C57.9877 31.2457 57.976 31.2256 57.9616 31.2192C57.9473 31.2129 57.8733 31.1297 57.7974 31.0344C57.7214 30.9391 57.6501 30.8533 57.6388 30.8438C57.6276 30.8343 57.5722 30.7643 57.5158 30.6883C57.4593 30.6123 57.3622 30.4988 57.2999 30.4359C57.2377 30.3731 57.1868 30.309 57.1868 30.2935C57.1868 30.278 57.0144 30.0883 56.8037 29.8719C56.593 29.6554 56.4206 29.473 56.4206 29.4664C56.4206 29.4329 55.2834 28.3701 55.2277 28.3515C55.2041 28.3436 55.1168 28.2695 55.0338 28.1869C54.9507 28.1042 54.8723 28.0362 54.8594 28.0357C54.8466 28.0352 54.7721 27.9767 54.694 27.9057C54.6159 27.8348 54.5091 27.7455 54.4568 27.7074C54.1375 27.475 53.9902 27.3655 53.9132 27.3035C53.8653 27.2649 53.7909 27.2166 53.7478 27.1962C53.7047 27.1758 53.6694 27.146 53.6694 27.13C53.6694 27.114 53.6459 27.1009 53.6172 27.1009C53.5885 27.1009 53.5649 27.0886 53.5649 27.0735C53.5649 27.0585 53.4866 27.0006 53.3908 26.945C53.2951 26.8893 53.2167 26.8314 53.2167 26.8164C53.2167 26.8013 53.1932 26.789 53.1645 26.789C53.1357 26.789 53.1122 26.7734 53.1122 26.7543C53.1122 26.7353 53.0962 26.7197 53.0767 26.7197C53.0344 26.7197 52.7516 26.5405 52.735 26.5031C52.7286 26.4888 52.6933 26.4771 52.6566 26.4771C52.6199 26.4771 52.5898 26.4652 52.5898 26.4506C52.5898 26.4225 52.5466 26.3966 52.3164 26.287C52.237 26.2491 52.1719 26.2062 52.1719 26.1917C52.1719 26.1771 52.1484 26.1652 52.1197 26.1652C52.091 26.1652 52.0675 26.1535 52.0674 26.1392C52.0674 26.1249 51.9658 26.0664 51.8416 26.0092C51.7173 25.952 51.6154 25.8936 51.6152 25.8793C51.6149 25.865 51.5847 25.8533 51.548 25.8533C51.5113 25.8533 51.476 25.8416 51.4696 25.8273C51.4542 25.7927 51.0855 25.6107 51.0309 25.6107C51.0072 25.6107 50.9879 25.5951 50.9879 25.576C50.9879 25.557 50.9565 25.5414 50.9182 25.5414C50.8799 25.5414 50.8486 25.5265 50.8486 25.5083C50.8486 25.4901 50.7937 25.4649 50.7267 25.4524C50.6597 25.4399 50.6048 25.4158 50.6048 25.3989C50.6048 25.3819 50.5744 25.3681 50.5372 25.3681C50.5 25.3681 50.4599 25.3525 50.4481 25.3334C50.4363 25.3144 50.3962 25.2988 50.359 25.2988C50.3218 25.2988 50.2914 25.2832 50.2914 25.2641C50.2914 25.2451 50.2677 25.2295 50.2387 25.2295C50.2097 25.2295 50.1587 25.2146 50.1255 25.1965C50.0711 25.1668 49.9597 25.1191 49.6994 25.0139C49.6515 24.9946 49.5851 24.965 49.5518 24.9481C49.5186 24.9313 49.4598 24.9175 49.4212 24.9175C49.3827 24.9175 49.3511 24.9033 49.3511 24.8859C49.3511 24.8685 49.2885 24.8438 49.212 24.8309C49.1355 24.8181 49.064 24.7933 49.0532 24.7759C49.0424 24.7585 48.9953 24.7443 48.9486 24.7443C48.9018 24.7443 48.8636 24.7287 48.8636 24.7096C48.8636 24.6905 48.8242 24.675 48.776 24.675C48.7279 24.675 48.6613 24.6594 48.628 24.6404C48.5638 24.6038 48.1105 24.4712 47.949 24.4419C47.8961 24.4323 47.8442 24.4106 47.8337 24.3937C47.8233 24.3768 47.7762 24.363 47.7292 24.363C47.6822 24.363 47.6165 24.3489 47.5832 24.3315C47.5024 24.2894 47.048 24.1898 46.9365 24.1898C46.8878 24.1898 46.8381 24.1742 46.8263 24.1551C46.8144 24.136 46.7462 24.1204 46.6745 24.1204C46.6028 24.1204 46.5293 24.1064 46.5111 24.0892C46.4929 24.0719 46.4075 24.0499 46.3213 24.0401C46.2351 24.0303 46.0157 23.9966 45.8338 23.9652C45.492 23.9061 45.1851 23.8654 44.6149 23.8035C44.1526 23.7533 41.2695 23.7275 41.2237 23.7732C41.2041 23.7926 41.0817 23.8085 40.9518 23.8085C40.8218 23.8085 40.6487 23.8235 40.567 23.8417C40.4247 23.8736 39.9655 23.9378 39.6349 23.9722C39.5487 23.9812 39.4633 24.0026 39.4451 24.0198C39.4269 24.0371 39.3478 24.0511 39.2692 24.0511C39.1907 24.0511 39.1116 24.0651 39.0934 24.0823C39.0752 24.0993 38.9976 24.1212 38.921 24.1307C38.8444 24.1402 38.719 24.1643 38.6424 24.1842C38.4258 24.2405 38.3052 24.2656 38.1635 24.284C38.0917 24.2933 38.0329 24.315 38.0329 24.332C38.0329 24.3491 37.9781 24.363 37.9111 24.363C37.844 24.363 37.7892 24.3769 37.7892 24.3938C37.7892 24.4107 37.7461 24.4328 37.6934 24.4429C37.6087 24.4592 37.4759 24.4937 37.2494 24.5582C37.2111 24.5691 37.1367 24.586 37.084 24.5958C37.0313 24.6055 36.9882 24.6273 36.9882 24.6442C36.9882 24.6611 36.9412 24.675 36.8837 24.675C36.8263 24.675 36.7792 24.6905 36.7792 24.7096C36.7792 24.7287 36.7518 24.7448 36.7183 24.7454C36.6478 24.7467 36.3012 24.8619 36.2678 24.8951C36.2554 24.9075 36.2165 24.9175 36.1814 24.9175C36.1463 24.9175 36.1176 24.9331 36.1176 24.9522C36.1176 24.9713 36.0793 24.9869 36.0326 24.9869C35.9858 24.9869 35.9379 25.0025 35.926 25.0215C35.9142 25.0406 35.8735 25.0562 35.8356 25.0562C35.7908 25.0562 34.9736 24.267 33.5044 22.8048L31.242 20.5535V18.1027C31.242 16.6812 31.2284 15.6072 31.2095 15.5454C31.1916 15.4869 31.1494 15.3142 31.1158 15.1617C31.0823 15.0093 31.042 14.8697 31.0265 14.8516C31.011 14.8334 30.9983 14.7828 30.9983 14.7389C30.9983 14.6951 30.9826 14.6592 30.9634 14.6592C30.9443 14.6592 30.9286 14.64 30.9286 14.6165C30.9286 14.5621 30.7458 14.1952 30.711 14.1798C30.6966 14.1735 30.6848 14.1462 30.6848 14.1192C30.6848 14.0921 30.6692 14.0701 30.65 14.0701C30.6309 14.0701 30.6152 14.0506 30.6152 14.0268C30.6151 13.9893 30.5706 13.9266 30.4069 13.7336C30.3874 13.7106 30.3714 13.6828 30.3714 13.6718C30.3714 13.645 29.8921 13.169 29.8652 13.169C29.8536 13.169 29.8234 13.1495 29.7982 13.1257C29.7729 13.1019 29.7088 13.0512 29.6556 13.013C29.6024 12.9749 29.5391 12.9242 29.5149 12.9004C29.4907 12.8766 29.4463 12.8571 29.4162 12.8571C29.3861 12.8571 29.3615 12.8439 29.3615 12.8277C29.3615 12.8115 29.291 12.7693 29.2048 12.7339C29.1186 12.6985 29.0481 12.6572 29.0481 12.6421C29.0481 12.6269 29.0102 12.6145 28.9639 12.6145C28.9176 12.6145 28.8745 12.6025 28.8681 12.5879C28.851 12.5486 28.2799 12.3716 28.1708 12.3718C28.1192 12.3718 28.0674 12.3563 28.0555 12.3372C28.0415 12.3147 27.26 12.3026 25.8247 12.3026H23.6153V10.4498C23.6153 9.42905 23.5992 8.43694 23.5794 8.24047C23.5427 7.87679 23.4595 7.42639 23.4029 7.28607C23.3857 7.24316 23.3573 7.17302 23.3398 7.13011C23.3224 7.08721 23.2793 6.97811 23.2441 6.88766C23.2089 6.79717 23.1683 6.72311 23.1539 6.72304C23.1395 6.72297 23.1278 6.69171 23.1278 6.65359C23.1278 6.61546 23.1161 6.58424 23.1017 6.5842C23.0873 6.58414 23.0134 6.48277 22.9374 6.35894C22.8613 6.23508 22.7869 6.13374 22.7719 6.13374C22.757 6.13374 22.7447 6.11624 22.7447 6.09482C22.7447 6.04634 22.2045 5.52496 22.0743 5.44778C22.0216 5.41656 21.9786 5.37878 21.9786 5.36381C21.9786 5.34887 21.9563 5.33664 21.9292 5.33664C21.9021 5.33664 21.8747 5.32371 21.8683 5.30791C21.851 5.26518 21.4256 5.02473 21.3672 5.02473C21.3396 5.02473 21.3169 5.01302 21.3169 4.99874C21.3169 4.98446 21.2136 4.94173 21.0874 4.90382C20.9612 4.8659 20.8506 4.82303 20.8416 4.80851C20.8326 4.79399 20.7744 4.78214 20.7124 4.78214C20.6503 4.78214 20.5846 4.76796 20.5664 4.75067C20.4979 4.68552 20.0848 4.67086 17.6951 4.64881L15.2399 4.62618L13.7947 3.18759C12.9998 2.39635 12.2711 1.68676 12.1753 1.61072C12.0795 1.53465 11.9959 1.46073 11.9896 1.44645C11.9832 1.43214 11.957 1.42046 11.9315 1.42046C11.906 1.42046 11.8799 1.40875 11.8735 1.39447C11.8568 1.35707 11.574 1.17787 11.5318 1.17787C11.5122 1.17787 11.4962 1.16227 11.4962 1.14321C11.4962 1.12415 11.4725 1.10855 11.4435 1.10855C11.4145 1.10855 11.3636 1.09386 11.3303 1.07594C11.27 1.0434 11.0353 0.977343 10.7209 0.904425C10.5054 0.854451 4.05139 0.850812 3.97397 0.900613ZM11.2703 6.04911C12.8732 7.62757 12.8544 7.60962 13.0459 7.74811C13.1225 7.80352 13.1931 7.85672 13.2026 7.86636C13.2122 7.87599 13.2827 7.91494 13.3593 7.95286C13.436 7.99081 13.5065 8.02983 13.5161 8.03957C13.5329 8.05669 13.6402 8.10802 13.8034 8.17691C14.0502 8.28119 14.16 8.3171 14.2322 8.3171C14.2766 8.3171 14.3226 8.33269 14.3344 8.35175C14.3463 8.37081 14.4164 8.38641 14.4903 8.38641C14.5668 8.38641 14.6309 8.40506 14.6392 8.42973C14.6506 8.46373 15.203 8.47569 17.2017 8.48522L19.7498 8.49742V10.4635C19.7498 11.5449 19.7642 12.5141 19.7818 12.6174C19.8884 13.2413 19.9391 13.4809 19.9647 13.4809C19.9805 13.4809 19.9935 13.5199 19.9935 13.5676C19.9935 13.6152 20.0092 13.6542 20.0284 13.6542C20.0475 13.6542 20.0632 13.6772 20.0632 13.7054C20.0632 13.7533 20.2339 14.136 20.2722 14.174C20.2818 14.1836 20.3131 14.2382 20.3419 14.2953C20.3705 14.3525 20.4293 14.4381 20.4724 14.4856C20.5155 14.533 20.5507 14.5854 20.5507 14.6018C20.5507 14.6533 21.2817 15.3524 21.3355 15.3524C21.3636 15.3524 21.3865 15.3655 21.3865 15.3816C21.3865 15.3976 21.4414 15.4401 21.5084 15.4761C21.5755 15.512 21.6303 15.5534 21.6303 15.5682C21.6303 15.5829 21.6538 15.595 21.6825 15.595C21.7113 15.595 21.7348 15.6106 21.7348 15.6296C21.7348 15.6487 21.7661 15.6643 21.8044 15.6643C21.8427 15.6643 21.8741 15.6799 21.8741 15.6989C21.8741 15.718 21.9028 15.7336 21.9379 15.7336C21.9731 15.7336 22.0129 15.7447 22.0266 15.7583C22.0651 15.7966 22.3718 15.9068 22.44 15.9068C22.4735 15.9069 22.5009 15.9225 22.5009 15.9415C22.5009 15.9606 22.5558 15.9762 22.6228 15.9762C22.6899 15.9762 22.7447 15.9898 22.7447 16.0065C22.7447 16.0699 23.2083 16.0888 25.2869 16.1101L27.4287 16.1321L27.4461 18.7383C27.4596 20.7581 27.4733 21.3542 27.507 21.3878C27.531 21.4116 27.5506 21.475 27.5506 21.5286C27.5506 21.5822 27.5687 21.661 27.5908 21.7036C27.6707 21.8573 27.6899 21.902 27.6899 21.9342C27.6899 21.9809 27.8835 22.3794 27.986 22.5436C28.0336 22.6198 28.0836 22.7056 28.0972 22.7341C28.1107 22.7626 28.1539 22.8205 28.1932 22.8627C28.2324 22.9049 28.2958 22.9802 28.3341 23.03C28.4485 23.1787 34.9714 29.6655 35.0065 29.6655C35.04 29.6655 35.1814 29.5931 35.2121 29.5602C35.2217 29.55 35.3235 29.4954 35.4385 29.4389C35.5534 29.3824 35.6526 29.3246 35.659 29.3103C35.6654 29.2959 35.7007 29.2843 35.7374 29.2843C35.7741 29.2843 35.8041 29.2716 35.8041 29.2561C35.8041 29.2406 35.859 29.2065 35.926 29.1803C35.9931 29.1541 36.0479 29.12 36.0479 29.1045C36.0479 29.089 36.0763 29.0763 36.1109 29.0763C36.1456 29.0763 36.2043 29.0534 36.2415 29.0254C36.2787 28.9974 36.3365 28.9741 36.37 28.9735C36.4036 28.9728 36.431 28.9568 36.431 28.9377C36.431 28.9186 36.4506 28.903 36.4745 28.9029C36.4985 28.9028 36.5951 28.8638 36.6894 28.8163C36.7836 28.7687 36.8894 28.7298 36.9244 28.7298C36.9595 28.7298 36.9882 28.7142 36.9882 28.6951C36.9882 28.676 37.0186 28.6604 37.0558 28.6604C37.093 28.6604 37.1331 28.6448 37.1449 28.6258C37.1567 28.6067 37.1968 28.5911 37.234 28.5911C37.2712 28.5911 37.3016 28.5755 37.3016 28.5565C37.3016 28.5374 37.3324 28.5218 37.3701 28.5218C37.4318 28.5218 37.6011 28.4602 37.7626 28.379C37.7958 28.3622 37.8624 28.3485 37.9106 28.3485C37.9587 28.3485 37.9981 28.3329 37.9981 28.3139C37.9981 28.2948 38.0373 28.2792 38.0852 28.2792C38.1331 28.2792 38.1722 28.2636 38.1722 28.2446C38.1722 28.2255 38.2119 28.2099 38.2604 28.2099C38.3089 28.2099 38.4049 28.1865 38.4736 28.1579C38.5424 28.1293 38.6437 28.1059 38.6989 28.1059C38.754 28.1059 38.7991 28.0903 38.7991 28.0713C38.7991 28.0522 38.8385 28.0366 38.8866 28.0366C38.9348 28.0366 39.0014 28.0223 39.0347 28.0048C39.0679 27.9873 39.2205 27.947 39.3737 27.9152C39.5269 27.8834 39.6978 27.8432 39.7533 27.8257C39.8088 27.8083 39.9146 27.794 39.9883 27.794C40.0621 27.794 40.1225 27.7784 40.1225 27.7594C40.1225 27.7401 40.2153 27.7247 40.3314 27.7247C40.4463 27.7247 40.5404 27.7108 40.5404 27.6938C40.5404 27.6769 40.654 27.6542 40.7928 27.6436C40.9317 27.6329 41.202 27.6085 41.3936 27.5895C41.8374 27.5453 43.6528 27.5444 44.1099 27.5881C44.3015 27.6065 44.5722 27.6312 44.7115 27.643C44.8508 27.6549 44.9731 27.6781 44.9834 27.6947C44.9937 27.7112 45.0864 27.7247 45.1895 27.7247C45.2926 27.7247 45.3854 27.7384 45.3958 27.755C45.4061 27.7717 45.4972 27.7944 45.5981 27.8056C45.699 27.8167 45.8912 27.8512 46.0253 27.8823C46.1594 27.9134 46.3279 27.9468 46.3997 27.9567C46.4715 27.9666 46.5303 27.9886 46.5303 28.0056C46.5303 28.0227 46.5697 28.0366 46.6178 28.0366C46.666 28.0366 46.7326 28.0505 46.7658 28.0675C46.7991 28.0845 46.9438 28.1257 47.0875 28.159C47.2311 28.1923 47.3636 28.233 47.3817 28.2494C47.4 28.2658 47.4587 28.2792 47.5123 28.2792C47.566 28.2792 47.6099 28.2948 47.6099 28.3139C47.6099 28.3329 47.6459 28.3485 47.69 28.3485C47.734 28.3485 47.7849 28.3609 47.8031 28.3761C47.8213 28.3913 47.8989 28.4243 47.9755 28.4494C48.0521 28.4746 48.1697 28.5183 48.2367 28.5467C48.3037 28.575 48.3899 28.6106 48.4282 28.6257C48.4665 28.6409 48.5884 28.6939 48.6991 28.7435C48.8097 28.7931 48.9224 28.8337 48.9495 28.8337C48.9766 28.8337 49.0084 28.8493 49.0203 28.8684C49.0321 28.8874 49.0709 28.903 49.1065 28.903C49.1421 28.903 49.1764 28.9154 49.1828 28.9304C49.196 28.9616 49.579 29.1456 49.6306 29.1456C49.6493 29.1456 49.6645 29.1612 49.6645 29.1803C49.6645 29.1994 49.6959 29.2149 49.7342 29.2149C49.7725 29.2149 49.804 29.2266 49.8043 29.2409C49.8045 29.2553 49.9064 29.3137 50.0306 29.3709C50.1549 29.4281 50.2565 29.4866 50.2565 29.5009C50.2566 29.5152 50.2801 29.5269 50.3088 29.5269C50.3375 29.5269 50.3612 29.5385 50.3614 29.5528C50.3616 29.5672 50.4321 29.6096 50.5181 29.6473C50.6041 29.6849 50.6745 29.7278 50.6745 29.7426C50.6745 29.7574 50.698 29.7695 50.7267 29.7695C50.7554 29.7695 50.7789 29.785 50.7789 29.8041C50.7789 29.8232 50.8024 29.8388 50.8312 29.8388C50.8599 29.8388 50.8834 29.8526 50.8834 29.8694C50.8834 29.8862 50.9108 29.9092 50.9444 29.9203C51.0175 29.9448 51.1158 30.0075 51.2102 30.09C51.2484 30.1234 51.3002 30.1507 51.3253 30.1507C51.3504 30.1507 51.371 30.1629 51.371 30.1778C51.371 30.1928 51.4207 30.2343 51.4816 30.2701C51.5859 30.3314 51.6209 30.3575 51.7971 30.5059C51.8368 30.5393 51.8801 30.5666 51.8935 30.5666C51.9069 30.5666 51.967 30.6133 52.0272 30.6705C52.0873 30.7277 52.1484 30.7749 52.1629 30.7754C52.1774 30.7759 52.2533 30.8344 52.3314 30.9054C52.4096 30.9764 52.5167 31.0656 52.5696 31.1037C52.9062 31.3465 54.2083 32.6417 54.453 32.9771C54.4913 33.0296 54.5657 33.1186 54.6184 33.1748C54.6711 33.2311 54.7142 33.2887 54.7142 33.3029C54.7142 33.3172 54.7612 33.3777 54.8187 33.4376C54.8761 33.4974 54.9231 33.555 54.9231 33.5655C54.9231 33.5839 54.9612 33.6336 55.0537 33.7363C55.0777 33.7629 55.0973 33.8001 55.0973 33.8189C55.0973 33.8377 55.1092 33.8583 55.1238 33.8647C55.1561 33.8787 55.4107 34.2314 55.4107 34.2621C55.4107 34.2742 55.4383 34.3092 55.4721 34.34C55.5059 34.3709 55.5646 34.4585 55.6027 34.5347C55.6407 34.611 55.6836 34.6785 55.698 34.6849C55.7123 34.6913 55.7241 34.7185 55.7241 34.7455C55.7241 34.7725 55.7371 34.7946 55.753 34.7946C55.769 34.7946 55.8042 34.8375 55.8313 34.8899C55.8585 34.9424 55.8886 34.993 55.8982 35.0026C55.9078 35.0121 55.9468 35.0823 55.9849 35.1585C56.0231 35.2348 56.0624 35.305 56.0722 35.3145C56.0821 35.324 56.1525 35.4566 56.2287 35.6091C56.3049 35.7616 56.3793 35.8915 56.3939 35.8979C56.4086 35.9042 56.4206 35.9393 56.4206 35.9758C56.4206 36.0124 56.435 36.0423 56.4527 36.0423C56.4703 36.0423 56.495 36.0889 56.5076 36.1459C56.5201 36.2028 56.5449 36.2583 56.5626 36.2692C56.5803 36.28 56.5947 36.3192 56.5947 36.3562C56.5947 36.3932 56.6104 36.4235 56.6296 36.4235C56.6487 36.4235 56.6644 36.4547 56.6644 36.4928C56.6644 36.5309 56.6801 36.5621 56.6992 36.5621C56.7184 36.5621 56.734 36.5857 56.734 36.6146C56.734 36.6434 56.7489 36.6941 56.7672 36.7272C56.7986 36.7842 56.8836 36.9823 56.9419 37.1339C56.9565 37.1721 56.9884 37.25 57.0126 37.3072C57.1272 37.5772 57.2216 37.8554 57.2216 37.9235C57.2216 37.9563 57.2373 37.983 57.2564 37.983C57.2756 37.983 57.2912 38.0222 57.2912 38.0702C57.2912 38.1181 57.3054 38.1844 57.3229 38.2175C57.3743 38.3153 57.4654 38.643 57.4654 38.7301C57.4654 38.7744 57.481 38.8203 57.5002 38.8321C57.5193 38.8439 57.535 38.8985 57.535 38.9534C57.535 39.0083 57.549 39.0619 57.5661 39.0725C57.5833 39.083 57.6055 39.1502 57.6156 39.2218C57.6256 39.2934 57.6512 39.4221 57.6724 39.5079C57.7249 39.7202 57.8154 40.2494 57.8354 40.461C57.8444 40.5563 57.8662 40.6654 57.8838 40.7036C57.9194 40.7808 57.9334 40.9582 57.9895 42.0374C58.0181 42.5885 58.0179 42.9713 57.9885 43.5103C57.9245 44.6859 57.9145 44.8104 57.8838 44.8104C57.8678 44.8104 57.8467 44.9001 57.8371 45.0096C57.8274 45.1193 57.7941 45.3571 57.7632 45.5381C57.7322 45.7192 57.6979 45.9259 57.687 45.9976C57.676 46.0691 57.6529 46.1363 57.6358 46.1469C57.6187 46.1574 57.6047 46.2275 57.6047 46.3026C57.6047 46.3778 57.589 46.4392 57.5698 46.4392C57.5507 46.4392 57.535 46.4938 57.535 46.5605C57.535 46.6272 57.5212 46.6818 57.5042 46.6818C57.4873 46.6818 57.4626 46.7673 57.4495 46.8719C57.4364 46.9764 57.4111 47.0709 57.3933 47.0818C57.3755 47.0928 57.3609 47.1476 57.3609 47.2037C57.3609 47.2598 57.3452 47.3056 57.3261 47.3056C57.3069 47.3056 57.2912 47.337 57.2912 47.3754C57.2912 47.4138 57.2775 47.4723 57.2607 47.5054C57.244 47.5385 57.2016 47.6591 57.1666 47.7735C57.1316 47.8879 57.0923 48.0048 57.0793 48.0334C57.0514 48.0946 56.9901 48.244 56.9478 48.354C56.9313 48.3969 56.8921 48.491 56.8608 48.5631C56.8294 48.6352 56.8037 48.7171 56.8037 48.745C56.8037 48.773 56.788 48.7959 56.7689 48.7959C56.7497 48.7959 56.734 48.827 56.734 48.8652C56.734 48.9033 56.7184 48.9345 56.6992 48.9345C56.6801 48.9345 56.6644 48.9735 56.6644 49.0211C56.6644 49.0688 56.6487 49.1078 56.6296 49.1078C56.6104 49.1078 56.5947 49.1229 56.5947 49.1415C56.5947 49.1929 56.4098 49.574 56.3785 49.5872C56.3634 49.5935 56.351 49.6273 56.351 49.6623C56.351 49.6972 56.3392 49.731 56.3248 49.7374C56.3105 49.7437 56.2523 49.8425 56.1956 49.9568C56.1388 50.0712 56.0838 50.1726 56.0733 50.1821C56.0628 50.1916 56.0094 50.2891 55.9547 50.3987C55.8999 50.5083 55.8413 50.598 55.8244 50.598C55.8075 50.598 55.7938 50.622 55.7938 50.6514C55.7938 50.6808 55.7647 50.7359 55.7292 50.7739C55.6936 50.8118 55.6348 50.9046 55.5986 50.98C55.5623 51.0554 55.5208 51.1172 55.5065 51.1175C55.4921 51.1177 55.4803 51.1412 55.4803 51.1698C55.4803 51.1984 55.468 51.2218 55.453 51.2218C55.438 51.2218 55.396 51.2725 55.3597 51.3344C55.3234 51.3964 55.2652 51.4723 55.2303 51.5031C55.1954 51.534 55.1669 51.5846 55.1669 51.6157C55.1669 51.6469 55.1551 51.6727 55.1408 51.6731C55.1264 51.6735 55.0677 51.7437 55.0102 51.829C54.9527 51.9143 54.8939 51.9841 54.8796 51.9842C54.8652 51.9842 54.8535 52.0005 54.8535 52.0205C54.8535 52.0404 54.8182 52.0942 54.7751 52.1401C54.6581 52.2646 54.6097 52.3256 54.6097 52.3482C54.6097 52.3594 54.5744 52.4041 54.5313 52.4475C54.4883 52.4909 54.3668 52.6265 54.2615 52.7489C54.0038 53.0481 53.0879 53.9578 52.764 54.2362C52.6203 54.3596 52.4774 54.4883 52.4465 54.522C52.4155 54.5558 52.3803 54.5835 52.3684 54.5835C52.3478 54.5835 52.2163 54.6879 52.1175 54.7828C52.0928 54.8066 52.0557 54.8261 52.0351 54.8261C52.0146 54.8261 51.9978 54.8378 51.9977 54.8521C51.9977 54.8663 51.9275 54.9249 51.8418 54.982C51.7561 55.0392 51.6856 55.0977 51.6852 55.112C51.6847 55.1263 51.6638 55.138 51.6387 55.138C51.6136 55.138 51.5627 55.1661 51.5256 55.2004C51.4884 55.2347 51.4071 55.2926 51.3448 55.3292C51.2826 55.3656 51.2317 55.4077 51.2317 55.4227C51.2317 55.4377 51.2082 55.4499 51.1794 55.4499C51.1507 55.4499 51.127 55.4616 51.1268 55.4759C51.1266 55.4902 51.0639 55.5317 50.9875 55.5681C50.9111 55.6045 50.8486 55.6474 50.8486 55.6634C50.8486 55.6794 50.8251 55.6925 50.7964 55.6925C50.7676 55.6925 50.744 55.7042 50.7438 55.7185C50.7437 55.7328 50.7084 55.7619 50.6655 55.7831C50.5759 55.8274 50.3707 55.9408 50.053 56.1214C49.9314 56.1905 49.81 56.247 49.7831 56.247C49.7562 56.247 49.7342 56.2597 49.7342 56.2752C49.7342 56.2907 49.6793 56.3248 49.6123 56.351C49.5453 56.3771 49.4904 56.4112 49.4904 56.4268C49.4904 56.4422 49.4621 56.4549 49.4274 56.4549C49.3928 56.4549 49.334 56.4778 49.2968 56.5058C49.2597 56.5338 49.2018 56.5572 49.1683 56.5578C49.1347 56.5584 49.1073 56.5745 49.1073 56.5936C49.1073 56.6126 49.0865 56.6282 49.061 56.6282C49.0355 56.6282 48.9396 56.666 48.8478 56.7123C48.7561 56.7585 48.6124 56.8165 48.5285 56.8411C48.4446 56.8658 48.376 56.8981 48.376 56.913C48.376 56.9279 48.3368 56.9401 48.2889 56.9401C48.2411 56.9401 48.2019 56.9557 48.2019 56.9748C48.2019 56.9938 48.1658 57.0094 48.1218 57.0094C48.0777 57.0094 48.0268 57.0223 48.0086 57.038C47.9904 57.0537 47.8815 57.0959 47.7666 57.1317C47.6516 57.1676 47.5427 57.2093 47.5245 57.2245C47.5064 57.2396 47.4476 57.252 47.3939 57.252C47.3403 57.252 47.2964 57.2659 47.2964 57.2828C47.2964 57.2996 47.2533 57.3224 47.2007 57.3333C46.9034 57.3949 46.7061 57.4467 46.6835 57.4692C46.6695 57.4832 46.6057 57.4946 46.5419 57.4946C46.478 57.4946 46.4258 57.5086 46.4258 57.5256C46.4258 57.5427 46.367 57.5648 46.2952 57.5748C46.2234 57.5848 46.0941 57.6101 46.0079 57.631C44.925 57.8936 43.3042 58.0208 41.9467 57.9497C40.7901 57.8892 40.61 57.8742 40.61 57.8386C40.61 57.8209 40.5367 57.8065 40.4471 57.8065C40.3575 57.8065 40.236 57.7918 40.1772 57.7737C40.0792 57.7437 39.7954 57.6941 39.4434 57.6454C39.3667 57.6348 39.2892 57.6121 39.271 57.5951C39.2528 57.5779 39.1862 57.5639 39.123 57.5639C39.0598 57.5639 39.008 57.5483 39.008 57.5293C39.008 57.5102 38.9558 57.4946 38.892 57.4946C38.8281 57.4946 38.7641 57.4829 38.7498 57.4687C38.7217 57.4407 38.4356 57.3626 38.2503 57.3323C38.1878 57.322 38.1282 57.2998 38.1176 57.2829C38.1071 57.2659 38.0602 57.252 38.0135 57.252C37.9667 57.252 37.9285 57.2364 37.9285 57.2174C37.9285 57.1983 37.9029 57.1827 37.8717 57.1827C37.791 57.1827 37.2517 56.9992 37.2378 56.967C37.2314 56.9522 37.1883 56.9401 37.142 56.9401C37.0957 56.9401 37.0578 56.9245 37.0578 56.9055C37.0578 56.8864 37.0354 56.8708 37.0079 56.8708C36.9417 56.8708 36.5213 56.6903 36.5065 56.6555C36.5 56.6405 36.4648 56.6282 36.4281 56.6282C36.3914 56.6282 36.3613 56.6126 36.3613 56.5936C36.3613 56.5745 36.3303 56.5589 36.2924 56.5589C36.2196 56.5589 35.5163 56.2149 35.4965 56.1696C35.4901 56.155 35.4549 56.143 35.4182 56.143C35.3814 56.143 35.3514 56.1274 35.3514 56.1084C35.3514 56.0893 35.3279 56.0737 35.2992 56.0737C35.2704 56.0737 35.2469 56.0613 35.2469 56.0462C35.2469 56.031 35.1764 55.9897 35.0902 55.9543C35.004 55.9189 34.9335 55.8805 34.9335 55.869C34.9335 55.8575 34.8826 55.8256 34.8203 55.7982C34.7581 55.7708 34.6808 55.7241 34.6485 55.6944C34.6163 55.6648 34.5301 55.6095 34.457 55.5717C34.3839 55.5338 34.2987 55.4753 34.2678 55.4417C34.2368 55.4081 34.2022 55.3806 34.1909 55.3806C34.1718 55.3806 33.9498 55.2421 33.8713 55.1813C33.8522 55.1664 33.7503 55.0921 33.645 55.0162C33.5396 54.9402 33.408 54.8352 33.3525 54.7828C33.297 54.7303 33.2399 54.6875 33.2256 54.6875C33.2113 54.6875 33.1534 54.6445 33.0969 54.5921C33.0403 54.5397 32.9509 54.4657 32.8982 54.4275C32.8455 54.3894 32.7587 54.3192 32.7055 54.2716C32.443 54.0366 31.8486 53.4837 31.7927 53.4225C31.7579 53.3844 31.6315 53.2499 31.5118 53.1235C31.3922 52.9973 31.2473 52.8362 31.1898 52.7657C31.1323 52.6951 31.0501 52.6003 31.007 52.555C30.9639 52.5097 30.9286 52.463 30.9286 52.4514C30.9286 52.4397 30.8739 52.3727 30.807 52.3025C30.7401 52.2323 30.6853 52.1624 30.6852 52.1473C30.685 52.1321 30.6496 52.0843 30.6065 52.0409C30.5634 51.9976 30.4968 51.9185 30.4585 51.8653C30.4202 51.8121 30.3693 51.7481 30.3453 51.723C30.3214 51.6978 30.3018 51.6606 30.3018 51.6401C30.3018 51.6197 30.2871 51.603 30.2693 51.603C30.2514 51.603 30.228 51.5758 30.2172 51.5424C30.2064 51.509 30.1506 51.4271 30.0931 51.3604C30.0356 51.2937 29.9885 51.2209 29.9884 51.1987C29.9884 51.1765 29.9766 51.1531 29.9622 51.1467C29.9246 51.1301 29.7446 50.8487 29.7446 50.8067C29.7446 50.7872 29.7289 50.7713 29.7097 50.7713C29.6906 50.7713 29.6749 50.7479 29.6749 50.7193C29.6749 50.6907 29.6608 50.6673 29.6435 50.6673C29.6263 50.6673 29.5832 50.5972 29.5478 50.5115C29.5124 50.4258 29.4716 50.3556 29.4573 50.3555C29.4429 50.3555 29.4311 50.332 29.4311 50.3034C29.4311 50.2748 29.4194 50.2514 29.405 50.2514C29.3906 50.2514 29.3319 50.1502 29.2744 50.0266C29.217 49.903 29.1582 49.8016 29.1438 49.8013C29.1294 49.8011 29.1177 49.771 29.1177 49.7345C29.1177 49.6979 29.1059 49.6629 29.0916 49.6565C29.0568 49.6411 28.8739 49.2744 28.8739 49.2199C28.8739 49.1963 28.8583 49.1771 28.8391 49.1771C28.82 49.1771 28.8043 49.1535 28.8043 49.1246C28.8043 49.0958 28.7896 49.0451 28.7717 49.012C28.6961 48.8723 28.6302 48.7127 28.6302 48.6692C28.6302 48.6436 28.6145 48.6226 28.5953 48.6226C28.5762 48.6226 28.5605 48.5836 28.5605 48.5359C28.5605 48.4883 28.5487 48.4493 28.5341 48.4493C28.5197 48.4493 28.4871 48.383 28.4618 48.302C28.4365 48.221 28.3957 48.1079 28.3712 48.0507C28.2672 47.8085 28.2471 47.7494 28.2471 47.6852C28.2471 47.648 28.2314 47.6175 28.2123 47.6175C28.1931 47.6175 28.1774 47.5811 28.1774 47.5367C28.1774 47.4922 28.1657 47.4441 28.1513 47.4298C28.1233 47.4019 28.0448 47.1173 28.0143 46.9331C28.0041 46.8711 27.9817 46.8204 27.9647 46.8204C27.9476 46.8204 27.9337 46.7659 27.9337 46.6991C27.9337 46.6324 27.9196 46.5778 27.9025 46.5778C27.8854 46.5778 27.8636 46.5194 27.8541 46.4479C27.8446 46.3764 27.8038 46.1713 27.7634 45.9921C27.723 45.8129 27.6899 45.6227 27.6899 45.5696C27.6899 45.5164 27.6742 45.4633 27.6551 45.4515C27.6359 45.4397 27.6202 45.3461 27.6202 45.2436C27.6202 45.141 27.6066 45.0487 27.59 45.0385C27.5734 45.0282 27.5502 44.9065 27.5385 44.7678C27.5268 44.6292 27.5022 44.3832 27.4838 44.2212C27.441 43.8426 27.441 41.7698 27.4838 41.362C27.5019 41.1905 27.5263 40.9367 27.5382 40.7981C27.5501 40.6595 27.5734 40.5377 27.59 40.5274C27.6066 40.5172 27.6202 40.4327 27.6202 40.3397C27.6202 40.2466 27.6359 40.1608 27.6551 40.1491C27.6742 40.1373 27.6903 40.0779 27.6908 40.0171C27.6913 39.9562 27.7242 39.7739 27.7639 39.6119C27.8037 39.4499 27.8441 39.2587 27.8538 39.1871C27.8634 39.1155 27.8854 39.0483 27.9025 39.0378C27.9197 39.0273 27.9337 38.9803 27.9337 38.9336C27.9337 38.8868 27.9479 38.8214 27.9652 38.7883C27.9826 38.7552 28.0235 38.6268 28.0561 38.5029C28.1147 38.2806 28.1562 38.1619 28.2163 38.0442C28.2333 38.0111 28.2471 37.9535 28.2471 37.9163C28.2471 37.879 28.259 37.8411 28.2736 37.8322C28.2882 37.8232 28.3313 37.7132 28.3694 37.5876C28.4075 37.462 28.4504 37.3592 28.4647 37.3592C28.4791 37.3592 28.4909 37.3202 28.4909 37.2726C28.4909 37.2249 28.5065 37.1859 28.5257 37.1859C28.5448 37.1859 28.5605 37.1557 28.5605 37.1187C28.5605 37.0817 28.5762 37.0418 28.5953 37.03C28.6145 37.0182 28.6302 36.9865 28.6302 36.9596C28.6302 36.897 28.8099 36.5139 28.8464 36.4986C28.8615 36.4922 28.8739 36.458 28.8739 36.4227C28.8739 36.3872 28.8884 36.3494 28.9061 36.3385C28.9238 36.3276 28.9485 36.2721 28.9611 36.2152C28.9737 36.1582 28.9984 36.1116 29.016 36.1116C29.0336 36.1116 29.0481 36.0867 29.0481 36.0563C29.0481 36.0259 29.0765 35.9596 29.1112 35.909C29.1459 35.8584 29.2203 35.7234 29.2766 35.6091C29.3329 35.4947 29.3906 35.3959 29.405 35.3896C29.4194 35.3832 29.4311 35.3481 29.4311 35.3116C29.4311 35.275 29.4443 35.2452 29.4604 35.2452C29.5124 35.2452 29.5649 35.088 29.5322 35.03C29.5153 34.9998 27.084 32.5721 24.1293 29.6351C21.1747 26.698 18.1696 23.7099 17.4513 22.9948C15.3483 20.901 13.0943 18.6661 11.3569 16.9522C10.4662 16.0735 9.72381 15.3404 9.70706 15.3231C9.69031 15.3059 9.62174 15.2371 9.5547 15.1704C9.48766 15.1037 9.41519 15.031 9.39363 15.0089C9.37208 14.9868 9.30089 14.9186 9.23542 14.8573C9.16995 14.796 9.08376 14.7085 9.04388 14.6629C9.00401 14.6173 8.95104 14.5627 8.92617 14.5416C8.90131 14.5205 8.86213 14.4835 8.83911 14.4593C8.81609 14.4351 8.74435 14.3629 8.67972 14.299C8.61508 14.235 8.54456 14.1642 8.523 14.1415C8.50145 14.1189 8.43089 14.0506 8.36619 13.9899C8.30152 13.9292 8.21532 13.8419 8.17465 13.7959C8.13401 13.7499 8.06404 13.6797 8.01919 13.6399C7.97433 13.6001 7.84896 13.4767 7.74059 13.3656C7.63221 13.2545 7.49027 13.1142 7.42514 13.0537C7.36002 12.9932 7.2895 12.9232 7.26843 12.898C7.24736 12.8729 7.19254 12.8183 7.14665 12.7767C7.0381 12.6784 6.93498 12.5756 6.84151 12.4723C6.80014 12.4266 6.67477 12.3002 6.56291 12.1914C6.45101 12.0826 6.25446 11.8876 6.12613 11.7582C5.99776 11.6287 5.7862 11.4176 5.65599 11.289C5.52574 11.1604 5.40198 11.0357 5.38091 11.0118C5.35984 10.9879 5.28932 10.9185 5.22419 10.8576C5.15907 10.7967 5.08789 10.7265 5.06602 10.7016C5.04415 10.6768 4.97363 10.6085 4.90931 10.55C4.84498 10.4915 4.75761 10.4057 4.71512 10.3594C4.67263 10.3131 4.59807 10.2364 4.54949 10.1891L4.46111 10.1029L4.47002 7.39922L4.47894 4.6955L5.36698 4.67727C5.8554 4.66725 7.06226 4.65554 8.04893 4.65127L9.84281 4.64351L11.2703 6.04911ZM47.7317 38.987C47.5785 39.0162 47.3998 39.0673 47.3346 39.1007C47.2694 39.1341 47.195 39.1614 47.1692 39.1614C47.1434 39.1614 47.1223 39.1759 47.1223 39.1937C47.1223 39.2115 47.0949 39.2348 47.0614 39.2455C47.0278 39.2562 46.9456 39.3118 46.8785 39.3691C46.8115 39.4263 46.7442 39.4731 46.729 39.4732C46.7137 39.4732 46.6621 39.5123 46.6142 39.5599C46.5663 39.6076 46.5114 39.6465 46.4923 39.6465C46.4731 39.6465 46.422 39.6817 46.3787 39.7245C46.3354 39.7674 46.2422 39.8415 46.1716 39.8891C46.101 39.9368 46.0431 39.9875 46.043 40.0018C46.0428 40.0161 46.0264 40.0278 46.0063 40.0278C45.9863 40.0278 45.9334 40.0629 45.8888 40.1057C45.8442 40.1486 45.7641 40.2149 45.7109 40.253C45.6576 40.2912 45.5678 40.3652 45.5113 40.4177C45.4547 40.4701 45.3968 40.513 45.3825 40.513C45.3682 40.513 45.3111 40.5561 45.2556 40.6087C45.2001 40.6614 45.092 40.7509 45.0154 40.8076C44.9388 40.8643 44.8526 40.9347 44.8238 40.9639C44.7951 40.9931 44.6547 41.1181 44.5117 41.2415C44.1175 41.5821 43.5734 42.0821 43.0984 42.5404C42.9601 42.6738 42.8177 42.8085 42.7819 42.8398C42.7462 42.871 42.5445 43.08 42.3338 43.3042C42.1232 43.5283 41.8724 43.794 41.7766 43.8944C41.6809 43.9949 41.5242 44.1675 41.4284 44.2779C41.1696 44.5762 40.9823 44.7865 40.923 44.845C40.8941 44.8736 40.8238 44.9594 40.7668 45.0356C40.7098 45.1119 40.6199 45.2194 40.567 45.2747C40.514 45.3299 40.4707 45.3868 40.4707 45.401C40.4707 45.4152 40.4276 45.4729 40.3749 45.5291C40.3222 45.5853 40.2478 45.6747 40.2095 45.7277C40.1712 45.7807 40.1046 45.8604 40.0615 45.9048C40.0184 45.9492 39.9832 46.0018 39.9832 46.0218C39.9832 46.0417 39.9714 46.0581 39.957 46.0582C39.9427 46.0584 39.8939 46.1125 39.8487 46.1786C39.8035 46.2447 39.7291 46.342 39.6833 46.395C39.6376 46.4479 39.6001 46.5022 39.6001 46.5156C39.6001 46.529 39.5609 46.579 39.513 46.6267C39.4651 46.6743 39.4259 46.7296 39.4259 46.7496C39.4259 46.7695 39.4103 46.7858 39.3911 46.7858C39.372 46.7858 39.3563 46.8092 39.3563 46.8378C39.3563 46.8664 39.3431 46.8897 39.3269 46.8897C39.3108 46.8897 39.2681 46.9443 39.232 47.011C39.1959 47.0778 39.1542 47.1323 39.1394 47.1323C39.1246 47.1323 39.1125 47.1635 39.1125 47.2017C39.1125 47.2398 39.1003 47.271 39.0854 47.271C39.0375 47.271 38.9284 47.6965 38.9115 47.9493C38.8945 48.2049 38.9563 48.6774 39.0112 48.7111C39.0286 48.7219 39.0429 48.7687 39.0429 48.8152C39.0429 48.8618 39.0585 48.8998 39.0777 48.8998C39.0969 48.8998 39.1125 48.9312 39.1125 48.9696C39.1125 49.0394 39.1222 49.0642 39.2294 49.2691C39.2609 49.3292 39.2866 49.4033 39.2866 49.4337C39.2866 49.4641 39.3023 49.489 39.3215 49.489C39.3406 49.489 39.3563 49.5267 39.3563 49.5727C39.3563 49.6188 39.3682 49.6617 39.3828 49.6681C39.3974 49.6744 39.4711 49.8044 39.5468 49.9568C39.6225 50.1093 39.6968 50.2393 39.7119 50.2456C39.727 50.252 39.7394 50.2793 39.7394 50.3063C39.7394 50.3333 39.755 50.3554 39.7742 50.3554C39.7934 50.3554 39.809 50.3733 39.809 50.3951C39.809 50.4309 40.0369 50.7981 40.0854 50.8406C40.0963 50.8501 40.1643 50.9478 40.2365 51.0578C40.3087 51.1677 40.4027 51.2986 40.4453 51.3486C40.7874 51.7492 41.1746 52.1427 41.5142 52.4348C41.6362 52.5396 41.7557 52.6449 41.7799 52.6687C41.8041 52.6926 41.8327 52.712 41.8435 52.712C41.8608 52.712 42.1224 52.8968 42.2366 52.9897C42.2597 53.0086 42.295 53.0239 42.315 53.0239C42.3349 53.0239 42.3513 53.0378 42.3513 53.0546C42.3513 53.0715 42.4076 53.1144 42.4765 53.15C42.5454 53.1855 42.6316 53.2299 42.6681 53.2488C42.7045 53.2676 42.7343 53.2949 42.7343 53.3094C42.7343 53.324 42.7657 53.3358 42.804 53.3358C42.8423 53.3358 42.8736 53.3514 42.8736 53.3705C42.8736 53.3896 42.8971 53.4052 42.9259 53.4052C42.9546 53.4052 42.9781 53.4208 42.9781 53.4398C42.9781 53.4589 43.0029 53.4745 43.0332 53.4745C43.0635 53.4745 43.1819 53.5291 43.2962 53.5958C43.4106 53.6625 43.5269 53.7171 43.5546 53.7171C43.5823 53.7171 43.605 53.7327 43.605 53.7517C43.605 53.7708 43.63 53.7864 43.6606 53.7864C43.7126 53.7864 43.8921 53.855 44.0311 53.9279C44.0643 53.9454 44.1231 53.9597 44.1617 53.9597C44.2003 53.9597 44.2318 53.9716 44.2318 53.9861C44.2318 54.0503 44.7111 54.1496 45.0173 54.1488C45.2988 54.1481 45.7384 54.0621 45.7989 53.9959C45.8085 53.9855 45.8634 53.9535 45.9208 53.9249C45.9783 53.8964 46.0444 53.8574 46.0676 53.8384C46.0909 53.8193 46.1333 53.7842 46.1619 53.7604C46.1905 53.7366 46.2303 53.7171 46.2502 53.7171C46.2702 53.7171 46.2868 53.7054 46.2873 53.6911C46.2877 53.6768 46.3582 53.6183 46.4439 53.5611C46.5296 53.5039 46.5998 53.4454 46.5999 53.4312C46.5999 53.4169 46.6234 53.4052 46.6522 53.4052C46.6809 53.4052 46.7044 53.3896 46.7044 53.3705C46.7044 53.3514 46.7279 53.3358 46.7566 53.3358C46.7854 53.3358 46.809 53.3241 46.8091 53.3099C46.8093 53.2956 46.8638 53.247 46.9303 53.2019C46.9968 53.1568 47.0811 53.0945 47.1176 53.0633C47.1542 53.0321 47.2435 52.9598 47.3161 52.9026C47.3886 52.8455 47.4677 52.7792 47.4916 52.7554C47.5156 52.7315 47.5449 52.712 47.5567 52.712C47.5685 52.712 47.6159 52.6769 47.662 52.6341C47.7867 52.518 47.8483 52.4694 47.8709 52.4694C47.882 52.4694 47.9596 52.3993 48.0434 52.3135C48.1271 52.2277 48.206 52.1575 48.2187 52.1575C48.2313 52.1575 48.2624 52.1381 48.2878 52.1142C48.3131 52.0904 48.4231 51.9929 48.5321 51.8976C48.6411 51.8023 48.7836 51.6758 48.8489 51.6164C48.9142 51.5571 49.0561 51.4323 49.1641 51.3392C49.4193 51.1192 51.1285 49.4182 51.3496 49.1643C51.4432 49.0567 51.5686 48.9156 51.6282 48.8506C51.6878 48.7856 51.815 48.6437 51.9108 48.5353C52.0065 48.4268 52.1045 48.3174 52.1284 48.2922C52.1524 48.267 52.1719 48.236 52.1719 48.2234C52.1719 48.2108 52.2425 48.1323 52.3287 48.0489C52.4148 47.9656 52.4854 47.8891 52.4854 47.879C52.4854 47.8613 52.5963 47.7249 52.6856 47.6327C52.7096 47.608 52.7291 47.5778 52.7291 47.5655C52.7291 47.5533 52.7488 47.5238 52.7727 47.4999C52.7966 47.476 52.8632 47.3974 52.9207 47.3252C52.9781 47.2529 53.0526 47.162 53.0861 47.1231C53.1196 47.0842 53.1471 47.0431 53.1472 47.0317C53.1473 47.0204 53.1943 46.9612 53.2517 46.9003C53.3091 46.8394 53.356 46.7731 53.356 46.753C53.356 46.7329 53.3717 46.7165 53.3908 46.7165C53.41 46.7165 53.4256 46.7002 53.4256 46.6803C53.4256 46.6604 53.4648 46.6021 53.5127 46.5507C53.5606 46.4993 53.5998 46.441 53.5998 46.4212C53.5998 46.4014 53.6311 46.3627 53.6694 46.3352C53.7077 46.3078 53.7391 46.272 53.7391 46.2558C53.7391 46.2396 53.7587 46.2046 53.7826 46.178C53.886 46.0633 53.9132 46.0241 53.9132 45.9901C53.9132 45.9703 53.9289 45.954 53.948 45.954C53.9672 45.954 53.9828 45.9228 53.9828 45.8847C53.9828 45.8466 53.9985 45.8154 54.0177 45.8154C54.0368 45.8154 54.0525 45.7873 54.0525 45.753C54.0525 45.7187 54.0683 45.6749 54.0877 45.6556C54.107 45.6364 54.1414 45.4941 54.164 45.3395C54.2076 45.0416 54.1623 44.4899 54.0881 44.416C54.0685 44.3965 54.0525 44.3447 54.0525 44.3009C54.0525 44.2571 54.0368 44.2212 54.0177 44.2212C53.9985 44.2212 53.9828 44.1898 53.9828 44.1514C53.9828 44.0817 53.9732 44.0569 53.8659 43.852C53.8345 43.7918 53.8087 43.7177 53.8087 43.6873C53.8087 43.6569 53.7931 43.632 53.7739 43.632C53.7547 43.632 53.7391 43.5943 53.7391 43.5483C53.7391 43.5022 53.7272 43.4593 53.7126 43.453C53.698 43.4466 53.6242 43.3167 53.5485 43.1642C53.4729 43.0117 53.3986 42.8817 53.3835 42.8754C53.3684 42.869 53.356 42.843 53.356 42.8176C53.356 42.7922 53.3442 42.7662 53.3299 42.7598C53.3155 42.7535 53.2743 42.6905 53.2382 42.6199C53.2021 42.5493 53.1434 42.4603 53.1076 42.4221C53.0718 42.3839 53.0426 42.3422 53.0426 42.3293C53.0426 42.3165 52.9877 42.2301 52.9207 42.1372C52.8536 42.0444 52.7988 41.9585 52.7988 41.9465C52.7988 41.9345 52.7706 41.8995 52.7361 41.8686C52.7016 41.8378 52.6271 41.7503 52.5707 41.6743C52.4544 41.5176 51.5212 40.5823 51.4812 40.5823C51.4668 40.5823 51.397 40.5277 51.3259 40.461C51.2548 40.3943 51.1889 40.3397 51.1794 40.3397C51.1622 40.3397 50.8117 40.098 50.7789 40.0634C50.7473 40.0301 50.5542 39.9196 50.4568 39.8791C50.4041 39.8572 50.361 39.8271 50.361 39.8122C50.361 39.7973 50.3375 39.7852 50.3088 39.7852C50.2801 39.7852 50.2566 39.7735 50.2565 39.7592C50.2565 39.7449 50.1549 39.6864 50.0306 39.6292C49.9064 39.572 49.8045 39.5135 49.8043 39.4993C49.804 39.485 49.7725 39.4733 49.7342 39.4733C49.6959 39.4733 49.6645 39.4577 49.6645 39.4386C49.6645 39.4195 49.6408 39.4039 49.6118 39.4039C49.5828 39.4039 49.5319 39.3891 49.4986 39.371C49.4443 39.3413 49.3329 39.2936 49.0725 39.1884C49.0246 39.1691 48.9582 39.1395 48.925 39.1226C48.8917 39.1058 48.8343 39.092 48.7973 39.092C48.7603 39.092 48.7248 39.0774 48.7184 39.0595C48.7121 39.0416 48.5501 39.006 48.3586 38.9804C48.0563 38.94 47.9736 38.9409 47.7317 38.987ZM48.3568 40.9315C48.3751 40.9491 48.4181 40.9635 48.4526 40.9635C48.4871 40.9635 48.5153 40.9791 48.5153 40.9981C48.5153 41.0172 48.5364 41.0328 48.5622 41.0328C48.588 41.0328 48.6546 41.0543 48.7102 41.0805C48.7658 41.1067 48.8623 41.1495 48.9245 41.1756C48.9867 41.2016 49.0377 41.2348 49.0377 41.2492C49.0377 41.2636 49.069 41.2754 49.1073 41.2754C49.1456 41.2754 49.177 41.291 49.177 41.3101C49.177 41.3291 49.1938 41.3447 49.2144 41.3447C49.235 41.3447 49.3609 41.4149 49.4941 41.5007C49.6273 41.5864 49.7515 41.6566 49.7701 41.6566C49.7887 41.6566 49.8038 41.6689 49.8038 41.6838C49.8038 41.6988 49.8548 41.7405 49.917 41.7766C49.9792 41.8127 50.0537 41.867 50.0824 41.8971C50.1112 41.9273 50.1974 41.9983 50.274 42.055C50.4199 42.163 51.0226 42.7596 51.0229 42.7964C51.023 42.808 51.0661 42.8644 51.1187 42.9216C51.2406 43.0542 51.3762 43.2415 51.4385 43.3635C51.4653 43.4159 51.5002 43.4588 51.5162 43.4588C51.5321 43.4588 51.5451 43.4822 51.5451 43.5107C51.5451 43.5393 51.5572 43.5627 51.5721 43.5627C51.587 43.5627 51.6301 43.6328 51.6679 43.7184C51.7057 43.8039 51.7484 43.8741 51.7627 43.8743C51.7771 43.8745 51.7889 43.9058 51.7889 43.9439C51.7889 43.9821 51.8016 44.0133 51.8172 44.0133C51.8328 44.0133 51.8671 44.0678 51.8933 44.1346C51.9196 44.2013 51.9522 44.2559 51.9656 44.2559C51.979 44.2559 52.0004 44.3104 52.0129 44.3772C52.0255 44.4439 52.0508 44.4985 52.069 44.4985C52.0873 44.4985 52.1023 44.5374 52.1023 44.5851C52.1023 44.6327 52.1141 44.6717 52.1287 44.6717C52.1621 44.6717 52.2416 44.9222 52.2416 45.0274C52.2416 45.0712 52.2103 45.1294 52.1719 45.1569C52.1336 45.1844 52.1023 45.2213 52.1023 45.239C52.1023 45.2566 52.0474 45.3377 51.9804 45.4191C51.9134 45.5005 51.8585 45.576 51.8585 45.5869C51.8585 45.6071 51.8091 45.6711 51.6409 45.8682C51.5882 45.93 51.5451 45.9922 51.5451 46.0065C51.5451 46.0208 51.5168 46.0578 51.4824 46.0886C51.4479 46.1194 51.3734 46.207 51.317 46.2832C51.2605 46.3595 51.1852 46.453 51.1498 46.4912C51.1143 46.5293 51.0441 46.6151 50.9937 46.6818C50.9433 46.7485 50.8509 46.8527 50.7883 46.9134C50.7257 46.9741 50.6745 47.0333 50.6745 47.0449C50.6745 47.0566 50.6392 47.1027 50.5961 47.1474C50.4421 47.3071 50.2914 47.4816 50.2914 47.5002C50.2914 47.5106 50.2013 47.6107 50.0911 47.7226C49.981 47.8345 49.8282 47.9987 49.7516 48.0875C49.5637 48.3053 48.4864 49.3801 48.1646 49.6707C47.9201 49.8916 47.6608 50.1252 47.4126 50.348C47.352 50.4024 47.2439 50.4926 47.1722 50.5484C47.1006 50.6043 47.0054 50.6856 46.9607 50.7291C46.916 50.7726 46.7813 50.8889 46.6613 50.9876C46.5414 51.0863 46.438 51.1793 46.4316 51.1944C46.4252 51.2095 46.4057 51.2218 46.3883 51.2218C46.3609 51.2218 46.2786 51.2834 46.1339 51.4124C46.1125 51.4315 46.0323 51.4933 45.9557 51.5498C45.879 51.6063 45.7985 51.6687 45.7767 51.6884C45.6744 51.7811 45.5869 51.8456 45.5635 51.8457C45.5413 51.8457 45.4681 51.9005 45.2867 52.0529C45.2636 52.0723 45.2341 52.0882 45.2212 52.0882C45.2082 52.0882 45.1723 52.1172 45.1413 52.1526C45.054 52.2524 44.9414 52.2731 44.8182 52.2119C44.758 52.182 44.6797 52.1575 44.6444 52.1575C44.609 52.1575 44.5801 52.1419 44.5801 52.1229C44.5801 52.1038 44.5595 52.0882 44.5343 52.0882C44.5092 52.0882 44.4074 52.0492 44.3082 52.0016C44.2089 51.9539 44.1119 51.9149 44.0927 51.9149C44.0734 51.9149 44.0577 51.8993 44.0577 51.8803C44.0577 51.8612 44.0263 51.8456 43.988 51.8456C43.9497 51.8456 43.9184 51.8318 43.9184 51.8149C43.9184 51.798 43.8632 51.7581 43.7958 51.7263C43.7283 51.6945 43.5457 51.5835 43.39 51.4798C43.2342 51.376 43.1014 51.2911 43.0947 51.2911C43.0881 51.2911 43.0162 51.2287 42.9348 51.1525C42.8535 51.0762 42.7765 51.0139 42.7638 51.0139C42.735 51.0139 42.0727 50.3536 42.0725 50.3246C42.0724 50.3129 42.0265 50.2548 41.9705 50.1953C41.9144 50.1358 41.81 49.9955 41.7384 49.8834C41.6669 49.7713 41.5952 49.6744 41.5793 49.6681C41.5633 49.6617 41.5503 49.6344 41.5503 49.6074C41.5503 49.5804 41.5381 49.5583 41.5233 49.5583C41.5084 49.5583 41.4653 49.4883 41.4275 49.4027C41.3897 49.3171 41.347 49.2469 41.3326 49.2467C41.3183 49.2465 41.3065 49.2152 41.3065 49.1771C41.3065 49.139 41.2938 49.1078 41.2782 49.1078C41.2626 49.1078 41.2283 49.0532 41.202 48.9865C41.1757 48.9198 41.1432 48.8652 41.1298 48.8652C41.1163 48.8652 41.095 48.8106 41.0824 48.7439C41.0699 48.6772 41.0446 48.6226 41.0263 48.6226C41.0081 48.6226 40.9931 48.5914 40.9931 48.5533C40.9931 48.5151 40.9774 48.4839 40.9583 48.4839C40.9391 48.4839 40.9234 48.4481 40.9234 48.4042C40.9234 48.3604 40.909 48.3097 40.8913 48.2916C40.8737 48.2735 40.8488 48.2023 40.8361 48.1333C40.8165 48.0274 40.827 47.9939 40.903 47.9182C40.9525 47.869 40.9931 47.819 40.9931 47.8072C40.9931 47.7955 41.0127 47.7653 41.0366 47.7402C41.0606 47.7151 41.1115 47.6512 41.1498 47.5983C41.1881 47.5454 41.2351 47.4852 41.2543 47.4645C41.2734 47.4438 41.3343 47.3607 41.3896 47.2796C41.4449 47.1986 41.5037 47.1323 41.5202 47.1323C41.5367 47.1323 41.5503 47.1169 41.5503 47.098C41.5503 47.0629 41.6444 46.9434 41.7854 46.7996C41.8284 46.7556 41.8637 46.7112 41.8637 46.701C41.8637 46.6798 41.9822 46.5373 42.0988 46.4183C42.1419 46.3744 42.1771 46.33 42.1771 46.3198C42.1771 46.3018 42.2337 46.2323 42.4209 46.0201C42.4688 45.9659 42.5785 45.8412 42.6647 45.7431C42.7509 45.645 42.8723 45.5125 42.9346 45.4486C42.9968 45.3848 43.0478 45.3232 43.0478 45.3117C43.0478 45.2817 45.0136 43.3369 45.2605 43.1227C45.3747 43.0236 45.5288 42.891 45.603 42.8281C45.6772 42.7651 45.7953 42.6585 45.8655 42.5911C45.9356 42.5237 46.055 42.4224 46.1308 42.3658C46.2066 42.3093 46.302 42.2319 46.3428 42.1938C46.3836 42.1557 46.4606 42.0933 46.5139 42.0552C46.5672 42.017 46.657 41.943 46.7135 41.8906C46.77 41.8381 46.8279 41.7952 46.8422 41.7952C46.8565 41.7952 46.9174 41.7485 46.9775 41.6913C47.0376 41.6341 47.0955 41.5873 47.1061 41.5873C47.1168 41.5873 47.1632 41.5522 47.2093 41.5093C47.3381 41.3895 47.3958 41.3447 47.4214 41.3447C47.4344 41.3447 47.4703 41.3163 47.5013 41.2816C47.5323 41.2469 47.6086 41.1889 47.6708 41.1528C47.733 41.1167 47.784 41.0749 47.784 41.06C47.784 41.045 47.8075 41.0328 47.8362 41.0328C47.8649 41.0328 47.8885 41.0172 47.8885 40.9981C47.8885 40.9791 47.9052 40.9635 47.9258 40.9635C47.9463 40.9635 47.9879 40.9388 48.0182 40.9087C48.0759 40.8512 48.2886 40.8656 48.3568 40.9315Z" fill="#FF537B"/>
</svg>
