<svg width="81" height="61" viewBox="0 0 81 61" fill="none" xmlns="http://www.w3.org/2000/svg">
<path d="M66 28.4488C66 24.7218 63.2225 21.6408 59.6521 21.208V2.50221C59.6521 1.35691 58.9178 0.387065 57.8248 0.0890419C56.732 -0.208692 55.6155 0.256092 55.0467 1.24607C51.1412 8.04425 44.9899 12.6909 36.7637 15.0573C30.5433 16.8466 25.4102 16.5873 25.3606 16.5842C25.2853 16.5799 25.2104 16.5835 25.1362 16.591H11.9832C5.3757 16.591 0 22.0299 0 28.7151C0 35.0118 4.76954 40.2009 10.8451 40.7829L14.8123 57.2882C15.3375 59.4737 17.257 61 19.48 61H22.2334C23.7168 61 25.0934 60.3232 26.0102 59.1432C26.9269 57.9631 27.2516 56.4498 26.9011 54.9914L23.4994 40.839H25.1338C25.2082 40.8467 25.2834 40.8503 25.3593 40.846C25.4103 40.8431 30.5433 40.5834 36.7637 42.3729C44.9898 44.7392 51.1411 49.3859 55.0467 56.184C55.5008 56.9746 56.304 57.4302 57.1655 57.4302C57.3831 57.4302 57.6044 57.4011 57.8248 57.3411C58.9178 57.0431 59.6521 56.0734 59.6521 54.9281V36.222C63.2225 35.7894 66 32.7083 66 28.9814V28.4488ZM23.6657 53.7938L24.1181 55.6761C24.2597 56.2651 24.1287 56.8762 23.7583 57.3527C23.3883 57.8292 22.8324 58.1025 22.2334 58.1025H19.48C18.5823 58.1025 17.8073 57.4862 17.5952 56.6037L13.806 40.8392H20.552L21.5634 45.0473H20.8789C20.088 45.0473 19.4469 45.6959 19.4469 46.4961C19.4469 47.2963 20.088 47.9449 20.8789 47.9449H22.2598L22.9692 50.8962H22.5204C21.7295 50.8962 21.0884 51.5448 21.0884 52.345C21.0884 53.1452 21.7295 53.7938 22.5204 53.7938H23.6657ZM23.8474 31.7933H14.9481C14.1573 31.7933 13.5162 32.4419 13.5162 33.2421C13.5162 34.0423 14.1573 34.6909 14.9481 34.6909H23.8474V37.9415H21.7554C21.7292 37.9401 21.7031 37.9382 21.6765 37.9382H11.9832C11.9696 37.9382 11.9561 37.9402 11.9425 37.9405C6.933 37.918 2.86399 33.7887 2.86399 28.7151C2.86399 23.6277 6.95491 19.4887 11.9832 19.4887H23.8474V31.7933ZM56.7878 22.6029V34.8272V53.5126C52.4964 46.7602 45.8398 41.9491 37.4502 39.5581C32.805 38.2342 28.7927 37.9698 26.7114 37.9354V33.2421V19.4948C28.7929 19.4604 32.8054 19.1959 37.4502 17.8721C45.8397 15.4809 52.4964 10.67 56.7878 3.91756V22.6029ZM63.1357 28.9814C63.1357 31.1074 61.6369 32.8858 59.6518 33.2915V24.1387C61.6367 24.5444 63.1357 26.3228 63.1357 28.4488V28.9814Z" fill="white"/>
<path d="M72.6888 19.8797C73.0945 19.8797 73.5015 19.7331 73.825 19.4359L78.6946 14.9622C79.3839 14.3289 79.4339 13.2518 78.806 12.5563C78.1781 11.8609 77.1104 11.8107 76.4209 12.4439L71.5515 16.9174C70.8622 17.5508 70.8122 18.6278 71.4401 19.3233C71.7734 19.6924 72.2302 19.8797 72.6888 19.8797Z" fill="white"/>
<path d="M73.8252 40.1958C73.1357 39.5626 72.068 39.6129 71.4401 40.3082C70.8122 41.0036 70.8622 42.0808 71.5515 42.7142L76.4209 47.1877C76.7447 47.485 77.1516 47.6317 77.5573 47.6317C78.0159 47.6317 78.4729 47.4443 78.806 47.0753C79.4339 46.3799 79.3839 45.3027 78.6946 44.6693L73.8252 40.1958Z" fill="white"/>
<path d="M79.1228 28.1128H75.3837C74.4512 28.1128 73.6953 28.8753 73.6953 29.8159C73.6953 30.7565 74.4512 31.519 75.3837 31.519H79.1228C80.0553 31.519 80.8112 30.7565 80.8112 29.8159C80.8112 28.8753 80.0553 28.1128 79.1228 28.1128Z" fill="white"/>
<path d="M10.886 27.9265C10.8485 27.835 10.802 27.7479 10.748 27.6669C10.6925 27.5844 10.631 27.5079 10.562 27.4389C10.4915 27.3698 10.415 27.3068 10.3325 27.2528C10.2515 27.1988 10.1645 27.1523 10.0745 27.1148C9.983 27.0773 9.8885 27.0488 9.794 27.0293C9.6005 26.9902 9.401 26.9902 9.2075 27.0293C9.1115 27.0488 9.017 27.0773 8.927 27.1148C8.837 27.1523 8.7485 27.1988 8.6675 27.2528C8.585 27.3068 8.5085 27.3698 8.4395 27.4389C8.3705 27.5079 8.3075 27.5844 8.2535 27.6669C8.1995 27.7479 8.153 27.835 8.1155 27.9265C8.078 28.0165 8.0495 28.111 8.03 28.2071C8.0105 28.3031 8 28.4021 8 28.4996C8 28.5972 8.0105 28.6962 8.03 28.7937C8.0495 28.8882 8.078 28.9827 8.1155 29.0743C8.153 29.1643 8.1995 29.2513 8.2535 29.3323C8.3075 29.4149 8.3705 29.4914 8.4395 29.5604C8.5085 29.6294 8.585 29.6924 8.6675 29.7479C8.7485 29.8019 8.837 29.8485 8.927 29.886C9.017 29.9235 9.1115 29.952 9.2075 29.9715C9.305 29.991 9.4025 30 9.5 30C9.599 30 9.6965 29.991 9.794 29.9715C9.89 29.952 9.983 29.9235 10.0745 29.886C10.1645 29.8485 10.2515 29.8019 10.3325 29.7479C10.415 29.6924 10.4915 29.6294 10.562 29.5604C10.631 29.4914 10.6925 29.4149 10.748 29.3323C10.802 29.2513 10.8485 29.1643 10.886 29.0743C10.9235 28.9827 10.952 28.8882 10.9715 28.7937C10.991 28.6962 11 28.5972 11 28.4996C11 28.4021 10.991 28.3031 10.9715 28.2071C10.952 28.111 10.9235 28.0165 10.886 27.9265Z" fill="white"/>
</svg>
