<svg width="54" height="56" viewBox="0 0 54 56" fill="none" xmlns="http://www.w3.org/2000/svg">
<path d="M32.97 11.9388C35.3081 12.4123 37.4568 13.5992 39.1412 15.3476C40.8256 17.096 41.969 19.3264 42.4252 21.7533M32.97 2C37.8275 2.56014 42.3572 4.81808 45.8152 8.40308C49.2733 11.9881 51.4543 16.6871 52 21.7285M49.6063 41.5564V49.0104C49.609 49.7024 49.4724 50.3874 49.2054 51.0214C48.9383 51.6555 48.5466 52.2246 48.0554 52.6924C47.5641 53.1602 46.9842 53.5164 46.3526 53.7381C45.7211 53.9598 45.052 54.0421 44.388 53.9798C37.0222 53.149 29.9468 50.5364 23.7303 46.3518C17.9467 42.537 13.0432 37.4471 9.3681 31.4436C5.32269 24.9616 2.80515 17.5815 2.01943 9.90133C1.95961 9.21423 2.03828 8.52173 2.25042 7.86792C2.46257 7.21411 2.80354 6.61331 3.25163 6.10378C3.69972 5.59424 4.24511 5.18714 4.85308 4.90839C5.46104 4.62964 6.11827 4.48535 6.7829 4.4847H13.964C15.1257 4.47283 16.2519 4.89983 17.1327 5.68613C18.0135 6.47242 18.5888 7.56434 18.7514 8.75837C19.0545 11.1438 19.6166 13.4861 20.427 15.7404C20.7491 16.6297 20.8188 17.5962 20.6279 18.5254C20.437 19.4546 19.9934 20.3075 19.3499 20.9831L16.3099 24.1386C19.7174 30.3592 24.6793 35.5097 30.6721 39.0468L33.7121 35.8912C34.3629 35.2232 35.1846 34.7628 36.0797 34.5647C36.9749 34.3665 37.906 34.4388 38.7628 34.7731C40.9346 35.6143 43.191 36.1978 45.4891 36.5124C46.6519 36.6827 47.7138 37.2906 48.473 38.2206C49.2321 39.1506 49.6354 40.3378 49.6063 41.5564Z" stroke="#FF537B" stroke-width="4" stroke-linecap="round" stroke-linejoin="round"/>
</svg>
