<svg width="119" height="73" viewBox="0 0 119 73" fill="none" xmlns="http://www.w3.org/2000/svg">
<path d="M77.8831 35.9442L59.5 17.4162L41.1169 35.9442L22.7338 17.4162L8.70134 31.621L0 22.8511L22.7338 0L41.1169 18.5279L59.5 0L77.8831 18.5279L96.2662 0L119 22.8511L110.299 31.621L96.2662 17.4162L77.8831 35.9442ZM96.2662 54.4721L110.299 68.6768L119 59.9069L96.2662 37.0558L77.8831 55.5838L59.5 37.0558L41.1169 55.5838L22.7338 37.0558L0 59.9069L8.70134 68.6768L22.7338 54.4721L41.1169 73L59.5 54.4721L77.8831 73L96.2662 54.4721Z" fill="#3F3F3F"/>
</svg>
