<svg width="61" height="61" viewBox="0 0 61 61" fill="none" xmlns="http://www.w3.org/2000/svg">
<path fill-rule="evenodd" clip-rule="evenodd" d="M28.0566 0.0421271C28.0566 0.0676561 27.8741 0.0842541 27.5932 0.0842541C27.3124 0.0842541 27.1298 0.100852 27.1298 0.126381C27.1298 0.150436 27.0035 0.168508 26.8349 0.168508C26.6664 0.168508 26.5401 0.186581 26.5401 0.210635C26.5401 0.235195 26.3996 0.252762 26.203 0.252762C26.0064 0.252762 25.866 0.270329 25.866 0.29489C25.866 0.318312 25.7537 0.337017 25.6133 0.337017C25.4729 0.337017 25.3605 0.355721 25.3605 0.379144C25.3605 0.402314 25.2657 0.421271 25.1499 0.421271C25.034 0.421271 24.9392 0.440228 24.9392 0.463398C24.9392 0.48682 24.8269 0.505525 24.6865 0.505525C24.5461 0.505525 24.4337 0.524229 24.4337 0.547652C24.4337 0.570822 24.3389 0.589779 24.2231 0.589779C24.1072 0.589779 24.0124 0.608736 24.0124 0.631906C24.0124 0.655076 23.9556 0.674033 23.8861 0.674033C23.8165 0.674033 23.7597 0.69299 23.7597 0.71616C23.7597 0.73933 23.6649 0.758287 23.549 0.758287C23.4332 0.758287 23.3384 0.777245 23.3384 0.800414C23.3384 0.823584 23.2436 0.842541 23.1278 0.842541C23.0119 0.842541 22.9171 0.861499 22.9171 0.884669C22.9171 0.907838 22.8603 0.926796 22.7907 0.926796C22.7212 0.926796 22.6644 0.945753 22.6644 0.968923C22.6644 0.992093 22.5885 1.01105 22.4959 1.01105C22.4032 1.01105 22.3273 1.03001 22.3273 1.05318C22.3273 1.07635 22.2515 1.0953 22.1588 1.0953C22.0662 1.0953 21.9903 1.11426 21.9903 1.13743C21.9903 1.1606 21.9524 1.17956 21.9061 1.17956C21.8597 1.17956 21.8218 1.19852 21.8218 1.22169C21.8218 1.24486 21.746 1.26381 21.6533 1.26381C21.5606 1.26381 21.4848 1.28277 21.4848 1.30594C21.4848 1.32911 21.409 1.34807 21.3163 1.34807C21.2236 1.34807 21.1478 1.36702 21.1478 1.39019C21.1478 1.41336 21.1099 1.43232 21.0635 1.43232C21.0172 1.43232 20.9793 1.45128 20.9793 1.47445C20.9793 1.49762 20.9224 1.51657 20.8529 1.51657C20.7834 1.51657 20.7265 1.53553 20.7265 1.5587C20.7265 1.58187 20.6696 1.60083 20.6001 1.60083C20.5306 1.60083 20.4738 1.61979 20.4738 1.64296C20.4738 1.66613 20.4169 1.68508 20.3474 1.68508C20.2779 1.68508 20.221 1.70404 20.221 1.72721C20.221 1.75038 20.1831 1.76934 20.1367 1.76934C20.0904 1.76934 20.0525 1.78829 20.0525 1.81146C20.0525 1.83463 19.9767 1.85359 19.884 1.85359C19.7913 1.85359 19.7155 1.87255 19.7155 1.89572C19.7155 1.91889 19.6628 1.93785 19.5984 1.93785C19.5296 1.93785 19.4563 1.97264 19.4206 2.0221C19.3849 2.07156 19.3115 2.10635 19.2428 2.10635C19.1784 2.10635 19.1257 2.12531 19.1257 2.14848C19.1257 2.17165 19.0688 2.19061 18.9993 2.19061C18.9298 2.19061 18.8729 2.20956 18.8729 2.23273C18.8729 2.2559 18.835 2.27486 18.7887 2.27486C18.7423 2.27486 18.7044 2.29382 18.7044 2.31699C18.7044 2.34016 18.6665 2.35912 18.6202 2.35912C18.5738 2.35912 18.5359 2.37807 18.5359 2.40124C18.5359 2.42441 18.479 2.44337 18.4095 2.44337C18.34 2.44337 18.2831 2.46233 18.2831 2.4855C18.2831 2.50867 18.2452 2.52762 18.1989 2.52762C18.1526 2.52762 18.1146 2.54658 18.1146 2.56975C18.1146 2.59292 18.0767 2.61188 18.0304 2.61188C17.984 2.61188 17.9461 2.63084 17.9461 2.65401C17.9461 2.67718 17.8934 2.69613 17.8291 2.69613C17.7603 2.69613 17.6869 2.73093 17.6512 2.78039C17.6156 2.82984 17.5422 2.86464 17.4734 2.86464C17.4091 2.86464 17.3564 2.8836 17.3564 2.90677C17.3564 2.92994 17.3184 2.94889 17.2721 2.94889C17.2258 2.94889 17.1878 2.96785 17.1878 2.99102C17.1878 3.01419 17.1499 3.03315 17.1036 3.03315C17.0573 3.03315 17.0193 3.05211 17.0193 3.07528C17.0193 3.09845 16.9814 3.1174 16.9351 3.1174C16.8887 3.1174 16.8508 3.13636 16.8508 3.15953C16.8508 3.1827 16.8129 3.20166 16.7666 3.20166C16.7202 3.20166 16.6823 3.22061 16.6823 3.24378C16.6823 3.26695 16.6486 3.28591 16.6074 3.28591C16.5661 3.28591 16.5051 3.32383 16.4717 3.37017C16.436 3.41962 16.3626 3.45442 16.2939 3.45442C16.2295 3.45442 16.1768 3.47338 16.1768 3.49655C16.1768 3.51972 16.1431 3.53867 16.1019 3.53867C16.0606 3.53867 15.9996 3.57659 15.9662 3.62293C15.9328 3.66927 15.8717 3.70718 15.8305 3.70718C15.7893 3.70718 15.7555 3.72614 15.7555 3.74931C15.7555 3.77248 15.7218 3.79144 15.6806 3.79144C15.6393 3.79144 15.5783 3.82935 15.5449 3.87569C15.5115 3.92203 15.4504 3.95994 15.4092 3.95994C15.368 3.95994 15.3343 3.9789 15.3343 4.00207C15.3343 4.02524 15.2963 4.0442 15.25 4.0442C15.2037 4.0442 15.1657 4.06316 15.1657 4.08633C15.1657 4.1095 15.132 4.12845 15.0908 4.12845C15.0496 4.12845 14.9885 4.16637 14.9551 4.21271C14.9217 4.25905 14.8607 4.29696 14.8194 4.29696C14.7782 4.29696 14.7445 4.31592 14.7445 4.33909C14.7445 4.36226 14.7107 4.38122 14.6695 4.38122C14.6283 4.38122 14.5672 4.41913 14.5338 4.46547C14.5004 4.51181 14.4394 4.54972 14.3981 4.54972C14.3569 4.54972 14.3232 4.56868 14.3232 4.59185C14.3232 4.61502 14.2895 4.63398 14.2483 4.63398C14.207 4.63398 14.146 4.67189 14.1126 4.71823C14.0792 4.76457 14.0223 4.80249 13.9862 4.80249C13.9501 4.80249 13.8932 4.8404 13.8598 4.88674C13.8264 4.93308 13.7695 4.97099 13.7334 4.97099C13.6973 4.97099 13.6405 5.00891 13.607 5.05525C13.5736 5.10159 13.5168 5.1395 13.4807 5.1395C13.4446 5.1395 13.3877 5.17742 13.3543 5.22376C13.3209 5.2701 13.2674 5.30801 13.2355 5.30801C13.2036 5.30801 13.1243 5.36488 13.0594 5.43439C12.9945 5.5039 12.9152 5.56077 12.8833 5.56077C12.8514 5.56077 12.7979 5.59869 12.7645 5.64503C12.7311 5.69137 12.6742 5.72928 12.6381 5.72928C12.602 5.72928 12.5451 5.7672 12.5117 5.81354C12.4783 5.85988 12.4249 5.89779 12.3929 5.89779C12.3611 5.89779 12.2818 5.95466 12.2169 6.02417C12.1519 6.09368 12.0765 6.15055 12.0492 6.15055C12.0219 6.15055 11.9268 6.22638 11.8377 6.31906C11.7487 6.41174 11.6535 6.48757 11.6262 6.48757C11.5989 6.48757 11.5235 6.54444 11.4586 6.61395C11.3936 6.68346 11.3187 6.74033 11.2922 6.74033C11.2656 6.74033 11.113 6.87303 10.953 7.03522C10.7931 7.19741 10.6411 7.33011 10.6153 7.33011C10.5895 7.33011 10.4761 7.4249 10.3633 7.54075C10.2504 7.6566 10.1378 7.75138 10.113 7.75138C10.0425 7.75138 8.0884 9.72318 8.0884 9.79433C8.0884 9.82922 8.05861 9.85773 8.02222 9.85773C7.94538 9.85773 7.83564 9.95648 7.83564 10.0256C7.83564 10.0517 7.72189 10.1847 7.58287 10.3211C7.44385 10.4576 7.33011 10.5903 7.33011 10.616C7.33011 10.6418 7.21637 10.7745 7.07735 10.9109C6.93833 11.0474 6.82459 11.1805 6.82459 11.2068C6.82459 11.2331 6.74876 11.3274 6.65608 11.4164C6.5634 11.5055 6.48757 11.6041 6.48757 11.6355C6.48757 11.667 6.44966 11.72 6.40332 11.7535C6.29383 11.8324 6.287 12.0483 6.39401 12.0483C6.43525 12.0483 6.49629 12.0863 6.5297 12.1326C6.5631 12.1789 6.61997 12.2169 6.65608 12.2169C6.69218 12.2169 6.74905 12.2548 6.78246 12.3011C6.81587 12.3474 6.87274 12.3854 6.90884 12.3854C6.94494 12.3854 7.00181 12.4233 7.03522 12.4696C7.06863 12.516 7.12209 12.5539 7.15402 12.5539C7.18591 12.5539 7.26519 12.6107 7.33011 12.6802C7.39503 12.7498 7.47086 12.8066 7.49862 12.8066C7.52638 12.8066 7.60221 12.8635 7.66713 12.933C7.73205 13.0025 7.81133 13.0594 7.84322 13.0594C7.87515 13.0594 7.92861 13.0973 7.96202 13.1436C7.99542 13.19 8.05229 13.2279 8.0884 13.2279C8.1245 13.2279 8.18137 13.2658 8.21478 13.3122C8.24819 13.3585 8.30165 13.3964 8.33358 13.3964C8.36547 13.3964 8.44475 13.4533 8.50967 13.5228C8.57459 13.5923 8.65387 13.6492 8.68576 13.6492C8.71769 13.6492 8.77115 13.6871 8.80456 13.7334C8.83797 13.7798 8.89142 13.8177 8.92336 13.8177C8.95525 13.8177 9.03453 13.8746 9.09945 13.9441C9.16437 14.0136 9.24365 14.0704 9.27554 14.0704C9.30747 14.0704 9.36093 14.1084 9.39434 14.1547C9.42774 14.201 9.48462 14.239 9.52072 14.239C9.55682 14.239 9.61369 14.2769 9.6471 14.3232C9.68051 14.3695 9.73397 14.4075 9.7659 14.4075C9.79779 14.4075 9.87707 14.4643 9.94199 14.5338C10.0069 14.6033 10.0827 14.6602 10.1105 14.6602C10.1383 14.6602 10.2141 14.7171 10.279 14.7866C10.3439 14.8561 10.4232 14.913 10.4551 14.913C10.487 14.913 10.5405 14.9509 10.5739 14.9972C10.6073 15.0436 10.6642 15.0815 10.7003 15.0815C10.7364 15.0815 10.7933 15.1194 10.8267 15.1657C10.8601 15.2121 10.9135 15.25 10.9455 15.25C10.9773 15.25 11.0566 15.3069 11.1215 15.3764C11.1865 15.4459 11.2657 15.5028 11.2976 15.5028C11.3296 15.5028 11.383 15.5407 11.4164 15.587C11.4498 15.6334 11.5033 15.6713 11.5352 15.6713C11.5671 15.6713 11.6464 15.7281 11.7113 15.7977C11.7762 15.8672 11.87 15.924 11.9197 15.924C12.0142 15.924 12.2169 15.7511 12.2169 15.6705C12.2169 15.6447 12.3116 15.5314 12.4275 15.4185C12.5433 15.3056 12.6381 15.1922 12.6381 15.1665C12.6381 15.1406 12.7708 14.9887 12.933 14.8287C13.0952 14.6688 13.2279 14.5086 13.2279 14.4727C13.2279 14.4356 13.2642 14.4075 13.3122 14.4075C13.3592 14.4075 13.3964 14.3794 13.3964 14.3439C13.3964 14.2728 14.5077 13.1436 14.5776 13.1436C14.6021 13.1436 14.753 13.0109 14.913 12.8488C15.0729 12.6866 15.2249 12.5539 15.2507 12.5539C15.2765 12.5539 15.3899 12.4591 15.5028 12.3432C15.6156 12.2274 15.73 12.1326 15.757 12.1326C15.7839 12.1326 15.8591 12.0757 15.924 12.0062C15.989 11.9367 16.0644 11.8798 16.0917 11.8798C16.119 11.8798 16.2141 11.804 16.3032 11.7113C16.3922 11.6186 16.4908 11.5428 16.5223 11.5428C16.5537 11.5428 16.6068 11.5049 16.6402 11.4586C16.6736 11.4122 16.7271 11.3743 16.759 11.3743C16.7909 11.3743 16.8702 11.3174 16.9351 11.2479C17 11.1784 17.0793 11.1215 17.1112 11.1215C17.1431 11.1215 17.1966 11.0836 17.23 11.0373C17.2634 10.991 17.3168 10.953 17.3488 10.953C17.3807 10.953 17.4599 10.8962 17.5249 10.8267C17.5898 10.7571 17.6732 10.7003 17.7103 10.7003C17.7473 10.7003 17.7776 10.6813 17.7776 10.6581C17.7776 10.635 17.8114 10.616 17.8526 10.616C17.8938 10.616 17.9549 10.5781 17.9883 10.5318C18.0217 10.4854 18.0827 10.4475 18.124 10.4475C18.1652 10.4475 18.1989 10.4286 18.1989 10.4054C18.1989 10.3822 18.2326 10.3633 18.2738 10.3633C18.3151 10.3633 18.3761 10.3253 18.4095 10.279C18.4429 10.2327 18.504 10.1948 18.5452 10.1948C18.5864 10.1948 18.6202 10.1758 18.6202 10.1526C18.6202 10.1295 18.6539 10.1105 18.6951 10.1105C18.7364 10.1105 18.7974 10.0726 18.8308 10.0262C18.8642 9.9799 18.9253 9.94199 18.9665 9.94199C19.0077 9.94199 19.0414 9.92303 19.0414 9.89986C19.0414 9.87669 19.0794 9.85773 19.1257 9.85773C19.172 9.85773 19.2099 9.83878 19.2099 9.81561C19.2099 9.79244 19.2479 9.77348 19.2942 9.77348C19.3405 9.77348 19.3785 9.75452 19.3785 9.73135C19.3785 9.70818 19.4164 9.68923 19.4627 9.68923C19.509 9.68923 19.547 9.67027 19.547 9.6471C19.547 9.62393 19.5849 9.60497 19.6312 9.60497C19.6776 9.60497 19.7155 9.58602 19.7155 9.56285C19.7155 9.53968 19.7534 9.52072 19.7997 9.52072C19.8461 9.52072 19.884 9.50176 19.884 9.47859C19.884 9.45542 19.9219 9.43646 19.9682 9.43646C20.0146 9.43646 20.0525 9.41751 20.0525 9.39434C20.0525 9.37117 20.0904 9.35221 20.1367 9.35221C20.1831 9.35221 20.221 9.33325 20.221 9.31008C20.221 9.28691 20.2589 9.26796 20.3052 9.26796C20.3516 9.26796 20.3895 9.249 20.3895 9.22583C20.3895 9.20266 20.4274 9.1837 20.4738 9.1837C20.5201 9.1837 20.558 9.16474 20.558 9.14157C20.558 9.11841 20.5959 9.09945 20.6423 9.09945C20.6886 9.09945 20.7265 9.08049 20.7265 9.05732C20.7265 9.03415 20.7792 9.01519 20.8436 9.01519C20.9123 9.01519 20.9857 8.9804 21.0214 8.93094C21.0571 8.88148 21.1305 8.84669 21.1992 8.84669C21.2636 8.84669 21.3163 8.82773 21.3163 8.80456C21.3163 8.78139 21.369 8.76243 21.4334 8.76243C21.5021 8.76243 21.5755 8.72763 21.6112 8.67818C21.6469 8.62872 21.7203 8.59392 21.789 8.59392C21.8534 8.59392 21.9061 8.57497 21.9061 8.5518C21.9061 8.52863 21.9629 8.50967 22.0325 8.50967C22.102 8.50967 22.1588 8.49071 22.1588 8.46754C22.1588 8.44437 22.1968 8.42542 22.2431 8.42542C22.2894 8.42542 22.3273 8.40646 22.3273 8.38329C22.3273 8.36012 22.3842 8.34116 22.4537 8.34116C22.5232 8.34116 22.5801 8.3222 22.5801 8.29903C22.5801 8.27586 22.637 8.25691 22.7065 8.25691C22.776 8.25691 22.8329 8.23795 22.8329 8.21478C22.8329 8.19161 22.8897 8.17265 22.9593 8.17265C23.0288 8.17265 23.0856 8.1537 23.0856 8.13052C23.0856 8.10736 23.1425 8.0884 23.212 8.0884C23.2815 8.0884 23.3384 8.06944 23.3384 8.04627C23.3384 8.0231 23.4142 8.00414 23.5069 8.00414C23.5996 8.00414 23.6754 7.98519 23.6754 7.96202C23.6754 7.93885 23.7133 7.91989 23.7597 7.91989C23.806 7.91989 23.8439 7.90093 23.8439 7.87776C23.8439 7.85459 23.9198 7.83564 24.0124 7.83564C24.1051 7.83564 24.1809 7.81668 24.1809 7.79351C24.1809 7.77034 24.2568 7.75138 24.3494 7.75138C24.4421 7.75138 24.518 7.73242 24.518 7.70925C24.518 7.68608 24.5938 7.66713 24.6865 7.66713C24.7791 7.66713 24.855 7.64817 24.855 7.625C24.855 7.60183 24.9308 7.58287 25.0235 7.58287C25.1162 7.58287 25.192 7.56392 25.192 7.54075C25.192 7.51758 25.2868 7.49862 25.4026 7.49862C25.5185 7.49862 25.6133 7.47966 25.6133 7.45649C25.6133 7.43332 25.708 7.41436 25.8239 7.41436C25.9397 7.41436 26.0345 7.39541 26.0345 7.37224C26.0345 7.34907 26.1104 7.33011 26.203 7.33011C26.2957 7.33011 26.3715 7.31115 26.3715 7.28798C26.3715 7.26393 26.4979 7.24586 26.6664 7.24586C26.8349 7.24586 26.9613 7.22778 26.9613 7.20373C26.9613 7.17917 27.1017 7.1616 27.2983 7.1616C27.4949 7.1616 27.6354 7.14404 27.6354 7.11948C27.6354 7.09542 27.7617 7.07735 27.9303 7.07735C28.0988 7.07735 28.2251 7.05928 28.2251 7.03522C28.2251 7.00969 28.4077 6.99309 28.6885 6.99309H29.1519V3.49655V0H28.6043C28.2673 0 28.0566 0.0162189 28.0566 0.0421271ZM31.8481 3.49655V6.99309H32.3115C32.5923 6.99309 32.7749 7.00969 32.7749 7.03522C32.7749 7.05864 32.8872 7.07735 33.0276 7.07735C33.168 7.07735 33.2804 7.09605 33.2804 7.11948C33.2804 7.14446 33.4349 7.1616 33.6595 7.1616C33.8842 7.1616 34.0387 7.17875 34.0387 7.20373C34.0387 7.22778 34.1651 7.24586 34.3336 7.24586C34.5021 7.24586 34.6285 7.26393 34.6285 7.28798C34.6285 7.31115 34.7043 7.33011 34.797 7.33011C34.8896 7.33011 34.9655 7.34907 34.9655 7.37224C34.9655 7.39541 35.0603 7.41436 35.1761 7.41436C35.292 7.41436 35.3867 7.43332 35.3867 7.45649C35.3867 7.47966 35.4815 7.49862 35.5974 7.49862C35.7132 7.49862 35.808 7.51758 35.808 7.54075C35.808 7.56392 35.8838 7.58287 35.9765 7.58287C36.0692 7.58287 36.145 7.60183 36.145 7.625C36.145 7.64817 36.2209 7.66713 36.3135 7.66713C36.4062 7.66713 36.482 7.68608 36.482 7.70925C36.482 7.73242 36.5579 7.75138 36.6506 7.75138C36.7432 7.75138 36.8191 7.77034 36.8191 7.79351C36.8191 7.81668 36.8759 7.83564 36.9454 7.83564C37.015 7.83564 37.0718 7.85459 37.0718 7.87776C37.0718 7.90093 37.1287 7.91989 37.1982 7.91989C37.2677 7.91989 37.3246 7.93885 37.3246 7.96202C37.3246 7.98519 37.4004 8.00414 37.4931 8.00414C37.5858 8.00414 37.6616 8.0231 37.6616 8.04627C37.6616 8.06944 37.7185 8.0884 37.788 8.0884C37.8575 8.0884 37.9144 8.10736 37.9144 8.13052C37.9144 8.1537 37.9712 8.17265 38.0407 8.17265C38.1103 8.17265 38.1671 8.19161 38.1671 8.21478C38.1671 8.23795 38.224 8.25691 38.2935 8.25691C38.363 8.25691 38.4199 8.27586 38.4199 8.29903C38.4199 8.3222 38.4768 8.34116 38.5463 8.34116C38.6158 8.34116 38.6727 8.36012 38.6727 8.38329C38.6727 8.40646 38.7106 8.42542 38.7569 8.42542C38.8032 8.42542 38.8412 8.44437 38.8412 8.46754C38.8412 8.49071 38.898 8.50967 38.9675 8.50967C39.0371 8.50967 39.0939 8.52863 39.0939 8.5518C39.0939 8.57497 39.1508 8.59392 39.2203 8.59392C39.2898 8.59392 39.3467 8.61288 39.3467 8.63605C39.3467 8.65922 39.3846 8.67818 39.4309 8.67818C39.4773 8.67818 39.5152 8.69713 39.5152 8.7203C39.5152 8.74347 39.5531 8.76243 39.5994 8.76243C39.6458 8.76243 39.6837 8.78139 39.6837 8.80456C39.6837 8.82773 39.7364 8.84669 39.8008 8.84669C39.8695 8.84669 39.9429 8.88148 39.9786 8.93094C40.0143 8.9804 40.0877 9.01519 40.1564 9.01519C40.2208 9.01519 40.2735 9.03415 40.2735 9.05732C40.2735 9.08049 40.3114 9.09945 40.3577 9.09945C40.4041 9.09945 40.442 9.11841 40.442 9.14157C40.442 9.16474 40.4799 9.1837 40.5262 9.1837C40.5726 9.1837 40.6105 9.20266 40.6105 9.22583C40.6105 9.249 40.6484 9.26796 40.6948 9.26796C40.7411 9.26796 40.779 9.28691 40.779 9.31008C40.779 9.33325 40.8169 9.35221 40.8633 9.35221C40.9096 9.35221 40.9475 9.37117 40.9475 9.39434C40.9475 9.41751 40.9854 9.43646 41.0318 9.43646C41.0781 9.43646 41.116 9.45542 41.116 9.47859C41.116 9.50176 41.1539 9.52072 41.2003 9.52072C41.2466 9.52072 41.2845 9.53968 41.2845 9.56285C41.2845 9.58602 41.3372 9.60497 41.4016 9.60497C41.4704 9.60497 41.5437 9.63977 41.5794 9.68923C41.6128 9.73557 41.6739 9.77348 41.7151 9.77348C41.7563 9.77348 41.7901 9.79244 41.7901 9.81561C41.7901 9.83878 41.828 9.85773 41.8743 9.85773C41.9207 9.85773 41.9586 9.87669 41.9586 9.89986C41.9586 9.92303 41.9923 9.94199 42.0335 9.94199C42.0747 9.94199 42.1358 9.9799 42.1692 10.0262C42.2026 10.0726 42.2636 10.1105 42.3049 10.1105C42.3461 10.1105 42.3798 10.1295 42.3798 10.1526C42.3798 10.1758 42.4136 10.1948 42.4548 10.1948C42.496 10.1948 42.5571 10.2327 42.5905 10.279C42.6239 10.3253 42.6849 10.3633 42.7262 10.3633C42.7674 10.3633 42.8011 10.3822 42.8011 10.4054C42.8011 10.4286 42.8349 10.4475 42.8761 10.4475C42.9173 10.4475 42.9783 10.4854 43.0117 10.5318C43.0451 10.5781 43.1062 10.616 43.1474 10.616C43.1886 10.616 43.2224 10.635 43.2224 10.6581C43.2224 10.6813 43.2527 10.7003 43.2897 10.7003C43.3268 10.7003 43.4102 10.7571 43.4751 10.8267C43.5401 10.8962 43.6193 10.953 43.6512 10.953C43.6832 10.953 43.7366 10.991 43.77 11.0373C43.8034 11.0836 43.8603 11.1215 43.8964 11.1215C43.9325 11.1215 43.9894 11.1595 44.0228 11.2058C44.0562 11.2521 44.1097 11.2901 44.1416 11.2901C44.1735 11.2901 44.2528 11.3469 44.3177 11.4164C44.3826 11.4859 44.4584 11.5428 44.4862 11.5428C44.514 11.5428 44.5898 11.5997 44.6547 11.6692C44.7196 11.7387 44.7954 11.7956 44.8232 11.7956C44.851 11.7956 44.9268 11.8525 44.9917 11.922C45.0566 11.9915 45.1318 12.0483 45.1588 12.0483C45.1857 12.0483 45.3001 12.1431 45.413 12.259C45.5258 12.3748 45.6393 12.4696 45.665 12.4696C45.6909 12.4696 45.8428 12.6023 46.0028 12.7645C46.1627 12.9267 46.3136 13.0594 46.3381 13.0594C46.396 13.0594 47.8564 14.5196 47.8564 14.5775C47.8564 14.6018 48.008 14.7717 48.1934 14.9551C48.3787 15.1385 48.5304 15.3098 48.5304 15.3358C48.5304 15.3617 48.6062 15.4558 48.6989 15.5449C48.7916 15.6339 48.8674 15.7287 48.8674 15.7555C48.8674 15.7823 48.9432 15.8771 49.0359 15.9662C49.1286 16.0552 49.2044 16.1504 49.2044 16.1776C49.2044 16.2049 49.2613 16.2804 49.3308 16.3453C49.4003 16.4102 49.4572 16.4861 49.4572 16.5138C49.4572 16.5416 49.5141 16.6174 49.5836 16.6823C49.6531 16.7472 49.7099 16.8265 49.7099 16.8584C49.7099 16.8903 49.7479 16.9438 49.7942 16.9772C49.8405 17.0106 49.8785 17.0675 49.8785 17.1036C49.8785 17.1397 49.9164 17.1966 49.9627 17.23C50.009 17.2634 50.047 17.3203 50.047 17.3564C50.047 17.3925 50.0849 17.4493 50.1312 17.4827C50.1776 17.5161 50.2155 17.573 50.2155 17.6091C50.2155 17.6452 50.2534 17.7021 50.2997 17.7355C50.3461 17.7689 50.384 17.8299 50.384 17.8712C50.384 17.9124 50.4029 17.9461 50.4261 17.9461C50.4493 17.9461 50.4682 17.9799 50.4682 18.0211C50.4682 18.0623 50.5061 18.1234 50.5525 18.1568C50.5988 18.1902 50.6367 18.247 50.6367 18.2831C50.6367 18.3193 50.6747 18.3761 50.721 18.4095C50.7673 18.4429 50.8052 18.504 50.8052 18.5452C50.8052 18.5864 50.8242 18.6202 50.8474 18.6202C50.8705 18.6202 50.8895 18.6581 50.8895 18.7044C50.8895 18.7508 50.9085 18.7887 50.9316 18.7887C50.9548 18.7887 50.9738 18.8224 50.9738 18.8636C50.9738 18.9049 51.0117 18.9659 51.058 18.9993C51.1044 19.0327 51.1423 19.0938 51.1423 19.135C51.1423 19.1762 51.1612 19.2099 51.1844 19.2099C51.2076 19.2099 51.2265 19.2479 51.2265 19.2942C51.2265 19.3405 51.2455 19.3785 51.2686 19.3785C51.2918 19.3785 51.3108 19.4164 51.3108 19.4627C51.3108 19.509 51.3297 19.547 51.3529 19.547C51.3761 19.547 51.395 19.5849 51.395 19.6312C51.395 19.6776 51.414 19.7155 51.4372 19.7155C51.4603 19.7155 51.4793 19.7534 51.4793 19.7997C51.4793 19.8461 51.4982 19.884 51.5214 19.884C51.5446 19.884 51.5635 19.9219 51.5635 19.9682C51.5635 20.0146 51.5825 20.0525 51.6057 20.0525C51.6288 20.0525 51.6478 20.0904 51.6478 20.1367C51.6478 20.1831 51.6667 20.221 51.6899 20.221C51.7131 20.221 51.732 20.2589 51.732 20.3052C51.732 20.3516 51.751 20.3895 51.7742 20.3895C51.7973 20.3895 51.8163 20.4274 51.8163 20.4738C51.8163 20.5201 51.8353 20.558 51.8584 20.558C51.8816 20.558 51.9006 20.5959 51.9006 20.6423C51.9006 20.6886 51.9195 20.7265 51.9427 20.7265C51.9659 20.7265 51.9848 20.7834 51.9848 20.8529C51.9848 20.9224 52.0038 20.9793 52.0269 20.9793C52.0501 20.9793 52.0691 21.0172 52.0691 21.0635C52.0691 21.1099 52.088 21.1478 52.1112 21.1478C52.1344 21.1478 52.1533 21.1857 52.1533 21.232C52.1533 21.2784 52.1723 21.3163 52.1954 21.3163C52.2186 21.3163 52.2376 21.3542 52.2376 21.4006C52.2376 21.4469 52.2565 21.4848 52.2797 21.4848C52.3029 21.4848 52.3218 21.5417 52.3218 21.6112C52.3218 21.6807 52.3408 21.7376 52.364 21.7376C52.3871 21.7376 52.4061 21.7755 52.4061 21.8218C52.4061 21.8682 52.425 21.9061 52.4482 21.9061C52.4714 21.9061 52.4903 21.9629 52.4903 22.0325C52.4903 22.102 52.5093 22.1588 52.5325 22.1588C52.5556 22.1588 52.5746 22.2157 52.5746 22.2852C52.5746 22.3547 52.5935 22.4116 52.6167 22.4116C52.6399 22.4116 52.6588 22.4495 52.6588 22.4959C52.6588 22.5422 52.6778 22.5801 52.701 22.5801C52.7241 22.5801 52.7431 22.637 52.7431 22.7065C52.7431 22.776 52.7621 22.8329 52.7852 22.8329C52.8084 22.8329 52.8274 22.9087 52.8274 23.0014C52.8274 23.0941 52.8463 23.1699 52.8695 23.1699C52.8926 23.1699 52.9116 23.2078 52.9116 23.2541C52.9116 23.3005 52.9306 23.3384 52.9537 23.3384C52.9769 23.3384 52.9959 23.3953 52.9959 23.4648C52.9959 23.5343 53.0148 23.5912 53.038 23.5912C53.0612 23.5912 53.0801 23.6859 53.0801 23.8018C53.0801 23.9176 53.0991 24.0124 53.1222 24.0124C53.1454 24.0124 53.1644 24.0503 53.1644 24.0967C53.1644 24.143 53.1833 24.1809 53.2065 24.1809C53.2297 24.1809 53.2486 24.2568 53.2486 24.3494C53.2486 24.4421 53.2676 24.518 53.2907 24.518C53.3139 24.518 53.3329 24.6127 53.3329 24.7286C53.3329 24.8444 53.3518 24.9392 53.375 24.9392C53.3982 24.9392 53.4171 24.9961 53.4171 25.0656C53.4171 25.1351 53.4361 25.192 53.4593 25.192C53.4824 25.192 53.5014 25.2868 53.5014 25.4026C53.5014 25.5185 53.5203 25.6133 53.5435 25.6133C53.5669 25.6133 53.5856 25.7256 53.5856 25.866C53.5856 26.0064 53.6043 26.1188 53.6278 26.1188C53.6509 26.1188 53.6699 26.2136 53.6699 26.3294C53.6699 26.4453 53.6888 26.5401 53.712 26.5401C53.7352 26.5401 53.7541 26.6348 53.7541 26.7507C53.7541 26.8665 53.7731 26.9613 53.7963 26.9613C53.8213 26.9613 53.8384 27.1158 53.8384 27.3405C53.8384 27.5651 53.8555 27.7196 53.8805 27.7196C53.9058 27.7196 53.9227 27.8881 53.9227 28.1409C53.9227 28.3936 53.9395 28.5622 53.9648 28.5622C53.9911 28.5622 54.0069 28.8149 54.0069 29.2362C54.0069 29.6575 54.0227 29.9102 54.049 29.9102C54.0749 29.9102 54.0912 30.1209 54.0912 30.4579C54.0912 30.7949 54.0749 31.0055 54.049 31.0055C54.0227 31.0055 54.0069 31.2583 54.0069 31.6796C54.0069 32.1008 53.9911 32.3536 53.9648 32.3536C53.9395 32.3536 53.9227 32.5221 53.9227 32.7749C53.9227 33.0276 53.9058 33.1961 53.8805 33.1961C53.8553 33.1961 53.8384 33.3646 53.8384 33.6174C53.8384 33.8702 53.8215 34.0387 53.7963 34.0387C53.7731 34.0387 53.7541 34.1335 53.7541 34.2493C53.7541 34.3652 53.7352 34.4599 53.712 34.4599C53.6888 34.4599 53.6699 34.5547 53.6699 34.6706C53.6699 34.7864 53.6509 34.8812 53.6278 34.8812C53.6043 34.8812 53.5856 34.9936 53.5856 35.134C53.5856 35.2744 53.5669 35.3867 53.5435 35.3867C53.5203 35.3867 53.5014 35.4626 53.5014 35.5552C53.5014 35.6479 53.4824 35.7238 53.4593 35.7238C53.4361 35.7238 53.4171 35.7806 53.4171 35.8501C53.4171 35.9196 53.3982 35.9765 53.375 35.9765C53.3518 35.9765 53.3329 36.0713 53.3329 36.1872C53.3329 36.303 53.3139 36.3978 53.2907 36.3978C53.2676 36.3978 53.2486 36.4736 53.2486 36.5663C53.2486 36.659 53.2297 36.7348 53.2065 36.7348C53.1833 36.7348 53.1644 36.7917 53.1644 36.8612C53.1644 36.9307 53.1454 36.9876 53.1222 36.9876C53.0991 36.9876 53.0801 37.0634 53.0801 37.1561C53.0801 37.2488 53.0612 37.3246 53.038 37.3246C53.0148 37.3246 52.9959 37.4004 52.9959 37.4931C52.9959 37.5858 52.9769 37.6616 52.9537 37.6616C52.9306 37.6616 52.9116 37.6995 52.9116 37.7459C52.9116 37.7922 52.8926 37.8301 52.8695 37.8301C52.8463 37.8301 52.8274 37.887 52.8274 37.9565C52.8274 38.026 52.8084 38.0829 52.7852 38.0829C52.7621 38.0829 52.7431 38.1587 52.7431 38.2514C52.7431 38.3441 52.7241 38.4199 52.701 38.4199C52.6778 38.4199 52.6588 38.4578 52.6588 38.5041C52.6588 38.5505 52.6399 38.5884 52.6167 38.5884C52.5935 38.5884 52.5746 38.6263 52.5746 38.6727C52.5746 38.719 52.5556 38.7569 52.5325 38.7569C52.5093 38.7569 52.4903 38.8138 52.4903 38.8833C52.4903 38.9528 52.4714 39.0097 52.4482 39.0097C52.425 39.0097 52.4061 39.0476 52.4061 39.0939C52.4061 39.1403 52.3871 39.1782 52.364 39.1782C52.3408 39.1782 52.3218 39.2351 52.3218 39.3046C52.3218 39.3741 52.3029 39.4309 52.2797 39.4309C52.2565 39.4309 52.2376 39.4878 52.2376 39.5573C52.2376 39.6268 52.2186 39.6837 52.1954 39.6837C52.1723 39.6837 52.1533 39.7216 52.1533 39.768C52.1533 39.8143 52.1344 39.8522 52.1112 39.8522C52.088 39.8522 52.0691 39.8901 52.0691 39.9365C52.0691 39.9828 52.0501 40.0207 52.0269 40.0207C52.0038 40.0207 51.9848 40.0586 51.9848 40.105C51.9848 40.1513 51.9659 40.1892 51.9427 40.1892C51.9195 40.1892 51.9006 40.2271 51.9006 40.2735C51.9006 40.3198 51.8816 40.3577 51.8584 40.3577C51.8353 40.3577 51.8163 40.3956 51.8163 40.442C51.8163 40.4883 51.7973 40.5262 51.7742 40.5262C51.751 40.5262 51.732 40.5831 51.732 40.6526C51.732 40.7221 51.7131 40.779 51.6899 40.779C51.6667 40.779 51.6478 40.8128 51.6478 40.854C51.6478 40.8952 51.6099 40.9562 51.5635 40.9896C51.5141 41.0253 51.4793 41.0987 51.4793 41.1675C51.4793 41.2318 51.4603 41.2845 51.4372 41.2845C51.414 41.2845 51.395 41.3183 51.395 41.3595C51.395 41.4007 51.3571 41.4618 51.3108 41.4952C51.2644 41.5286 51.2265 41.5896 51.2265 41.6309C51.2265 41.6721 51.2076 41.7058 51.1844 41.7058C51.1612 41.7058 51.1423 41.7437 51.1423 41.7901C51.1423 41.8364 51.1233 41.8743 51.1001 41.8743C51.077 41.8743 51.058 41.9122 51.058 41.9586C51.058 42.0049 51.0391 42.0428 51.0159 42.0428C50.9927 42.0428 50.9738 42.0807 50.9738 42.1271C50.9738 42.1734 50.9548 42.2113 50.9316 42.2113C50.9085 42.2113 50.8895 42.2451 50.8895 42.2863C50.8895 42.3275 50.8516 42.3886 50.8052 42.422C50.7589 42.4554 50.721 42.5164 50.721 42.5577C50.721 42.5989 50.702 42.6326 50.6789 42.6326C50.6557 42.6326 50.6367 42.6629 50.6367 42.7C50.6367 42.737 50.5799 42.8204 50.5104 42.8854C50.4408 42.9503 50.384 43.0296 50.384 43.0615C50.384 43.0934 50.3461 43.1468 50.2997 43.1802C50.2534 43.2137 50.2155 43.2747 50.2155 43.3159C50.2155 43.3571 50.1965 43.3909 50.1733 43.3909C50.1502 43.3909 50.1312 43.4246 50.1312 43.4658C50.1312 43.5071 50.0933 43.5681 50.047 43.6015C50.0006 43.6349 49.9627 43.6918 49.9627 43.7279C49.9627 43.764 49.9248 43.8209 49.8785 43.8543C49.8321 43.8877 49.7942 43.9411 49.7942 43.9731C49.7942 44.005 49.7373 44.0843 49.6678 44.1492C49.5983 44.2141 49.5414 44.2934 49.5414 44.3253C49.5414 44.3572 49.5035 44.4107 49.4572 44.4441C49.4108 44.4775 49.3729 44.5305 49.3729 44.562C49.3729 44.5934 49.2971 44.692 49.2044 44.7811C49.1117 44.8701 49.0359 44.9653 49.0359 44.9926C49.0359 45.0199 48.979 45.0953 48.9095 45.1602C48.84 45.2251 48.7831 45.3002 48.7831 45.3269C48.7831 45.3536 48.6694 45.4872 48.5304 45.6236C48.3914 45.7601 48.2776 45.8918 48.2776 45.9164C48.2776 45.9866 46.137 48.1091 46.0662 48.1091C46.0309 48.1091 46.0028 48.1464 46.0028 48.1934C46.0028 48.242 45.9747 48.2776 45.9363 48.2776C45.8997 48.2776 45.7969 48.3535 45.7079 48.4461C45.6188 48.5388 45.5243 48.6146 45.4978 48.6146C45.4713 48.6146 45.3573 48.7094 45.2445 48.8253C45.1316 48.9411 45.0172 49.0359 44.9903 49.0359C44.9633 49.0359 44.8881 49.0928 44.8232 49.1623C44.7583 49.2318 44.6825 49.2887 44.6547 49.2887C44.6269 49.2887 44.5511 49.3455 44.4862 49.4151C44.4213 49.4846 44.342 49.5414 44.3101 49.5414C44.2782 49.5414 44.2247 49.5794 44.1913 49.6257C44.1579 49.672 44.1044 49.7099 44.0725 49.7099C44.0406 49.7099 43.9613 49.7668 43.8964 49.8363C43.8315 49.9058 43.7522 49.9627 43.7203 49.9627C43.6884 49.9627 43.6349 50.0006 43.6015 50.047C43.5681 50.0933 43.5071 50.1312 43.4658 50.1312C43.4246 50.1312 43.3909 50.1502 43.3909 50.1733C43.3909 50.1965 43.3571 50.2155 43.3159 50.2155C43.2747 50.2155 43.2137 50.2534 43.1802 50.2997C43.1468 50.3461 43.09 50.384 43.0539 50.384C43.0178 50.384 42.9609 50.4219 42.9275 50.4682C42.8941 50.5146 42.8372 50.5525 42.8011 50.5525C42.765 50.5525 42.7081 50.5904 42.6747 50.6367C42.6413 50.6831 42.5803 50.721 42.539 50.721C42.4978 50.721 42.4641 50.74 42.4641 50.7631C42.4641 50.7863 42.4303 50.8052 42.3891 50.8052C42.3479 50.8052 42.2869 50.8432 42.2535 50.8895C42.22 50.9358 42.159 50.9738 42.1178 50.9738C42.0766 50.9738 42.0428 50.9927 42.0428 51.0159C42.0428 51.0391 42.0049 51.058 41.9586 51.058C41.9122 51.058 41.8743 51.077 41.8743 51.1001C41.8743 51.1233 41.8364 51.1423 41.7901 51.1423C41.7437 51.1423 41.7058 51.1612 41.7058 51.1844C41.7058 51.2076 41.6679 51.2265 41.6215 51.2265C41.5752 51.2265 41.5373 51.2455 41.5373 51.2686C41.5373 51.2918 41.4994 51.3108 41.453 51.3108C41.4067 51.3108 41.3688 51.3297 41.3688 51.3529C41.3688 51.3761 41.3309 51.395 41.2845 51.395C41.2382 51.395 41.2003 51.414 41.2003 51.4372C41.2003 51.4603 41.1624 51.4793 41.116 51.4793C41.0697 51.4793 41.0318 51.4982 41.0318 51.5214C41.0318 51.5446 40.998 51.5635 40.9568 51.5635C40.9156 51.5635 40.8545 51.6015 40.8211 51.6478C40.7855 51.6972 40.7121 51.732 40.6433 51.732C40.5789 51.732 40.5262 51.751 40.5262 51.7742C40.5262 51.7973 40.4883 51.8163 40.442 51.8163C40.3956 51.8163 40.3577 51.8353 40.3577 51.8584C40.3577 51.8816 40.3198 51.9006 40.2735 51.9006C40.2271 51.9006 40.1892 51.9195 40.1892 51.9427C40.1892 51.9659 40.1513 51.9848 40.105 51.9848C40.0586 51.9848 40.0207 52.0038 40.0207 52.0269C40.0207 52.0501 39.9638 52.0691 39.8943 52.0691C39.8248 52.0691 39.768 52.088 39.768 52.1112C39.768 52.1344 39.73 52.1533 39.6837 52.1533C39.6374 52.1533 39.5994 52.1723 39.5994 52.1954C39.5994 52.2186 39.5615 52.2376 39.5152 52.2376C39.4689 52.2376 39.4309 52.2565 39.4309 52.2797C39.4309 52.3029 39.3741 52.3218 39.3046 52.3218C39.2351 52.3218 39.1782 52.3408 39.1782 52.364C39.1782 52.3871 39.1213 52.4061 39.0518 52.4061C38.9823 52.4061 38.9254 52.425 38.9254 52.4482C38.9254 52.4714 38.8875 52.4903 38.8412 52.4903C38.7948 52.4903 38.7569 52.5093 38.7569 52.5325C38.7569 52.5556 38.7 52.5746 38.6305 52.5746C38.561 52.5746 38.5041 52.5935 38.5041 52.6167C38.5041 52.6399 38.4473 52.6588 38.3778 52.6588C38.3083 52.6588 38.2514 52.6778 38.2514 52.701C38.2514 52.7241 38.1945 52.7431 38.125 52.7431C38.0555 52.7431 37.9986 52.7621 37.9986 52.7852C37.9986 52.8084 37.9417 52.8274 37.8722 52.8274C37.8027 52.8274 37.7459 52.8463 37.7459 52.8695C37.7459 52.8926 37.689 52.9116 37.6195 52.9116C37.55 52.9116 37.4931 52.9306 37.4931 52.9537C37.4931 52.9769 37.4362 52.9959 37.3667 52.9959C37.2972 52.9959 37.2403 53.0148 37.2403 53.038C37.2403 53.0612 37.1645 53.0801 37.0718 53.0801C36.9791 53.0801 36.9033 53.0991 36.9033 53.1222C36.9033 53.1454 36.8275 53.1644 36.7348 53.1644C36.6421 53.1644 36.5663 53.1833 36.5663 53.2065C36.5663 53.2297 36.5284 53.2486 36.482 53.2486C36.4357 53.2486 36.3978 53.2676 36.3978 53.2907C36.3978 53.3139 36.303 53.3329 36.1872 53.3329C36.0713 53.3329 35.9765 53.3518 35.9765 53.375C35.9765 53.3982 35.8817 53.4171 35.7659 53.4171C35.65 53.4171 35.5552 53.4361 35.5552 53.4593C35.5552 53.4824 35.4984 53.5014 35.4289 53.5014C35.3594 53.5014 35.3025 53.5203 35.3025 53.5435C35.3025 53.5669 35.1901 53.5856 35.0497 53.5856C34.9093 53.5856 34.797 53.6043 34.797 53.6278C34.797 53.6518 34.6706 53.6699 34.5021 53.6699C34.3336 53.6699 34.2072 53.688 34.2072 53.712C34.2072 53.7354 34.0948 53.7541 33.9544 53.7541C33.814 53.7541 33.7017 53.7729 33.7017 53.7963C33.7017 53.8203 33.5753 53.8384 33.4068 53.8384C33.2383 53.8384 33.1119 53.8565 33.1119 53.8805C33.1119 53.9066 32.8872 53.9227 32.5221 53.9227C32.157 53.9227 31.9323 53.9387 31.9323 53.9648C31.9323 53.992 31.4408 54.0069 30.5421 54.0069H29.1519V54.3439C29.1519 54.5405 29.1344 54.6809 29.1098 54.6809C29.0843 54.6809 29.0677 54.8635 29.0677 55.1443C29.0677 55.4252 29.0511 55.6077 29.0256 55.6077C29 55.6077 28.9834 55.7903 28.9834 56.0711C28.9834 56.352 28.9668 56.5345 28.9413 56.5345C28.9152 56.5345 28.8992 56.7592 28.8992 57.1243C28.8992 57.4894 28.8831 57.7141 28.857 57.7141C28.8313 57.7141 28.8149 57.9107 28.8149 58.2196C28.8149 58.5285 28.7985 58.7251 28.7728 58.7251C28.7478 58.7251 28.7307 58.8796 28.7307 59.1043C28.7307 59.3289 28.7135 59.4834 28.6885 59.4834C28.6623 59.4834 28.6464 59.7222 28.6464 60.1153C28.6464 60.5085 28.6305 60.7472 28.6043 60.7472C28.5811 60.7472 28.5622 60.7852 28.5622 60.8315C28.5622 60.9045 28.5903 60.9157 28.7728 60.9157C28.8886 60.9157 28.9834 60.9347 28.9834 60.9579C28.9834 60.9851 29.4749 61 30.3736 61C31.2723 61 31.7638 60.9851 31.7638 60.9579C31.7638 60.9313 32.0447 60.9157 32.5221 60.9157C32.9995 60.9157 33.2804 60.9002 33.2804 60.8736C33.2804 60.8481 33.4629 60.8315 33.7438 60.8315C34.0246 60.8315 34.2072 60.8149 34.2072 60.7894C34.2072 60.7662 34.302 60.7472 34.4178 60.7472C34.5337 60.7472 34.6285 60.7283 34.6285 60.7051C34.6285 60.6806 34.7689 60.663 34.9655 60.663C35.1621 60.663 35.3025 60.6454 35.3025 60.6209C35.3025 60.5974 35.4148 60.5787 35.5552 60.5787C35.6957 60.5787 35.808 60.56 35.808 60.5366C35.808 60.5132 35.9204 60.4945 36.0608 60.4945C36.2012 60.4945 36.3135 60.4758 36.3135 60.4524C36.3135 60.4292 36.3894 60.4102 36.482 60.4102C36.5747 60.4102 36.6506 60.3913 36.6506 60.3681C36.6506 60.3447 36.7629 60.326 36.9033 60.326C37.0437 60.326 37.1561 60.3073 37.1561 60.2838C37.1561 60.2607 37.2319 60.2417 37.3246 60.2417C37.4173 60.2417 37.4931 60.2228 37.4931 60.1996C37.4931 60.1764 37.55 60.1575 37.6195 60.1575C37.689 60.1575 37.7459 60.1385 37.7459 60.1153C37.7459 60.0922 37.8406 60.0732 37.9565 60.0732C38.0723 60.0732 38.1671 60.0542 38.1671 60.0311C38.1671 60.0079 38.243 59.989 38.3356 59.989C38.4283 59.989 38.5041 59.97 38.5041 59.9468C38.5041 59.9237 38.561 59.9047 38.6305 59.9047C38.7 59.9047 38.7569 59.8857 38.7569 59.8626C38.7569 59.8394 38.8327 59.8204 38.9254 59.8204C39.0181 59.8204 39.0939 59.8015 39.0939 59.7783C39.0939 59.7551 39.1698 59.7362 39.2624 59.7362C39.3551 59.7362 39.4309 59.7172 39.4309 59.6941C39.4309 59.6709 39.4689 59.6519 39.5152 59.6519C39.5615 59.6519 39.5994 59.633 39.5994 59.6098C39.5994 59.5866 39.6753 59.5677 39.768 59.5677C39.8606 59.5677 39.9365 59.5487 39.9365 59.5256C39.9365 59.5024 39.9933 59.4834 40.0628 59.4834C40.1324 59.4834 40.1892 59.4645 40.1892 59.4413C40.1892 59.4181 40.2271 59.3992 40.2735 59.3992C40.3198 59.3992 40.3577 59.3802 40.3577 59.357C40.3577 59.3339 40.4146 59.3149 40.4841 59.3149C40.5536 59.3149 40.6105 59.296 40.6105 59.2728C40.6105 59.2496 40.6863 59.2307 40.779 59.2307C40.8717 59.2307 40.9475 59.2117 40.9475 59.1885C40.9475 59.1654 40.9854 59.1464 41.0318 59.1464C41.0781 59.1464 41.116 59.1275 41.116 59.1043C41.116 59.0811 41.1729 59.0622 41.2424 59.0622C41.3119 59.0622 41.3688 59.0432 41.3688 59.02C41.3688 58.9969 41.4067 58.9779 41.453 58.9779C41.4994 58.9779 41.5373 58.9589 41.5373 58.9358C41.5373 58.9126 41.5942 58.8936 41.6637 58.8936C41.7332 58.8936 41.7901 58.8747 41.7901 58.8515C41.7901 58.8284 41.828 58.8094 41.8743 58.8094C41.9207 58.8094 41.9586 58.7904 41.9586 58.7673C41.9586 58.7441 42.0154 58.7251 42.0849 58.7251C42.1545 58.7251 42.2113 58.7062 42.2113 58.683C42.2113 58.6598 42.2492 58.6409 42.2956 58.6409C42.3419 58.6409 42.3798 58.6219 42.3798 58.5988C42.3798 58.5756 42.4178 58.5566 42.4641 58.5566C42.5104 58.5566 42.5483 58.5377 42.5483 58.5145C42.5483 58.4913 42.6052 58.4724 42.6747 58.4724C42.7442 58.4724 42.8011 58.4534 42.8011 58.4302C42.8011 58.4071 42.839 58.3881 42.8854 58.3881C42.9317 58.3881 42.9696 58.3692 42.9696 58.346C42.9696 58.3228 43.0075 58.3039 43.0539 58.3039C43.1002 58.3039 43.1381 58.2849 43.1381 58.2617C43.1381 58.2386 43.195 58.2196 43.2645 58.2196C43.334 58.2196 43.3909 58.2007 43.3909 58.1775C43.3909 58.1543 43.4246 58.1354 43.4658 58.1354C43.5071 58.1354 43.5681 58.0974 43.6015 58.0511C43.6372 58.0016 43.7106 57.9669 43.7793 57.9669C43.8437 57.9669 43.8964 57.9479 43.8964 57.9247C43.8964 57.9016 43.9343 57.8826 43.9807 57.8826C44.027 57.8826 44.0649 57.8636 44.0649 57.8405C44.0649 57.8173 44.1028 57.7983 44.1492 57.7983C44.1955 57.7983 44.2334 57.7794 44.2334 57.7562C44.2334 57.733 44.2713 57.7141 44.3177 57.7141C44.364 57.7141 44.4019 57.6951 44.4019 57.672C44.4019 57.6488 44.4398 57.6298 44.4862 57.6298C44.5325 57.6298 44.5704 57.6109 44.5704 57.5877C44.5704 57.5645 44.6042 57.5456 44.6454 57.5456C44.6866 57.5456 44.7477 57.5077 44.7811 57.4613C44.8146 57.4149 44.8901 57.3771 44.9496 57.3771C45.009 57.3771 45.0846 57.3393 45.1181 57.2928C45.1515 57.2465 45.2125 57.2086 45.2538 57.2086C45.295 57.2086 45.3287 57.1896 45.3287 57.1664C45.3287 57.1433 45.3625 57.1243 45.4037 57.1243C45.4449 57.1243 45.506 57.0864 45.5394 57.0401C45.5728 56.9937 45.6338 56.9558 45.6751 56.9558C45.7163 56.9558 45.75 56.9368 45.75 56.9137C45.75 56.8905 45.7879 56.8715 45.8343 56.8715C45.8806 56.8715 45.9185 56.8526 45.9185 56.8294C45.9185 56.8063 45.9523 56.7873 45.9935 56.7873C46.0347 56.7873 46.0957 56.7494 46.1291 56.703C46.1626 56.6567 46.2236 56.6188 46.2648 56.6188C46.306 56.6188 46.3398 56.5998 46.3398 56.5767C46.3398 56.5535 46.3735 56.5345 46.4147 56.5345C46.456 56.5345 46.517 56.4966 46.5504 56.4503C46.5838 56.4039 46.6407 56.366 46.6768 56.366C46.7129 56.366 46.7698 56.3281 46.8032 56.2818C46.8366 56.2354 46.8935 56.1975 46.9296 56.1975C46.9657 56.1975 47.0225 56.1596 47.0559 56.1133C47.0893 56.0669 47.1504 56.029 47.1916 56.029C47.2328 56.029 47.2666 56.01 47.2666 55.9869C47.2666 55.9637 47.3003 55.9448 47.3415 55.9448C47.3828 55.9448 47.4438 55.9068 47.4772 55.8605C47.5106 55.8142 47.5641 55.7762 47.596 55.7762C47.6279 55.7762 47.7072 55.7194 47.7721 55.6499C47.837 55.5804 47.9163 55.5235 47.9482 55.5235C47.9801 55.5235 48.0336 55.4856 48.067 55.4392C48.1004 55.3929 48.1573 55.355 48.1934 55.355C48.2295 55.355 48.2863 55.3171 48.3198 55.2707C48.3532 55.2244 48.4066 55.1865 48.4385 55.1865C48.4704 55.1865 48.5497 55.1296 48.6146 55.0601C48.6796 54.9906 48.7554 54.9337 48.7831 54.9337C48.8109 54.9337 48.8867 54.8768 48.9517 54.8073C49.0166 54.7378 49.092 54.6809 49.1193 54.6809C49.1466 54.6809 49.2417 54.6051 49.3308 54.5124C49.4199 54.4198 49.5146 54.3439 49.5414 54.3439C49.5682 54.3439 49.663 54.2681 49.7521 54.1754C49.8411 54.0827 49.9353 54.0069 49.9614 54.0069C49.9876 54.0069 50.1398 53.8742 50.2997 53.712C50.4597 53.5498 50.6112 53.4171 50.6365 53.4171C50.6618 53.4171 50.8325 53.2655 51.0159 53.0801C51.1993 52.8948 51.3786 52.7431 51.4143 52.7431C51.4512 52.7431 51.4793 52.7067 51.4793 52.6588C51.4793 52.6118 51.5074 52.5746 51.5429 52.5746C51.5779 52.5746 51.8243 52.3568 52.0906 52.0906C52.3568 51.8243 52.5746 51.5779 52.5746 51.5429C52.5746 51.5074 52.6118 51.4793 52.6588 51.4793C52.7065 51.4793 52.7431 51.4512 52.7431 51.4146C52.7431 51.3791 52.9327 51.1617 53.1644 50.9316C53.3961 50.7015 53.5856 50.4926 53.5856 50.4674C53.5856 50.4421 53.6994 50.3098 53.8384 50.1733C53.9774 50.0369 54.0912 49.9034 54.0912 49.8766C54.0912 49.8499 54.148 49.7749 54.2175 49.7099C54.2871 49.645 54.3439 49.5696 54.3439 49.5423C54.3439 49.515 54.4198 49.4199 54.5124 49.3308C54.6051 49.2417 54.6809 49.1466 54.6809 49.1193C54.6809 49.092 54.7378 49.0166 54.8073 48.9517C54.8768 48.8867 54.9337 48.8109 54.9337 48.7831C54.9337 48.7554 54.9906 48.6796 55.0601 48.6146C55.1296 48.5497 55.1865 48.4739 55.1865 48.4461C55.1865 48.4184 55.2433 48.3425 55.3128 48.2776C55.3824 48.2127 55.4392 48.1334 55.4392 48.1015C55.4392 48.0696 55.4771 48.0161 55.5235 47.9827C55.5698 47.9493 55.6077 47.8925 55.6077 47.8564C55.6077 47.8203 55.6456 47.7634 55.692 47.73C55.7383 47.6966 55.7762 47.6397 55.7762 47.6036C55.7762 47.5675 55.8142 47.5106 55.8605 47.4772C55.9068 47.4438 55.9448 47.3869 55.9448 47.3508C55.9448 47.3147 55.9827 47.2579 56.029 47.2244C56.0753 47.191 56.1133 47.1342 56.1133 47.0981C56.1133 47.062 56.1512 47.0051 56.1975 46.9717C56.2439 46.9383 56.2818 46.8772 56.2818 46.836C56.2818 46.7948 56.3007 46.7611 56.3239 46.7611C56.3471 46.7611 56.366 46.7273 56.366 46.6861C56.366 46.6449 56.4039 46.5838 56.4503 46.5504C56.4966 46.517 56.5345 46.4601 56.5345 46.424C56.5345 46.3879 56.5724 46.3311 56.6188 46.2977C56.6651 46.2642 56.703 46.2032 56.703 46.162C56.703 46.1208 56.722 46.087 56.7452 46.087C56.7683 46.087 56.7873 46.0491 56.7873 46.0028C56.7873 45.9564 56.8063 45.9185 56.8294 45.9185C56.8526 45.9185 56.8715 45.8848 56.8715 45.8436C56.8715 45.8023 56.9095 45.7413 56.9558 45.7079C57.0021 45.6745 57.0401 45.6134 57.0401 45.5722C57.0401 45.531 57.059 45.4972 57.0822 45.4972C57.1054 45.4972 57.1243 45.4635 57.1243 45.4223C57.1243 45.3811 57.1622 45.32 57.2086 45.2866C57.2549 45.2532 57.2928 45.1922 57.2928 45.1509C57.2928 45.1097 57.3118 45.076 57.3349 45.076C57.3581 45.076 57.3771 45.0381 57.3771 44.9917C57.3771 44.9454 57.396 44.9075 57.4192 44.9075C57.4424 44.9075 57.4613 44.8695 57.4613 44.8232C57.4613 44.7769 57.4803 44.739 57.5035 44.739C57.5266 44.739 57.5456 44.701 57.5456 44.6547C57.5456 44.6084 57.5645 44.5704 57.5877 44.5704C57.6109 44.5704 57.6298 44.5325 57.6298 44.4862C57.6298 44.4398 57.6488 44.4019 57.672 44.4019C57.6951 44.4019 57.7141 44.364 57.7141 44.3177C57.7141 44.2713 57.733 44.2334 57.7562 44.2334C57.7794 44.2334 57.7983 44.1955 57.7983 44.1492C57.7983 44.1028 57.8173 44.0649 57.8405 44.0649C57.8636 44.0649 57.8826 44.027 57.8826 43.9807C57.8826 43.9343 57.9016 43.8964 57.9247 43.8964C57.9479 43.8964 57.9669 43.8585 57.9669 43.8122C57.9669 43.7658 57.9858 43.7279 58.009 43.7279C58.0322 43.7279 58.0511 43.69 58.0511 43.6436C58.0511 43.5973 58.0701 43.5594 58.0932 43.5594C58.1164 43.5594 58.1354 43.5215 58.1354 43.4751C58.1354 43.4288 58.1543 43.3909 58.1775 43.3909C58.2007 43.3909 58.2196 43.353 58.2196 43.3066C58.2196 43.2603 58.2386 43.2224 58.2617 43.2224C58.2849 43.2224 58.3039 43.1845 58.3039 43.1381C58.3039 43.0918 58.3228 43.0539 58.346 43.0539C58.3692 43.0539 58.3881 42.997 58.3881 42.9275C58.3881 42.858 58.4071 42.8011 58.4302 42.8011C58.4534 42.8011 58.4724 42.7632 58.4724 42.7169C58.4724 42.6705 58.4913 42.6326 58.5145 42.6326C58.5377 42.6326 58.5566 42.5947 58.5566 42.5483C58.5566 42.502 58.5756 42.4641 58.5988 42.4641C58.6219 42.4641 58.6409 42.4072 58.6409 42.3377C58.6409 42.2682 58.6598 42.2113 58.683 42.2113C58.7062 42.2113 58.7251 42.1734 58.7251 42.1271C58.7251 42.0807 58.7441 42.0428 58.7673 42.0428C58.7904 42.0428 58.8094 42.0049 58.8094 41.9586C58.8094 41.9122 58.8284 41.8743 58.8515 41.8743C58.8747 41.8743 58.8936 41.8174 58.8936 41.7479C58.8936 41.6784 58.9126 41.6215 58.9358 41.6215C58.9589 41.6215 58.9779 41.5647 58.9779 41.4952C58.9779 41.4257 58.9969 41.3688 59.02 41.3688C59.0432 41.3688 59.0622 41.3309 59.0622 41.2845C59.0622 41.2382 59.0811 41.2003 59.1043 41.2003C59.1275 41.2003 59.1464 41.1434 59.1464 41.0739C59.1464 41.0044 59.1654 40.9475 59.1885 40.9475C59.2117 40.9475 59.2307 40.8906 59.2307 40.8211C59.2307 40.7516 59.2496 40.6948 59.2728 40.6948C59.296 40.6948 59.3149 40.6568 59.3149 40.6105C59.3149 40.5642 59.3339 40.5262 59.357 40.5262C59.3802 40.5262 59.3992 40.4694 59.3992 40.3999C59.3992 40.3304 59.4181 40.2735 59.4413 40.2735C59.4645 40.2735 59.4834 40.1977 59.4834 40.105C59.4834 40.0123 59.5024 39.9365 59.5256 39.9365C59.5487 39.9365 59.5677 39.8986 59.5677 39.8522C59.5677 39.8059 59.5866 39.768 59.6098 39.768C59.633 39.768 59.6519 39.7111 59.6519 39.6416C59.6519 39.5721 59.6709 39.5152 59.6941 39.5152C59.7172 39.5152 59.7362 39.4204 59.7362 39.3046C59.7362 39.1887 59.7551 39.0939 59.7783 39.0939C59.8015 39.0939 59.8204 39.0371 59.8204 38.9675C59.8204 38.898 59.8394 38.8412 59.8626 38.8412C59.8857 38.8412 59.9047 38.7843 59.9047 38.7148C59.9047 38.6453 59.9237 38.5884 59.9468 38.5884C59.97 38.5884 59.989 38.5126 59.989 38.4199C59.989 38.3272 60.0079 38.2514 60.0311 38.2514C60.0542 38.2514 60.0732 38.1756 60.0732 38.0829C60.0732 37.9902 60.0922 37.9144 60.1153 37.9144C60.1385 37.9144 60.1575 37.8575 60.1575 37.788C60.1575 37.7185 60.1764 37.6616 60.1996 37.6616C60.223 37.6616 60.2417 37.5493 60.2417 37.4088C60.2417 37.2684 60.2604 37.1561 60.2838 37.1561C60.307 37.1561 60.326 37.0802 60.326 36.9876C60.326 36.8949 60.3449 36.8191 60.3681 36.8191C60.3913 36.8191 60.4102 36.7432 60.4102 36.6506C60.4102 36.5579 60.4292 36.482 60.4524 36.482C60.4758 36.482 60.4945 36.3697 60.4945 36.2293C60.4945 36.0889 60.5132 35.9765 60.5366 35.9765C60.5607 35.9765 60.5787 35.8501 60.5787 35.6816C60.5787 35.5131 60.5968 35.3867 60.6209 35.3867C60.644 35.3867 60.663 35.3109 60.663 35.2182C60.663 35.1256 60.6819 35.0497 60.7051 35.0497C60.7301 35.0497 60.7472 34.8952 60.7472 34.6706C60.7472 34.4459 60.7644 34.2914 60.7894 34.2914C60.8143 34.2914 60.8315 34.137 60.8315 33.9123C60.8315 33.6876 60.8486 33.5331 60.8736 33.5331C60.8986 33.5331 60.9157 33.3787 60.9157 33.154C60.9157 32.9293 60.9329 32.7749 60.9579 32.7749C60.9854 32.7749 61 31.9885 61 30.5C61 29.0115 60.9854 28.2251 60.9579 28.2251C60.9329 28.2251 60.9157 28.0707 60.9157 27.846C60.9157 27.6213 60.8986 27.4669 60.8736 27.4669C60.8486 27.4669 60.8315 27.3124 60.8315 27.0877C60.8315 26.863 60.8143 26.7086 60.7894 26.7086C60.7641 26.7086 60.7472 26.5401 60.7472 26.2873C60.7472 26.0345 60.7304 25.866 60.7051 25.866C60.6819 25.866 60.663 25.7902 60.663 25.6975C60.663 25.6048 60.644 25.529 60.6209 25.529C60.5974 25.529 60.5787 25.4167 60.5787 25.2762C60.5787 25.1358 60.56 25.0235 60.5366 25.0235C60.5126 25.0235 60.4945 24.8971 60.4945 24.7286C60.4945 24.5601 60.4764 24.4337 60.4524 24.4337C60.4292 24.4337 60.4102 24.3579 60.4102 24.2652C60.4102 24.1725 60.3913 24.0967 60.3681 24.0967C60.3449 24.0967 60.326 24.0209 60.326 23.9282C60.326 23.8355 60.307 23.7597 60.2838 23.7597C60.2607 23.7597 60.2417 23.6649 60.2417 23.549C60.2417 23.4332 60.2228 23.3384 60.1996 23.3384C60.1764 23.3384 60.1575 23.2626 60.1575 23.1699C60.1575 23.0772 60.1385 23.0014 60.1153 23.0014C60.0922 23.0014 60.0732 22.9445 60.0732 22.875C60.0732 22.8055 60.0542 22.7486 60.0311 22.7486C60.0079 22.7486 59.989 22.6538 59.989 22.538C59.989 22.4221 59.97 22.3273 59.9468 22.3273C59.9237 22.3273 59.9047 22.2705 59.9047 22.201C59.9047 22.1315 59.8857 22.0746 59.8626 22.0746C59.8394 22.0746 59.8204 22.0177 59.8204 21.9482C59.8204 21.8787 59.8015 21.8218 59.7783 21.8218C59.7551 21.8218 59.7362 21.746 59.7362 21.6533C59.7362 21.5606 59.7172 21.4848 59.6941 21.4848C59.6709 21.4848 59.6519 21.4279 59.6519 21.3584C59.6519 21.2889 59.633 21.232 59.6098 21.232C59.5866 21.232 59.5677 21.1752 59.5677 21.1057C59.5677 21.0362 59.5487 20.9793 59.5256 20.9793C59.5024 20.9793 59.4834 20.9224 59.4834 20.8529C59.4834 20.7834 59.4645 20.7265 59.4413 20.7265C59.4181 20.7265 59.3992 20.6696 59.3992 20.6001C59.3992 20.5306 59.3802 20.4738 59.357 20.4738C59.3339 20.4738 59.3149 20.4169 59.3149 20.3474C59.3149 20.2779 59.296 20.221 59.2728 20.221C59.2496 20.221 59.2307 20.1641 59.2307 20.0946C59.2307 20.0251 59.2117 19.9682 59.1885 19.9682C59.1654 19.9682 59.1464 19.9303 59.1464 19.884C59.1464 19.8376 59.1275 19.7997 59.1043 19.7997C59.0811 19.7997 59.0622 19.7429 59.0622 19.6733C59.0622 19.6038 59.0432 19.547 59.02 19.547C58.9969 19.547 58.9779 19.509 58.9779 19.4627C58.9779 19.4164 58.9589 19.3785 58.9358 19.3785C58.9126 19.3785 58.8936 19.3216 58.8936 19.2521C58.8936 19.1826 58.8747 19.1257 58.8515 19.1257C58.8284 19.1257 58.8094 19.0878 58.8094 19.0414C58.8094 18.9951 58.7904 18.9572 58.7673 18.9572C58.7441 18.9572 58.7251 18.9003 58.7251 18.8308C58.7251 18.7613 58.7062 18.7044 58.683 18.7044C58.6598 18.7044 58.6409 18.6517 58.6409 18.5873C58.6409 18.5186 58.6061 18.4452 58.5566 18.4095C58.5072 18.3738 58.4724 18.3005 58.4724 18.2317C58.4724 18.1673 58.4534 18.1146 58.4302 18.1146C58.4071 18.1146 58.3881 18.0767 58.3881 18.0304C58.3881 17.984 58.3692 17.9461 58.346 17.9461C58.3228 17.9461 58.3039 17.9082 58.3039 17.8619C58.3039 17.8155 58.2849 17.7776 58.2617 17.7776C58.2386 17.7776 58.2196 17.7397 58.2196 17.6934C58.2196 17.647 58.2007 17.6091 58.1775 17.6091C58.1543 17.6091 58.1354 17.5564 58.1354 17.492C58.1354 17.4233 58.1006 17.3499 58.0511 17.3142C58.0016 17.2785 57.9669 17.2052 57.9669 17.1364C57.9669 17.072 57.9479 17.0193 57.9247 17.0193C57.9016 17.0193 57.8826 16.9814 57.8826 16.9351C57.8826 16.8887 57.8636 16.8508 57.8405 16.8508C57.8173 16.8508 57.7983 16.8129 57.7983 16.7666C57.7983 16.7202 57.7794 16.6823 57.7562 16.6823C57.733 16.6823 57.7141 16.6444 57.7141 16.5981C57.7141 16.5517 57.6951 16.5138 57.672 16.5138C57.6488 16.5138 57.6298 16.4759 57.6298 16.4296C57.6298 16.3832 57.6109 16.3453 57.5877 16.3453C57.5645 16.3453 57.5456 16.3116 57.5456 16.2704C57.5456 16.2291 57.5077 16.1681 57.4613 16.1347C57.415 16.1013 57.3771 16.0402 57.3771 15.999C57.3771 15.9578 57.3581 15.924 57.3349 15.924C57.3118 15.924 57.2928 15.8861 57.2928 15.8398C57.2928 15.7934 57.2739 15.7555 57.2507 15.7555C57.2275 15.7555 57.2086 15.7176 57.2086 15.6713C57.2086 15.6249 57.1896 15.587 57.1664 15.587C57.1433 15.587 57.1243 15.5491 57.1243 15.5028C57.1243 15.4564 57.1054 15.4185 57.0822 15.4185C57.059 15.4185 57.0401 15.3848 57.0401 15.3436C57.0401 15.3023 57.0021 15.2413 56.9558 15.2079C56.9095 15.1745 56.8715 15.1134 56.8715 15.0722C56.8715 15.031 56.8526 14.9972 56.8294 14.9972C56.8063 14.9972 56.7873 14.9635 56.7873 14.9223C56.7873 14.8811 56.7494 14.82 56.703 14.7866C56.6567 14.7532 56.6188 14.6922 56.6188 14.6509C56.6188 14.6097 56.5998 14.576 56.5767 14.576C56.5535 14.576 56.5345 14.5422 56.5345 14.501C56.5345 14.4598 56.4966 14.3987 56.4503 14.3653C56.4039 14.3319 56.366 14.2751 56.366 14.239C56.366 14.2028 56.3281 14.146 56.2818 14.1126C56.2354 14.0792 56.1975 14.0181 56.1975 13.9769C56.1975 13.9357 56.1786 13.9019 56.1554 13.9019C56.1322 13.9019 56.1133 13.8716 56.1133 13.8346C56.1133 13.7975 56.0564 13.7141 55.9869 13.6492C55.9174 13.5843 55.8605 13.505 55.8605 13.4731C55.8605 13.4411 55.8226 13.3877 55.7762 13.3543C55.7299 13.3209 55.692 13.264 55.692 13.2279C55.692 13.1918 55.6541 13.1349 55.6077 13.1015C55.5614 13.0681 55.5235 13.0112 55.5235 12.9751C55.5235 12.939 55.4856 12.8822 55.4392 12.8488C55.3929 12.8154 55.355 12.7585 55.355 12.7224C55.355 12.6863 55.3171 12.6294 55.2707 12.596C55.2244 12.5626 55.1865 12.5095 55.1865 12.4781C55.1865 12.4466 55.1106 12.348 55.018 12.259C54.9253 12.1699 54.8494 12.0748 54.8494 12.0475C54.8494 12.0202 54.7926 11.9448 54.7231 11.8798C54.6536 11.8149 54.5967 11.7397 54.5967 11.7128C54.5967 11.6858 54.5019 11.5714 54.3861 11.4586C54.2702 11.3457 54.1754 11.2317 54.1754 11.2053C54.1754 11.1788 54.0996 11.0842 54.0069 10.9952C53.9142 10.9061 53.8384 10.8118 53.8384 10.7855C53.8384 10.7592 53.7247 10.6261 53.5856 10.4896C53.4466 10.3532 53.3329 10.2121 53.3329 10.176C53.3329 10.1386 53.2968 10.1105 53.2486 10.1105C53.2017 10.1105 53.1644 10.0824 53.1644 10.0471C53.1644 9.97657 51.042 7.83564 50.9722 7.83564C50.9479 7.83564 50.778 7.68398 50.5946 7.49862C50.4112 7.31326 50.2399 7.1616 50.214 7.1616C50.188 7.1616 50.0939 7.08577 50.0048 6.99309C49.9158 6.90041 49.8212 6.82459 49.7947 6.82459C49.7683 6.82459 49.6543 6.7298 49.5414 6.61395C49.4286 6.4981 49.3142 6.40332 49.2872 6.40332C49.2603 6.40332 49.1851 6.34644 49.1202 6.27693C49.0552 6.20742 48.9794 6.15055 48.9517 6.15055C48.9239 6.15055 48.8481 6.09368 48.7831 6.02417C48.7182 5.95466 48.6424 5.89779 48.6146 5.89779C48.5869 5.89779 48.5111 5.84092 48.4461 5.77141C48.3812 5.7019 48.2978 5.64503 48.2607 5.64503C48.2237 5.64503 48.1934 5.62607 48.1934 5.6029C48.1934 5.57973 48.1631 5.56077 48.126 5.56077C48.089 5.56077 48.0055 5.5039 47.9406 5.43439C47.8757 5.36488 47.7999 5.30801 47.7721 5.30801C47.7443 5.30801 47.6685 5.25114 47.6036 5.18163C47.5387 5.11212 47.4594 5.05525 47.4275 5.05525C47.3956 5.05525 47.3421 5.01733 47.3087 4.97099C47.2753 4.92465 47.2143 4.88674 47.173 4.88674C47.1318 4.88674 47.0981 4.86778 47.0981 4.84461C47.0981 4.82144 47.0643 4.80249 47.0231 4.80249C46.9819 4.80249 46.9208 4.76457 46.8874 4.71823C46.854 4.67189 46.793 4.63398 46.7517 4.63398C46.7105 4.63398 46.6768 4.61502 46.6768 4.59185C46.6768 4.56868 46.6431 4.54972 46.6018 4.54972C46.5606 4.54972 46.4996 4.51181 46.4662 4.46547C46.4328 4.41913 46.3759 4.38122 46.3398 4.38122C46.3037 4.38122 46.2468 4.3433 46.2134 4.29696C46.18 4.25062 46.1231 4.21271 46.087 4.21271C46.0509 4.21271 45.994 4.17479 45.9606 4.12845C45.9272 4.08211 45.8662 4.0442 45.8249 4.0442C45.7837 4.0442 45.75 4.02524 45.75 4.00207C45.75 3.9789 45.7121 3.95994 45.6657 3.95994C45.6194 3.95994 45.5815 3.94099 45.5815 3.91782C45.5815 3.89465 45.5436 3.87569 45.4972 3.87569C45.4509 3.87569 45.413 3.85673 45.413 3.83356C45.413 3.81039 45.3751 3.79144 45.3287 3.79144C45.2824 3.79144 45.2445 3.77248 45.2445 3.74931C45.2445 3.72614 45.2066 3.70718 45.1602 3.70718C45.1139 3.70718 45.076 3.68823 45.076 3.66506C45.076 3.64189 45.0422 3.62293 45.001 3.62293C44.9598 3.62293 44.8987 3.58501 44.8653 3.53867C44.8319 3.49233 44.7709 3.45442 44.7296 3.45442C44.6884 3.45442 44.6547 3.43546 44.6547 3.41229C44.6547 3.38912 44.6168 3.37017 44.5704 3.37017C44.5241 3.37017 44.4862 3.35121 44.4862 3.32804C44.4862 3.30487 44.4483 3.28591 44.4019 3.28591C44.3556 3.28591 44.3177 3.26695 44.3177 3.24378C44.3177 3.22061 44.2798 3.20166 44.2334 3.20166C44.1871 3.20166 44.1492 3.1827 44.1492 3.15953C44.1492 3.13636 44.1113 3.1174 44.0649 3.1174C44.0186 3.1174 43.9807 3.09845 43.9807 3.07528C43.9807 3.05211 43.9427 3.03315 43.8964 3.03315C43.8501 3.03315 43.8122 3.01419 43.8122 2.99102C43.8122 2.96785 43.7742 2.94889 43.7279 2.94889C43.6816 2.94889 43.6436 2.92994 43.6436 2.90677C43.6436 2.8836 43.5909 2.86464 43.5266 2.86464C43.4578 2.86464 43.3844 2.82984 43.3488 2.78039C43.3131 2.73093 43.2397 2.69613 43.1709 2.69613C43.1066 2.69613 43.0539 2.67718 43.0539 2.65401C43.0539 2.63084 43.016 2.61188 42.9696 2.61188C42.9233 2.61188 42.8854 2.59292 42.8854 2.56975C42.8854 2.54658 42.8474 2.52762 42.8011 2.52762C42.7548 2.52762 42.7169 2.50867 42.7169 2.4855C42.7169 2.46233 42.6789 2.44337 42.6326 2.44337C42.5863 2.44337 42.5483 2.42441 42.5483 2.40124C42.5483 2.37807 42.4915 2.35912 42.422 2.35912C42.3525 2.35912 42.2956 2.34016 42.2956 2.31699C42.2956 2.29382 42.2577 2.27486 42.2113 2.27486C42.165 2.27486 42.1271 2.2559 42.1271 2.23273C42.1271 2.20956 42.0702 2.19061 42.0007 2.19061C41.9312 2.19061 41.8743 2.17165 41.8743 2.14848C41.8743 2.12531 41.8364 2.10635 41.7901 2.10635C41.7437 2.10635 41.7058 2.0874 41.7058 2.06423C41.7058 2.04106 41.6489 2.0221 41.5794 2.0221C41.5099 2.0221 41.453 2.00314 41.453 1.97997C41.453 1.9568 41.4151 1.93785 41.3688 1.93785C41.3224 1.93785 41.2845 1.91889 41.2845 1.89572C41.2845 1.87255 41.2129 1.85359 41.1253 1.85359C41.0145 1.85359 40.9477 1.82802 40.9054 1.76934C40.8697 1.71988 40.7963 1.68508 40.7276 1.68508C40.6632 1.68508 40.6105 1.66613 40.6105 1.64296C40.6105 1.61979 40.5347 1.60083 40.442 1.60083C40.3493 1.60083 40.2735 1.58187 40.2735 1.5587C40.2735 1.53553 40.2166 1.51657 40.1471 1.51657C40.0776 1.51657 40.0207 1.49762 40.0207 1.47445C40.0207 1.45128 39.9638 1.43232 39.8943 1.43232C39.8248 1.43232 39.768 1.41336 39.768 1.39019C39.768 1.36702 39.7111 1.34807 39.6416 1.34807C39.5721 1.34807 39.5152 1.32911 39.5152 1.30594C39.5152 1.28277 39.4394 1.26381 39.3467 1.26381C39.254 1.26381 39.1782 1.24486 39.1782 1.22169C39.1782 1.19852 39.1403 1.17956 39.0939 1.17956C39.0476 1.17956 39.0097 1.1606 39.0097 1.13743C39.0097 1.11426 38.9338 1.0953 38.8412 1.0953C38.7485 1.0953 38.6727 1.07635 38.6727 1.05318C38.6727 1.03001 38.5968 1.01105 38.5041 1.01105C38.4115 1.01105 38.3356 0.992093 38.3356 0.968923C38.3356 0.945753 38.2788 0.926796 38.2093 0.926796C38.1397 0.926796 38.0829 0.907838 38.0829 0.884669C38.0829 0.861499 37.9881 0.842541 37.8722 0.842541C37.7564 0.842541 37.6616 0.823584 37.6616 0.800414C37.6616 0.777245 37.5668 0.758287 37.451 0.758287C37.3351 0.758287 37.2403 0.73933 37.2403 0.71616C37.2403 0.69299 37.1835 0.674033 37.114 0.674033C37.0444 0.674033 36.9876 0.655076 36.9876 0.631906C36.9876 0.608483 36.8752 0.589779 36.7348 0.589779C36.5944 0.589779 36.482 0.571075 36.482 0.547652C36.482 0.524482 36.3873 0.505525 36.2714 0.505525C36.1556 0.505525 36.0608 0.486568 36.0608 0.463398C36.0608 0.440228 35.966 0.421271 35.8501 0.421271C35.7343 0.421271 35.6395 0.402314 35.6395 0.379144C35.6395 0.355089 35.5131 0.337017 35.3446 0.337017C35.1761 0.337017 35.0497 0.318944 35.0497 0.29489C35.0497 0.270329 34.9093 0.252762 34.7127 0.252762C34.5161 0.252762 34.3757 0.235195 34.3757 0.210635C34.3757 0.187213 34.2633 0.168508 34.1229 0.168508C33.9825 0.168508 33.8702 0.149804 33.8702 0.126381C33.8702 0.100642 33.6736 0.0842541 33.3646 0.0842541C33.0557 0.0842541 32.8591 0.0678667 32.8591 0.0421271C32.8591 0.0163874 32.6625 0 32.3536 0H31.8481V3.49655ZM4.64451 14.2611C4.59236 14.3168 4.54972 14.3914 4.54972 14.427C4.54972 14.4626 4.53077 14.4917 4.5076 14.4917C4.48443 14.4917 4.46547 14.5255 4.46547 14.5667C4.46547 14.6079 4.42756 14.6689 4.38122 14.7023C4.33488 14.7358 4.29696 14.7968 4.29696 14.838C4.29696 14.8792 4.278 14.913 4.25483 14.913C4.23166 14.913 4.21271 14.9467 4.21271 14.9879C4.21271 15.0292 4.17479 15.0902 4.12845 15.1236C4.08211 15.157 4.0442 15.2181 4.0442 15.2593C4.0442 15.3005 4.02524 15.3343 4.00207 15.3343C3.9789 15.3343 3.95994 15.3722 3.95994 15.4185C3.95994 15.4648 3.94099 15.5028 3.91782 15.5028C3.89465 15.5028 3.87569 15.5365 3.87569 15.5777C3.87569 15.6189 3.83778 15.68 3.79144 15.7134C3.7451 15.7468 3.70718 15.8078 3.70718 15.8491C3.70718 15.8903 3.68823 15.924 3.66506 15.924C3.64189 15.924 3.62293 15.9619 3.62293 16.0083C3.62293 16.0546 3.60397 16.0925 3.5808 16.0925C3.55763 16.0925 3.53867 16.1305 3.53867 16.1768C3.53867 16.2231 3.51972 16.261 3.49655 16.261C3.47338 16.261 3.45442 16.299 3.45442 16.3453C3.45442 16.3916 3.43546 16.4296 3.41229 16.4296C3.38912 16.4296 3.37017 16.4675 3.37017 16.5138C3.37017 16.5602 3.35121 16.5981 3.32804 16.5981C3.30487 16.5981 3.28591 16.6318 3.28591 16.673C3.28591 16.7143 3.248 16.7753 3.20166 16.8087C3.1522 16.8444 3.1174 16.9178 3.1174 16.9865C3.1174 17.0509 3.09845 17.1036 3.07528 17.1036C3.05211 17.1036 3.03315 17.1415 3.03315 17.1878C3.03315 17.2342 3.01419 17.2721 2.99102 17.2721C2.96785 17.2721 2.94889 17.31 2.94889 17.3564C2.94889 17.4027 2.92994 17.4406 2.90677 17.4406C2.8836 17.4406 2.86464 17.4785 2.86464 17.5249C2.86464 17.5712 2.84568 17.6091 2.82251 17.6091C2.79934 17.6091 2.78039 17.647 2.78039 17.6934C2.78039 17.7397 2.76143 17.7776 2.73826 17.7776C2.71509 17.7776 2.69613 17.8155 2.69613 17.8619C2.69613 17.9082 2.67718 17.9461 2.65401 17.9461C2.63084 17.9461 2.61188 18.003 2.61188 18.0725C2.61188 18.142 2.59292 18.1989 2.56975 18.1989C2.54658 18.1989 2.52762 18.2368 2.52762 18.2831C2.52762 18.3295 2.50867 18.3674 2.4855 18.3674C2.46233 18.3674 2.44337 18.4053 2.44337 18.4517C2.44337 18.498 2.42441 18.5359 2.40124 18.5359C2.37807 18.5359 2.35912 18.5928 2.35912 18.6623C2.35912 18.7318 2.34016 18.7887 2.31699 18.7887C2.29382 18.7887 2.27486 18.8266 2.27486 18.8729C2.27486 18.9193 2.2559 18.9572 2.23273 18.9572C2.20956 18.9572 2.19061 18.9951 2.19061 19.0414C2.19061 19.0878 2.17165 19.1257 2.14848 19.1257C2.12531 19.1257 2.10635 19.1826 2.10635 19.2521C2.10635 19.3216 2.0874 19.3785 2.06423 19.3785C2.04106 19.3785 2.0221 19.4353 2.0221 19.5048C2.0221 19.5743 2.00314 19.6312 1.97997 19.6312C1.9568 19.6312 1.93785 19.6691 1.93785 19.7155C1.93785 19.7618 1.91889 19.7997 1.89572 19.7997C1.87255 19.7997 1.85359 19.8566 1.85359 19.9261C1.85359 19.9956 1.83463 20.0525 1.81146 20.0525C1.78829 20.0525 1.76934 20.1094 1.76934 20.1789C1.76934 20.2484 1.75038 20.3052 1.72721 20.3052C1.70404 20.3052 1.68508 20.3432 1.68508 20.3895C1.68508 20.4358 1.66613 20.4738 1.64296 20.4738C1.61979 20.4738 1.60083 20.5306 1.60083 20.6001C1.60083 20.6696 1.58187 20.7265 1.5587 20.7265C1.53553 20.7265 1.51657 20.8023 1.51657 20.895C1.51657 20.9877 1.49762 21.0635 1.47445 21.0635C1.45128 21.0635 1.43232 21.1014 1.43232 21.1478C1.43232 21.1941 1.41336 21.232 1.39019 21.232C1.36702 21.232 1.34807 21.3079 1.34807 21.4006C1.34807 21.4932 1.32911 21.5691 1.30594 21.5691C1.28277 21.5691 1.26381 21.6259 1.26381 21.6954C1.26381 21.765 1.24486 21.8218 1.22169 21.8218C1.19852 21.8218 1.17956 21.8787 1.17956 21.9482C1.17956 22.0177 1.1606 22.0746 1.13743 22.0746C1.11426 22.0746 1.0953 22.1504 1.0953 22.2431C1.0953 22.3358 1.07635 22.4116 1.05318 22.4116C1.03001 22.4116 1.01105 22.4874 1.01105 22.5801C1.01105 22.6728 0.992093 22.7486 0.968923 22.7486C0.945753 22.7486 0.926796 22.8244 0.926796 22.9171C0.926796 23.0098 0.907838 23.0856 0.884669 23.0856C0.861499 23.0856 0.842541 23.1615 0.842541 23.2541C0.842541 23.3468 0.823584 23.4227 0.800414 23.4227C0.777245 23.4227 0.758287 23.5174 0.758287 23.6333C0.758287 23.7491 0.73933 23.8439 0.71616 23.8439C0.69299 23.8439 0.674033 23.9387 0.674033 24.0546C0.674033 24.1704 0.655076 24.2652 0.631906 24.2652C0.608736 24.2652 0.589779 24.3221 0.589779 24.3916C0.589779 24.4611 0.570822 24.518 0.547652 24.518C0.524229 24.518 0.505525 24.6303 0.505525 24.7707C0.505525 24.9111 0.48682 25.0235 0.463398 25.0235C0.439343 25.0235 0.421271 25.1499 0.421271 25.3184C0.421271 25.4869 0.403198 25.6133 0.379144 25.6133C0.355974 25.6133 0.337017 25.708 0.337017 25.8239C0.337017 25.9397 0.318059 26.0345 0.29489 26.0345C0.269908 26.0345 0.252762 26.189 0.252762 26.4137C0.252762 26.6383 0.235617 26.7928 0.210635 26.7928C0.185359 26.7928 0.168508 26.9613 0.168508 27.2141C0.168508 27.4669 0.151657 27.6354 0.126381 27.6354C0.1014 27.6354 0.0842541 27.7898 0.0842541 28.0145C0.0842541 28.2392 0.0671084 28.3936 0.0421271 28.3936C0.0146181 28.3936 0 29.1238 0 30.5C0 31.8762 0.0146181 32.6064 0.0421271 32.6064C0.0671084 32.6064 0.0842541 32.7608 0.0842541 32.9855C0.0842541 33.2102 0.1014 33.3646 0.126381 33.3646C0.151657 33.3646 0.168508 33.5331 0.168508 33.7859C0.168508 34.0387 0.185359 34.2072 0.210635 34.2072C0.235617 34.2072 0.252762 34.3617 0.252762 34.5863C0.252762 34.811 0.269908 34.9655 0.29489 34.9655C0.318059 34.9655 0.337017 35.0413 0.337017 35.134C0.337017 35.2267 0.355974 35.3025 0.379144 35.3025C0.403198 35.3025 0.421271 35.4289 0.421271 35.5974C0.421271 35.7659 0.439343 35.8923 0.463398 35.8923C0.48682 35.8923 0.505525 36.0046 0.505525 36.145C0.505525 36.2854 0.524229 36.3978 0.547652 36.3978C0.570822 36.3978 0.589779 36.4926 0.589779 36.6084C0.589779 36.7243 0.608736 36.8191 0.631906 36.8191C0.655076 36.8191 0.674033 36.8949 0.674033 36.9876C0.674033 37.0802 0.69299 37.1561 0.71616 37.1561C0.73933 37.1561 0.758287 37.194 0.758287 37.2403C0.758287 37.3106 0.786386 37.3246 0.926796 37.3246C1.01948 37.3246 1.0953 37.3056 1.0953 37.2825C1.0953 37.259 1.20766 37.2403 1.34807 37.2403C1.48848 37.2403 1.60083 37.2216 1.60083 37.1982C1.60083 37.175 1.69561 37.1561 1.81146 37.1561C1.92731 37.1561 2.0221 37.1371 2.0221 37.114C2.0221 37.0908 2.07897 37.0718 2.14848 37.0718C2.21799 37.0718 2.27486 37.0529 2.27486 37.0297C2.27486 37.0065 2.36965 36.9876 2.4855 36.9876C2.60135 36.9876 2.69613 36.9686 2.69613 36.9454C2.69613 36.9223 2.79092 36.9033 2.90677 36.9033C3.02262 36.9033 3.1174 36.8844 3.1174 36.8612C3.1174 36.838 3.19323 36.8191 3.28591 36.8191C3.37859 36.8191 3.45442 36.8001 3.45442 36.7769C3.45442 36.7538 3.54921 36.7348 3.66506 36.7348C3.7809 36.7348 3.87569 36.7159 3.87569 36.6927C3.87569 36.6695 3.97048 36.6506 4.08633 36.6506C4.20218 36.6506 4.29696 36.6316 4.29696 36.6084C4.29696 36.5853 4.35383 36.5663 4.42334 36.5663C4.49285 36.5663 4.54972 36.5473 4.54972 36.5242C4.54972 36.501 4.64451 36.482 4.76036 36.482C4.87621 36.482 4.97099 36.4631 4.97099 36.4399C4.97099 36.4167 5.06578 36.3978 5.18163 36.3978C5.29748 36.3978 5.39227 36.3788 5.39227 36.3557C5.39227 36.3325 5.46809 36.3135 5.56077 36.3135C5.65345 36.3135 5.72928 36.2946 5.72928 36.2714C5.72928 36.2482 5.82407 36.2293 5.93992 36.2293C6.05577 36.2293 6.15055 36.2103 6.15055 36.1872C6.15055 36.164 6.24534 36.145 6.36119 36.145C6.47704 36.145 6.57182 36.1261 6.57182 36.1029C6.57182 36.0797 6.64765 36.0608 6.74033 36.0608C6.83301 36.0608 6.90884 36.0418 6.90884 36.0186C6.90884 35.9955 6.98467 35.9765 7.07735 35.9765C7.17003 35.9765 7.24586 35.9576 7.24586 35.9344C7.24586 35.9112 7.32169 35.8923 7.41436 35.8923C7.57352 35.8923 7.58287 35.8852 7.58287 35.7659C7.58287 35.6964 7.56392 35.6395 7.54075 35.6395C7.51758 35.6395 7.49862 35.5637 7.49862 35.471C7.49862 35.3783 7.47966 35.3025 7.45649 35.3025C7.43307 35.3025 7.41436 35.1901 7.41436 35.0497C7.41436 34.9093 7.39566 34.797 7.37224 34.797C7.34907 34.797 7.33011 34.7022 7.33011 34.5863C7.33011 34.4705 7.31115 34.3757 7.28798 34.3757C7.26456 34.3757 7.24586 34.2633 7.24586 34.1229C7.24586 33.9825 7.22715 33.8702 7.20373 33.8702C7.17845 33.8702 7.1616 33.7017 7.1616 33.4489C7.1616 33.1961 7.14475 33.0276 7.11948 33.0276C7.0942 33.0276 7.07735 32.8591 7.07735 32.6064C7.07735 32.3536 7.0605 32.1851 7.03522 32.1851C7.00784 32.1851 6.99309 31.5953 6.99309 30.5C6.99309 29.4047 7.00784 28.8149 7.03522 28.8149C7.06075 28.8149 7.07735 28.6324 7.07735 28.3515C7.07735 28.0707 7.09395 27.8881 7.11948 27.8881C7.14475 27.8881 7.1616 27.7196 7.1616 27.4669C7.1616 27.2141 7.17845 27.0456 7.20373 27.0456C7.2269 27.0456 7.24586 26.9508 7.24586 26.8349C7.24586 26.7191 7.26481 26.6243 7.28798 26.6243C7.31141 26.6243 7.33011 26.512 7.33011 26.3715C7.33011 26.2311 7.34881 26.1188 7.37224 26.1188C7.39541 26.1188 7.41436 26.024 7.41436 25.9081C7.41436 25.7923 7.43332 25.6975 7.45649 25.6975C7.47966 25.6975 7.49862 25.6027 7.49862 25.4869C7.49862 25.371 7.51758 25.2762 7.54075 25.2762C7.56392 25.2762 7.58287 25.2194 7.58287 25.1499C7.58287 25.0804 7.60183 25.0235 7.625 25.0235C7.64817 25.0235 7.66713 24.9287 7.66713 24.8128C7.66713 24.697 7.68608 24.6022 7.70925 24.6022C7.73242 24.6022 7.75138 24.5264 7.75138 24.4337C7.75138 24.341 7.77034 24.2652 7.79351 24.2652C7.81668 24.2652 7.83564 24.2083 7.83564 24.1388C7.83564 24.0693 7.85459 24.0124 7.87776 24.0124C7.90093 24.0124 7.91989 23.9366 7.91989 23.8439C7.91989 23.7512 7.93885 23.6754 7.96202 23.6754C7.98519 23.6754 8.00414 23.6185 8.00414 23.549C8.00414 23.4795 8.0231 23.4227 8.04627 23.4227C8.06944 23.4227 8.0884 23.3658 8.0884 23.2963C8.0884 23.2268 8.10736 23.1699 8.13052 23.1699C8.1537 23.1699 8.17265 23.113 8.17265 23.0435C8.17265 22.974 8.19161 22.9171 8.21478 22.9171C8.23795 22.9171 8.25691 22.8603 8.25691 22.7907C8.25691 22.7212 8.27586 22.6644 8.29903 22.6644C8.3222 22.6644 8.34116 22.6075 8.34116 22.538C8.34116 22.4685 8.36012 22.4116 8.38329 22.4116C8.40646 22.4116 8.42542 22.3737 8.42542 22.3273C8.42542 22.281 8.44437 22.2431 8.46754 22.2431C8.49071 22.2431 8.50967 22.1862 8.50967 22.1167C8.50967 22.0472 8.52863 21.9903 8.5518 21.9903C8.57497 21.9903 8.59392 21.9524 8.59392 21.9061C8.59392 21.8597 8.61288 21.8218 8.63605 21.8218C8.65922 21.8218 8.67818 21.765 8.67818 21.6954C8.67818 21.6259 8.69713 21.5691 8.7203 21.5691C8.74347 21.5691 8.76243 21.5122 8.76243 21.4427C8.76243 21.3732 8.78139 21.3163 8.80456 21.3163C8.82773 21.3163 8.84669 21.2784 8.84669 21.232C8.84669 21.1857 8.86564 21.1478 8.88881 21.1478C8.91198 21.1478 8.93094 21.1099 8.93094 21.0635C8.93094 21.0172 8.9499 20.9793 8.97307 20.9793C8.99624 20.9793 9.01519 20.9224 9.01519 20.8529C9.01519 20.7834 9.03415 20.7265 9.05732 20.7265C9.08049 20.7265 9.09945 20.6928 9.09945 20.6516C9.09945 20.6103 9.13736 20.5493 9.1837 20.5159C9.23316 20.4802 9.26796 20.4068 9.26796 20.3381C9.26796 20.2737 9.28691 20.221 9.31008 20.221C9.33325 20.221 9.35221 20.1831 9.35221 20.1367C9.35221 20.0904 9.37117 20.0525 9.39434 20.0525C9.41751 20.0525 9.43646 20.0146 9.43646 19.9682C9.43646 19.9219 9.45542 19.884 9.47859 19.884C9.50176 19.884 9.52072 19.8461 9.52072 19.7997C9.52072 19.7534 9.53968 19.7155 9.56285 19.7155C9.58602 19.7155 9.60497 19.6776 9.60497 19.6312C9.60497 19.5849 9.62393 19.547 9.6471 19.547C9.67027 19.547 9.68923 19.5132 9.68923 19.472C9.68923 19.4308 9.72714 19.3697 9.77348 19.3363C9.81982 19.3029 9.85773 19.2419 9.85773 19.2006C9.85773 19.1594 9.87669 19.1257 9.89986 19.1257C9.92303 19.1257 9.94199 19.0878 9.94199 19.0414C9.94199 18.9951 9.96095 18.9572 9.98412 18.9572C10.0073 18.9572 10.0262 18.9193 10.0262 18.8729C10.0262 18.8266 10.0452 18.7887 10.0684 18.7887C10.0915 18.7887 10.1105 18.7549 10.1105 18.7137C10.1105 18.6725 10.1484 18.6114 10.1948 18.578C10.2411 18.5446 10.279 18.4836 10.279 18.4423C10.279 18.4011 10.298 18.3674 10.3211 18.3674C10.3443 18.3674 10.3633 18.3187 10.3633 18.2591C10.3633 18.1457 10.2777 18.0304 10.1936 18.0304C10.1665 18.0304 10.0912 17.9735 10.0262 17.904C9.96133 17.8345 9.88204 17.7776 9.85015 17.7776C9.81822 17.7776 9.76476 17.7397 9.73135 17.6934C9.69795 17.647 9.64449 17.6091 9.61256 17.6091C9.58066 17.6091 9.50138 17.5522 9.43646 17.4827C9.37155 17.4132 9.29226 17.3564 9.26037 17.3564C9.22844 17.3564 9.17498 17.3184 9.14157 17.2721C9.10817 17.2258 9.05471 17.1878 9.02278 17.1878C8.99089 17.1878 8.9116 17.131 8.84669 17.0615C8.78177 16.992 8.70249 16.9351 8.67059 16.9351C8.63866 16.9351 8.5852 16.8972 8.5518 16.8508C8.51839 16.8045 8.46493 16.7666 8.433 16.7666C8.40111 16.7666 8.32182 16.7097 8.25691 16.6402C8.19199 16.5707 8.11271 16.5138 8.08082 16.5138C8.04888 16.5138 7.99542 16.4759 7.96202 16.4296C7.92861 16.3832 7.87174 16.3453 7.83564 16.3453C7.79953 16.3453 7.74266 16.3074 7.70925 16.261C7.67585 16.2147 7.62239 16.1768 7.59046 16.1768C7.55857 16.1768 7.47928 16.1199 7.41436 16.0504C7.34945 15.9809 7.27362 15.924 7.24586 15.924C7.21809 15.924 7.14227 15.8672 7.07735 15.7977C7.01243 15.7281 6.93315 15.6713 6.90126 15.6713C6.86933 15.6713 6.81587 15.6334 6.78246 15.587C6.74905 15.5407 6.69559 15.5028 6.66366 15.5028C6.63177 15.5028 6.55249 15.4459 6.48757 15.3764C6.42265 15.3069 6.34337 15.25 6.31148 15.25C6.27955 15.25 6.22609 15.2121 6.19268 15.1657C6.15927 15.1194 6.1024 15.0815 6.0663 15.0815C6.0302 15.0815 5.97332 15.0436 5.93992 14.9972C5.90651 14.9509 5.85305 14.913 5.82112 14.913C5.78923 14.913 5.70995 14.8561 5.64503 14.7866C5.58011 14.7171 5.50428 14.6602 5.47652 14.6602C5.44876 14.6602 5.37293 14.6033 5.30801 14.5338C5.24309 14.4643 5.15964 14.4075 5.12261 14.4075C5.08554 14.4075 5.05525 14.3885 5.05525 14.3653C5.05525 14.3422 5.0215 14.3232 4.9803 14.3232C4.93906 14.3232 4.87802 14.2853 4.84461 14.239C4.76967 14.135 4.76179 14.1358 4.64451 14.2611ZM38.8938 17.674C38.8132 17.7584 38.7569 17.8612 38.7569 17.9239C38.7569 17.9824 38.7379 18.0304 38.7148 18.0304C38.6898 18.0304 38.6727 18.1837 38.6727 18.406C38.6727 18.6653 38.6563 18.7893 38.62 18.8062C38.5779 18.8259 38.5779 18.8357 38.62 18.8554C38.6872 18.8867 38.6976 21.232 38.6305 21.232C38.6074 21.232 38.5884 21.2889 38.5884 21.3584C38.5884 21.4279 38.6074 21.4848 38.6305 21.4848C38.6576 21.4848 38.6727 21.9061 38.6727 22.6644C38.6727 23.4227 38.6576 23.8439 38.6305 23.8439C38.6074 23.8439 38.5884 23.8818 38.5884 23.9282C38.5884 23.9745 38.6074 24.0124 38.6305 24.0124C38.6575 24.0124 38.6727 24.3916 38.6727 25.0656C38.6727 25.7396 38.6575 26.1188 38.6305 26.1188C38.6074 26.1188 38.5884 26.1757 38.5884 26.2452C38.5884 26.3147 38.6074 26.3715 38.6305 26.3715C38.6974 26.3715 38.6871 28.4642 38.62 28.4955C38.5779 28.5151 38.5779 28.525 38.62 28.5446C38.6872 28.5759 38.6976 30.9213 38.6305 30.9213C38.6071 30.9213 38.5884 31.0336 38.5884 31.174C38.5884 31.3144 38.6071 31.4268 38.6305 31.4268C38.6573 31.4268 38.6727 31.7638 38.6727 32.3536C38.6727 32.9434 38.6573 33.2804 38.6305 33.2804C38.6065 33.2804 38.5884 33.4068 38.5884 33.5753C38.5884 33.7438 38.6065 33.8702 38.6305 33.8702C38.6574 33.8702 38.6727 34.2353 38.6727 34.8812C38.6727 35.5271 38.6574 35.8923 38.6305 35.8923C38.6074 35.8923 38.5884 35.9871 38.5884 36.1029C38.5884 36.2188 38.6074 36.3135 38.6305 36.3135C38.6976 36.3135 38.6872 38.6589 38.62 38.6902C38.5779 38.7099 38.5779 38.7197 38.62 38.7393C38.687 38.7706 38.6974 40.779 38.6305 40.779C38.6074 40.779 38.5884 40.8738 38.5884 40.9896C38.5884 41.1055 38.6074 41.2003 38.6305 41.2003C38.6571 41.2003 38.6727 41.4811 38.6727 41.9586C38.6727 42.436 38.6882 42.7169 38.7148 42.7169C38.7379 42.7169 38.7569 42.7649 38.7569 42.8236C38.7569 42.9422 39.0074 43.2224 39.1136 43.2224C39.1491 43.2224 39.1782 43.2413 39.1782 43.2645C39.1782 43.2922 40.1611 43.3066 42.0428 43.3066C43.9245 43.3066 44.9075 43.2922 44.9075 43.2645C44.9075 43.2413 44.9367 43.2224 44.9725 43.2224C45.0568 43.2224 45.2445 43.0347 45.2445 42.9504C45.2445 42.9146 45.2634 42.8854 45.2866 42.8854C45.3098 42.8854 45.3287 42.8285 45.3287 42.759C45.3287 42.6895 45.3477 42.6326 45.3709 42.6326C45.3988 42.6326 45.413 38.5182 45.413 30.3736C45.413 22.2291 45.3988 18.1146 45.3709 18.1146C45.3477 18.1146 45.3287 18.0767 45.3287 18.0304C45.3287 17.984 45.3098 17.9461 45.2866 17.9461C45.2634 17.9461 45.2445 17.9082 45.2445 17.8619C45.2445 17.8155 45.2255 17.7776 45.2024 17.7776C45.1792 17.7776 45.1602 17.7397 45.1602 17.6934C45.1602 17.6372 45.1321 17.6091 45.076 17.6091C45.0296 17.6091 44.9917 17.5902 44.9917 17.567C44.9917 17.5393 43.9721 17.5259 42.0112 17.5278L39.0307 17.5306L38.8938 17.674ZM27.3826 23.6333C27.3826 23.6565 27.3533 23.6754 27.3175 23.6754C27.1956 23.6754 27.0456 23.8719 27.0456 24.0316C27.0456 24.1137 27.0266 24.1809 27.0035 24.1809C26.9755 24.1809 26.9613 27.2983 26.9613 33.4489C26.9613 39.5994 26.9755 42.7169 27.0035 42.7169C27.0266 42.7169 27.0456 42.7649 27.0456 42.8236C27.0456 42.9422 27.2961 43.2224 27.4023 43.2224C27.4378 43.2224 27.4669 43.2413 27.4669 43.2645C27.4669 43.2922 28.4639 43.3066 30.3736 43.3066C32.2834 43.3066 33.2804 43.2922 33.2804 43.2645C33.2804 43.2413 33.3097 43.2224 33.3455 43.2224C33.4298 43.2224 33.6174 43.0347 33.6174 42.9504C33.6174 42.9146 33.6364 42.8854 33.6595 42.8854C33.6827 42.8854 33.7017 42.8095 33.7017 42.7169C33.7017 42.6242 33.7206 42.5483 33.7438 42.5483C33.7718 42.5483 33.7859 39.4731 33.7859 33.4068C33.7859 27.3405 33.7718 24.2652 33.7438 24.2652C33.7206 24.2652 33.7017 24.1983 33.7017 24.1167C33.7017 23.9969 33.6651 23.9315 33.5132 23.7796L33.3247 23.5912H30.3537C28.401 23.5912 27.3826 23.6056 27.3826 23.6333ZM15.4712 30.3964L15.3343 30.5397V36.735V42.9303L15.4803 43.0763C15.5606 43.1567 15.6554 43.2224 15.6909 43.2224C15.7265 43.2224 15.7555 43.2413 15.7555 43.2645C15.7555 43.2922 16.7525 43.3066 18.6623 43.3066C20.572 43.3066 21.5691 43.2922 21.5691 43.2645C21.5691 43.2413 21.6171 43.2224 21.6758 43.2224C21.7414 43.2224 21.8388 43.1661 21.9285 43.0763L22.0746 42.9303V36.7573C22.0746 32.67 22.0603 30.5843 22.0325 30.5843C22.0093 30.5843 21.9903 30.555 21.9903 30.5192C21.9903 30.4834 21.9438 30.4075 21.8869 30.3507L21.7835 30.2472L18.6958 30.2501L15.6081 30.253L15.4712 30.3964ZM7.91989 38.5463C7.91989 38.5694 7.8251 38.5884 7.70925 38.5884C7.5934 38.5884 7.49862 38.6074 7.49862 38.6305C7.49862 38.6537 7.44175 38.6727 7.37224 38.6727C7.30273 38.6727 7.24586 38.6916 7.24586 38.7148C7.24586 38.7382 7.1335 38.7569 6.99309 38.7569C6.85268 38.7569 6.74033 38.7756 6.74033 38.799C6.74033 38.8222 6.64555 38.8412 6.5297 38.8412C6.41385 38.8412 6.31906 38.8601 6.31906 38.8833C6.31906 38.9065 6.26219 38.9254 6.19268 38.9254C6.12317 38.9254 6.0663 38.9444 6.0663 38.9675C6.0663 38.9907 5.97151 39.0097 5.85566 39.0097C5.73981 39.0097 5.64503 39.0286 5.64503 39.0518C5.64503 39.075 5.55024 39.0939 5.43439 39.0939C5.31854 39.0939 5.22376 39.1129 5.22376 39.1361C5.22376 39.1592 5.14793 39.1782 5.05525 39.1782C4.96257 39.1782 4.88674 39.1971 4.88674 39.2203C4.88674 39.2435 4.81091 39.2624 4.71823 39.2624C4.62555 39.2624 4.54972 39.2814 4.54972 39.3046C4.54972 39.328 4.43737 39.3467 4.29696 39.3467C4.15655 39.3467 4.0442 39.3654 4.0442 39.3888C4.0442 39.412 3.98733 39.4309 3.91782 39.4309C3.84831 39.4309 3.79144 39.4499 3.79144 39.4731C3.79144 39.4962 3.69665 39.5152 3.5808 39.5152C3.46495 39.5152 3.37017 39.5342 3.37017 39.5573C3.37017 39.5807 3.25781 39.5994 3.1174 39.5994C2.97699 39.5994 2.86464 39.6182 2.86464 39.6416C2.86464 39.6647 2.80777 39.6837 2.73826 39.6837C2.66875 39.6837 2.61188 39.7027 2.61188 39.7258C2.61188 39.749 2.53605 39.768 2.44337 39.768C2.35069 39.768 2.27486 39.7869 2.27486 39.8101C2.27486 39.8335 2.16251 39.8522 2.0221 39.8522C1.88169 39.8522 1.76934 39.8709 1.76934 39.8943C1.76934 39.9175 1.71247 39.9365 1.64296 39.9365C1.5306 39.9365 1.51657 39.9505 1.51657 40.0628C1.51657 40.1324 1.53553 40.1892 1.5587 40.1892C1.58187 40.1892 1.60083 40.2461 1.60083 40.3156C1.60083 40.3851 1.61979 40.442 1.64296 40.442C1.66613 40.442 1.68508 40.4799 1.68508 40.5262C1.68508 40.5726 1.70404 40.6105 1.72721 40.6105C1.75038 40.6105 1.76934 40.6863 1.76934 40.779C1.76934 40.8717 1.78829 40.9475 1.81146 40.9475C1.83463 40.9475 1.85359 40.9854 1.85359 41.0318C1.85359 41.0781 1.87255 41.116 1.89572 41.116C1.91889 41.116 1.93785 41.1729 1.93785 41.2424C1.93785 41.3119 1.9568 41.3688 1.97997 41.3688C2.00314 41.3688 2.0221 41.4067 2.0221 41.453C2.0221 41.4994 2.04106 41.5373 2.06423 41.5373C2.0874 41.5373 2.10635 41.5942 2.10635 41.6637C2.10635 41.7332 2.12531 41.7901 2.14848 41.7901C2.17165 41.7901 2.19061 41.828 2.19061 41.8743C2.19061 41.9207 2.20956 41.9586 2.23273 41.9586C2.2559 41.9586 2.27486 42.0154 2.27486 42.0849C2.27486 42.1545 2.29382 42.2113 2.31699 42.2113C2.34016 42.2113 2.35912 42.264 2.35912 42.3284C2.35912 42.3972 2.39391 42.4705 2.44337 42.5062C2.49283 42.5419 2.52762 42.6153 2.52762 42.684C2.52762 42.7484 2.54658 42.8011 2.56975 42.8011C2.59292 42.8011 2.61188 42.839 2.61188 42.8854C2.61188 42.9317 2.63084 42.9696 2.65401 42.9696C2.67718 42.9696 2.69613 43.0075 2.69613 43.0539C2.69613 43.1002 2.71509 43.1381 2.73826 43.1381C2.76143 43.1381 2.78039 43.176 2.78039 43.2224C2.78039 43.2687 2.79934 43.3066 2.82251 43.3066C2.84568 43.3066 2.86464 43.3635 2.86464 43.433C2.86464 43.5025 2.8836 43.5594 2.90677 43.5594C2.92994 43.5594 2.94889 43.5973 2.94889 43.6436C2.94889 43.69 2.96785 43.7279 2.99102 43.7279C3.01419 43.7279 3.03315 43.7658 3.03315 43.8122C3.03315 43.8585 3.05211 43.8964 3.07528 43.8964C3.09845 43.8964 3.1174 43.9343 3.1174 43.9807C3.1174 44.027 3.13636 44.0649 3.15953 44.0649C3.1827 44.0649 3.20166 44.1028 3.20166 44.1492C3.20166 44.1955 3.22061 44.2334 3.24378 44.2334C3.26695 44.2334 3.28591 44.2713 3.28591 44.3177C3.28591 44.364 3.30487 44.4019 3.32804 44.4019C3.35121 44.4019 3.37017 44.4398 3.37017 44.4862C3.37017 44.5325 3.38912 44.5704 3.41229 44.5704C3.43546 44.5704 3.45442 44.6042 3.45442 44.6454C3.45442 44.6866 3.49233 44.7477 3.53867 44.7811C3.58501 44.8145 3.62293 44.8755 3.62293 44.9168C3.62293 44.958 3.64189 44.9917 3.66506 44.9917C3.68823 44.9917 3.70718 45.0296 3.70718 45.076C3.70718 45.1223 3.72614 45.1602 3.74931 45.1602C3.77248 45.1602 3.79144 45.1981 3.79144 45.2445C3.79144 45.2908 3.81039 45.3287 3.83356 45.3287C3.85673 45.3287 3.87569 45.3666 3.87569 45.413C3.87569 45.4593 3.89465 45.4972 3.91782 45.4972C3.94099 45.4972 3.95994 45.531 3.95994 45.5722C3.95994 45.6134 3.99786 45.6745 4.0442 45.7079C4.09054 45.7413 4.12845 45.8023 4.12845 45.8436C4.12845 45.8848 4.14741 45.9185 4.17058 45.9185C4.19375 45.9185 4.21271 45.9523 4.21271 45.9935C4.21271 46.0347 4.25062 46.0957 4.29696 46.1291C4.3433 46.1626 4.38122 46.2236 4.38122 46.2648C4.38122 46.306 4.40017 46.3398 4.42334 46.3398C4.44651 46.3398 4.46547 46.3735 4.46547 46.4147C4.46547 46.456 4.50338 46.517 4.54972 46.5504C4.59606 46.5838 4.63398 46.6407 4.63398 46.6768C4.63398 46.7129 4.67189 46.7698 4.71823 46.8032C4.76457 46.8366 4.80249 46.8935 4.80249 46.9296C4.80249 46.9657 4.8404 47.0225 4.88674 47.0559C4.93308 47.0893 4.97099 47.1504 4.97099 47.1916C4.97099 47.2328 4.98995 47.2666 5.01312 47.2666C5.03629 47.2666 5.05525 47.3003 5.05525 47.3415C5.05525 47.3828 5.09316 47.4438 5.1395 47.4772C5.18584 47.5106 5.22376 47.5641 5.22376 47.596C5.22376 47.6279 5.28063 47.7072 5.35014 47.7721C5.41965 47.837 5.47652 47.9128 5.47652 47.9406C5.47652 47.9684 5.53339 48.0442 5.6029 48.1091C5.67241 48.174 5.72928 48.2575 5.72928 48.2945C5.72928 48.3316 5.74824 48.3619 5.77141 48.3619C5.79458 48.3619 5.81354 48.3918 5.81354 48.4284C5.81354 48.465 5.88936 48.5677 5.98204 48.6568C6.07472 48.7458 6.15055 48.841 6.15055 48.8682C6.15055 48.8955 6.20742 48.971 6.27693 49.0359C6.34644 49.1008 6.40332 49.1763 6.40332 49.2036C6.40332 49.2308 6.47914 49.326 6.57182 49.4151C6.6645 49.5041 6.74033 49.5989 6.74033 49.6257C6.74033 49.6525 6.81616 49.7473 6.90884 49.8363C7.00152 49.9254 7.07735 50.0196 7.07735 50.0457C7.07735 50.0718 7.21005 50.224 7.37224 50.384C7.53443 50.5439 7.66713 50.6948 7.66713 50.7191C7.66713 50.7775 10.3074 53.4171 10.3658 53.4171C10.3906 53.4171 10.5032 53.5119 10.616 53.6278C10.7289 53.7436 10.8426 53.8384 10.8688 53.8384C10.8949 53.8384 11.0087 53.9332 11.1215 54.049C11.2344 54.1649 11.3484 54.2597 11.3749 54.2597C11.4014 54.2597 11.4959 54.3355 11.5849 54.4282C11.674 54.5209 11.7692 54.5967 11.7964 54.5967C11.8237 54.5967 11.8992 54.6536 11.9641 54.7231C12.029 54.7926 12.1048 54.8494 12.1326 54.8494C12.1604 54.8494 12.2362 54.9063 12.3011 54.9758C12.366 55.0453 12.4453 55.1022 12.4772 55.1022C12.5091 55.1022 12.5626 55.1401 12.596 55.1865C12.6294 55.2328 12.6829 55.2707 12.7148 55.2707C12.7467 55.2707 12.826 55.3276 12.8909 55.3971C12.9558 55.4666 13.0351 55.5235 13.067 55.5235C13.0989 55.5235 13.1524 55.5614 13.1858 55.6077C13.2192 55.6541 13.2761 55.692 13.3122 55.692C13.3483 55.692 13.4051 55.7299 13.4385 55.7762C13.4719 55.8226 13.5288 55.8605 13.5649 55.8605C13.601 55.8605 13.6579 55.8984 13.6913 55.9448C13.7247 55.9911 13.7816 56.029 13.8177 56.029C13.8538 56.029 13.9107 56.0669 13.9441 56.1133C13.9775 56.1596 14.0343 56.1975 14.0704 56.1975C14.1065 56.1975 14.1634 56.2354 14.1968 56.2818C14.2302 56.3281 14.2871 56.366 14.3232 56.366C14.3593 56.366 14.4162 56.4039 14.4496 56.4503C14.483 56.4966 14.544 56.5345 14.5853 56.5345C14.6265 56.5345 14.6602 56.5535 14.6602 56.5767C14.6602 56.5998 14.694 56.6188 14.7352 56.6188C14.7764 56.6188 14.8375 56.6567 14.8709 56.703C14.9043 56.7494 14.9653 56.7873 15.0065 56.7873C15.0477 56.7873 15.0815 56.8063 15.0815 56.8294C15.0815 56.8526 15.1194 56.8715 15.1657 56.8715C15.2121 56.8715 15.25 56.8905 15.25 56.9137C15.25 56.9368 15.2837 56.9558 15.3249 56.9558C15.3662 56.9558 15.4272 56.9937 15.4606 57.0401C15.494 57.0864 15.5551 57.1243 15.5963 57.1243C15.6375 57.1243 15.6713 57.1433 15.6713 57.1664C15.6713 57.1896 15.7092 57.2086 15.7555 57.2086C15.8019 57.2086 15.8398 57.2275 15.8398 57.2507C15.8398 57.2739 15.8777 57.2928 15.924 57.2928C15.9704 57.2928 16.0083 57.3118 16.0083 57.3349C16.0083 57.3581 16.0462 57.3771 16.0925 57.3771C16.1389 57.3771 16.1768 57.396 16.1768 57.4192C16.1768 57.4424 16.2105 57.4613 16.2517 57.4613C16.293 57.4613 16.354 57.4992 16.3874 57.5456C16.4208 57.5919 16.4819 57.6298 16.5231 57.6298C16.5643 57.6298 16.5981 57.6488 16.5981 57.672C16.5981 57.6951 16.6508 57.7141 16.7151 57.7141C16.7839 57.7141 16.8573 57.7489 16.893 57.7983C16.9264 57.8447 16.9874 57.8826 17.0286 57.8826C17.0698 57.8826 17.1036 57.9016 17.1036 57.9247C17.1036 57.9479 17.1563 57.9669 17.2207 57.9669C17.2894 57.9669 17.3628 58.0016 17.3985 58.0511C17.4319 58.0974 17.4929 58.1354 17.5342 58.1354C17.5754 58.1354 17.6091 58.1543 17.6091 58.1775C17.6091 58.2007 17.666 58.2196 17.7355 58.2196C17.805 58.2196 17.8619 58.2386 17.8619 58.2617C17.8619 58.2849 17.8998 58.3039 17.9461 58.3039C17.9925 58.3039 18.0304 58.3228 18.0304 58.346C18.0304 58.3692 18.0683 58.3881 18.1146 58.3881C18.161 58.3881 18.1989 58.4071 18.1989 58.4302C18.1989 58.4534 18.2558 58.4724 18.3253 58.4724C18.3948 58.4724 18.4517 58.4913 18.4517 58.5145C18.4517 58.5377 18.4896 58.5566 18.5359 58.5566C18.5823 58.5566 18.6202 58.5756 18.6202 58.5988C18.6202 58.6219 18.6581 58.6409 18.7044 58.6409C18.7508 58.6409 18.7887 58.6598 18.7887 58.683C18.7887 58.7062 18.8455 58.7251 18.9151 58.7251C18.9846 58.7251 19.0414 58.7441 19.0414 58.7673C19.0414 58.7904 19.0941 58.8094 19.1585 58.8094C19.2273 58.8094 19.3006 58.8442 19.3363 58.8936C19.372 58.9431 19.4454 58.9779 19.5141 58.9779C19.5785 58.9779 19.6312 58.9969 19.6312 59.02C19.6312 59.0432 19.6881 59.0622 19.7576 59.0622C19.8271 59.0622 19.884 59.0811 19.884 59.1043C19.884 59.1275 19.9219 59.1464 19.9682 59.1464C20.0146 59.1464 20.0525 59.1654 20.0525 59.1885C20.0525 59.2117 20.1094 59.2307 20.1789 59.2307C20.2484 59.2307 20.3052 59.2496 20.3052 59.2728C20.3052 59.296 20.3811 59.3149 20.4738 59.3149C20.5664 59.3149 20.6423 59.3339 20.6423 59.357C20.6423 59.3802 20.6802 59.3992 20.7265 59.3992C20.7729 59.3992 20.8108 59.4181 20.8108 59.4413C20.8108 59.4645 20.8866 59.4834 20.9793 59.4834C21.072 59.4834 21.1478 59.5024 21.1478 59.5256C21.1478 59.5487 21.2047 59.5677 21.2742 59.5677C21.3437 59.5677 21.4006 59.5866 21.4006 59.6098C21.4006 59.633 21.4385 59.6519 21.4848 59.6519C21.5311 59.6519 21.5691 59.6709 21.5691 59.6941C21.5691 59.7172 21.6449 59.7362 21.7376 59.7362C21.8302 59.7362 21.9061 59.7551 21.9061 59.7783C21.9061 59.8015 21.9819 59.8204 22.0746 59.8204C22.1673 59.8204 22.2431 59.8394 22.2431 59.8626C22.2431 59.8857 22.3 59.9047 22.3695 59.9047C22.439 59.9047 22.4959 59.9237 22.4959 59.9468C22.4959 59.97 22.5717 59.989 22.6644 59.989C22.757 59.989 22.8329 60.0079 22.8329 60.0311C22.8329 60.0542 22.9277 60.0732 23.0435 60.0732C23.1594 60.0732 23.2541 60.0922 23.2541 60.1153C23.2541 60.1385 23.311 60.1575 23.3805 60.1575C23.45 60.1575 23.5069 60.1764 23.5069 60.1996C23.5069 60.2228 23.5827 60.2417 23.6754 60.2417C23.7681 60.2417 23.8439 60.2607 23.8439 60.2838C23.8439 60.3073 23.9563 60.326 24.0967 60.326C24.2371 60.326 24.3494 60.3447 24.3494 60.3681C24.3494 60.3913 24.4253 60.4102 24.518 60.4102C24.6106 60.4102 24.6865 60.4292 24.6865 60.4524C24.6865 60.4758 24.7988 60.4945 24.9392 60.4945C25.0796 60.4945 25.192 60.5132 25.192 60.5366C25.192 60.56 25.3043 60.5787 25.4448 60.5787C25.5852 60.5787 25.6975 60.5974 25.6975 60.6209C25.6975 60.6834 25.8211 60.6718 25.8901 60.6028C25.9339 60.559 25.9503 60.4327 25.9503 60.1394C25.9503 59.8987 25.9673 59.7362 25.9924 59.7362C26.0185 59.7362 26.0345 59.5115 26.0345 59.1464C26.0345 58.7813 26.0506 58.5566 26.0767 58.5566C26.1019 58.5566 26.1188 58.3881 26.1188 58.1354C26.1188 57.8826 26.1356 57.7141 26.1609 57.7141C26.1868 57.7141 26.203 57.5035 26.203 57.1664C26.203 56.8294 26.2193 56.6188 26.2452 56.6188C26.2711 56.6188 26.2873 56.4081 26.2873 56.0711C26.2873 55.7341 26.3035 55.5235 26.3294 55.5235C26.3549 55.5235 26.3715 55.3409 26.3715 55.0601C26.3715 54.7792 26.3881 54.5967 26.4137 54.5967C26.4392 54.5967 26.4558 54.4142 26.4558 54.1333V53.6699H26.3294C26.2599 53.6699 26.203 53.6509 26.203 53.6278C26.203 53.6046 26.1083 53.5856 25.9924 53.5856C25.8766 53.5856 25.7818 53.5667 25.7818 53.5435C25.7818 53.5203 25.7059 53.5014 25.6133 53.5014C25.5206 53.5014 25.4448 53.4824 25.4448 53.4593C25.4448 53.4361 25.35 53.4171 25.2341 53.4171C25.1183 53.4171 25.0235 53.3982 25.0235 53.375C25.0235 53.3518 24.9477 53.3329 24.855 53.3329C24.7623 53.3329 24.6865 53.3139 24.6865 53.2907C24.6865 53.2676 24.6296 53.2486 24.5601 53.2486C24.4906 53.2486 24.4337 53.2297 24.4337 53.2065C24.4337 53.1833 24.3579 53.1644 24.2652 53.1644C24.1725 53.1644 24.0967 53.1454 24.0967 53.1222C24.0967 53.0991 24.0209 53.0801 23.9282 53.0801C23.8355 53.0801 23.7597 53.0612 23.7597 53.038C23.7597 53.0148 23.7218 52.9959 23.6754 52.9959C23.6291 52.9959 23.5912 52.9769 23.5912 52.9537C23.5912 52.9306 23.5153 52.9116 23.4227 52.9116C23.33 52.9116 23.2541 52.8926 23.2541 52.8695C23.2541 52.8463 23.1783 52.8274 23.0856 52.8274C22.993 52.8274 22.9171 52.8084 22.9171 52.7852C22.9171 52.7621 22.8792 52.7431 22.8329 52.7431C22.7865 52.7431 22.7486 52.7241 22.7486 52.701C22.7486 52.6778 22.6917 52.6588 22.6222 52.6588C22.5527 52.6588 22.4959 52.6399 22.4959 52.6167C22.4959 52.5935 22.439 52.5746 22.3695 52.5746C22.3 52.5746 22.2431 52.5556 22.2431 52.5325C22.2431 52.5093 22.2052 52.4903 22.1588 52.4903C22.1125 52.4903 22.0746 52.4714 22.0746 52.4482C22.0746 52.425 22.0177 52.4061 21.9482 52.4061C21.8787 52.4061 21.8218 52.3871 21.8218 52.364C21.8218 52.3408 21.7839 52.3218 21.7376 52.3218C21.6912 52.3218 21.6533 52.3029 21.6533 52.2797C21.6533 52.2565 21.5964 52.2376 21.5269 52.2376C21.4574 52.2376 21.4006 52.2186 21.4006 52.1954C21.4006 52.1723 21.3626 52.1533 21.3163 52.1533C21.27 52.1533 21.232 52.1344 21.232 52.1112C21.232 52.088 21.1752 52.0691 21.1057 52.0691C21.0362 52.0691 20.9793 52.0501 20.9793 52.0269C20.9793 52.0038 20.9414 51.9848 20.895 51.9848C20.8487 51.9848 20.8108 51.9659 20.8108 51.9427C20.8108 51.9195 20.7729 51.9006 20.7265 51.9006C20.6802 51.9006 20.6423 51.8816 20.6423 51.8584C20.6423 51.8353 20.6044 51.8163 20.558 51.8163C20.5117 51.8163 20.4738 51.7973 20.4738 51.7742C20.4738 51.751 20.4358 51.732 20.3895 51.732C20.3432 51.732 20.3052 51.7131 20.3052 51.6899C20.3052 51.6667 20.2673 51.6478 20.221 51.6478C20.1747 51.6478 20.1367 51.6288 20.1367 51.6057C20.1367 51.5825 20.0988 51.5635 20.0525 51.5635C20.0061 51.5635 19.9682 51.5446 19.9682 51.5214C19.9682 51.4982 19.9303 51.4793 19.884 51.4793C19.8376 51.4793 19.7997 51.4603 19.7997 51.4372C19.7997 51.414 19.7618 51.395 19.7155 51.395C19.6691 51.395 19.6312 51.3761 19.6312 51.3529C19.6312 51.3297 19.5933 51.3108 19.547 51.3108C19.5006 51.3108 19.4627 51.2918 19.4627 51.2686C19.4627 51.2455 19.4248 51.2265 19.3785 51.2265C19.3321 51.2265 19.2942 51.2076 19.2942 51.1844C19.2942 51.1612 19.2605 51.1423 19.2193 51.1423C19.178 51.1423 19.117 51.1044 19.0836 51.058C19.0502 51.0117 18.9891 50.9738 18.9479 50.9738C18.9067 50.9738 18.8729 50.9548 18.8729 50.9316C18.8729 50.9085 18.8392 50.8895 18.798 50.8895C18.7567 50.8895 18.6957 50.8516 18.6623 50.8052C18.6289 50.7589 18.5678 50.721 18.5266 50.721C18.4854 50.721 18.4517 50.702 18.4517 50.6789C18.4517 50.6557 18.4179 50.6367 18.3767 50.6367C18.3355 50.6367 18.2744 50.5988 18.241 50.5525C18.2076 50.5061 18.1466 50.4682 18.1053 50.4682C18.0641 50.4682 18.0304 50.4493 18.0304 50.4261C18.0304 50.4029 17.9966 50.384 17.9554 50.384C17.9142 50.384 17.8532 50.3461 17.8198 50.2997C17.7863 50.2534 17.7295 50.2155 17.6934 50.2155C17.6573 50.2155 17.6004 50.1776 17.567 50.1312C17.5336 50.0849 17.4767 50.047 17.4406 50.047C17.4045 50.047 17.3476 50.009 17.3142 49.9627C17.2808 49.9164 17.2239 49.8785 17.1878 49.8785C17.1517 49.8785 17.0949 49.8405 17.0615 49.7942C17.0281 49.7479 16.9746 49.7099 16.9427 49.7099C16.9108 49.7099 16.8315 49.6531 16.7666 49.5836C16.7017 49.5141 16.6224 49.4572 16.5905 49.4572C16.5586 49.4572 16.5051 49.4193 16.4717 49.3729C16.4383 49.3266 16.3852 49.2887 16.3538 49.2887C16.3223 49.2887 16.2237 49.2128 16.1347 49.1202C16.0456 49.0275 15.9511 48.9517 15.9246 48.9517C15.8981 48.9517 15.7841 48.8569 15.6713 48.741C15.5584 48.6252 15.4447 48.5304 15.4185 48.5304C15.3923 48.5304 15.2786 48.4356 15.1657 48.3198C15.0529 48.2039 14.9403 48.1091 14.9155 48.1091C14.8568 48.1091 12.9751 46.2278 12.9751 46.1692C12.9751 46.1446 12.8614 46.0128 12.7224 45.8764C12.5834 45.7399 12.4696 45.6071 12.4696 45.5811C12.4696 45.5551 12.3748 45.4416 12.259 45.3287C12.1431 45.2159 12.0483 45.1019 12.0483 45.0754C12.0483 45.0489 11.9725 44.9544 11.8798 44.8653C11.7872 44.7763 11.7113 44.6811 11.7113 44.6539C11.7113 44.6266 11.6545 44.5511 11.5849 44.4862C11.5154 44.4213 11.4586 44.3454 11.4586 44.3177C11.4586 44.2899 11.4017 44.2141 11.3322 44.1492C11.2627 44.0843 11.2058 44.0008 11.2058 43.9638C11.2058 43.9267 11.1868 43.8964 11.1637 43.8964C11.1405 43.8964 11.1215 43.8661 11.1215 43.829C11.1215 43.792 11.0647 43.7086 10.9952 43.6436C10.9257 43.5787 10.8688 43.4994 10.8688 43.4676C10.8688 43.4356 10.8309 43.3822 10.7845 43.3488C10.7382 43.3153 10.7003 43.2543 10.7003 43.2131C10.7003 43.1719 10.6813 43.1381 10.6581 43.1381C10.635 43.1381 10.616 43.1044 10.616 43.0632C10.616 43.0219 10.5781 42.9609 10.5318 42.9275C10.4854 42.8941 10.4475 42.833 10.4475 42.7918C10.4475 42.7506 10.4286 42.7169 10.4054 42.7169C10.3822 42.7169 10.3633 42.6789 10.3633 42.6326C10.3633 42.5863 10.3443 42.5483 10.3211 42.5483C10.298 42.5483 10.279 42.5146 10.279 42.4734C10.279 42.4322 10.2411 42.3711 10.1948 42.3377C10.1484 42.3043 10.1105 42.2433 10.1105 42.202C10.1105 42.1608 10.0915 42.1271 10.0684 42.1271C10.0452 42.1271 10.0262 42.0933 10.0262 42.0521C10.0262 42.0109 9.98833 41.9498 9.94199 41.9164C9.89565 41.883 9.85773 41.822 9.85773 41.7807C9.85773 41.7395 9.83878 41.7058 9.81561 41.7058C9.79244 41.7058 9.77348 41.6679 9.77348 41.6215C9.77348 41.5752 9.75452 41.5373 9.73135 41.5373C9.70818 41.5373 9.68923 41.4994 9.68923 41.453C9.68923 41.4067 9.67027 41.3688 9.6471 41.3688C9.62393 41.3688 9.60497 41.3309 9.60497 41.2845C9.60497 41.2382 9.58602 41.2003 9.56285 41.2003C9.53968 41.2003 9.52072 41.1624 9.52072 41.116C9.52072 41.0697 9.50176 41.0318 9.47859 41.0318C9.45542 41.0318 9.43646 40.9939 9.43646 40.9475C9.43646 40.9012 9.41751 40.8633 9.39434 40.8633C9.37117 40.8633 9.35221 40.8253 9.35221 40.779C9.35221 40.7327 9.33325 40.6948 9.31008 40.6948C9.28691 40.6948 9.26796 40.6568 9.26796 40.6105C9.26796 40.5642 9.249 40.5262 9.22583 40.5262C9.20266 40.5262 9.1837 40.4883 9.1837 40.442C9.1837 40.3956 9.16474 40.3577 9.14157 40.3577C9.11841 40.3577 9.09945 40.3198 9.09945 40.2735C9.09945 40.2271 9.08049 40.1892 9.05732 40.1892C9.03415 40.1892 9.01519 40.1324 9.01519 40.0628C9.01519 39.9933 8.99624 39.9365 8.97307 39.9365C8.9499 39.9365 8.93094 39.8986 8.93094 39.8522C8.93094 39.8059 8.91198 39.768 8.88881 39.768C8.86564 39.768 8.84669 39.73 8.84669 39.6837C8.84669 39.6374 8.82773 39.5994 8.80456 39.5994C8.78139 39.5994 8.76243 39.5426 8.76243 39.4731C8.76243 39.4036 8.74347 39.3467 8.7203 39.3467C8.69713 39.3467 8.67818 39.3088 8.67818 39.2624C8.67818 39.2161 8.65922 39.1782 8.63605 39.1782C8.61288 39.1782 8.59392 39.1403 8.59392 39.0939C8.59392 39.0476 8.57497 39.0097 8.5518 39.0097C8.52863 39.0097 8.50967 38.9528 8.50967 38.8833C8.50967 38.8138 8.49071 38.7569 8.46754 38.7569C8.44437 38.7569 8.42542 38.7 8.42542 38.6305V38.5041H8.17265C8.03224 38.5041 7.91989 38.5229 7.91989 38.5463Z" fill="#FF537B"/>
</svg>
