<svg width="77" height="83" viewBox="0 0 77 83" fill="none" xmlns="http://www.w3.org/2000/svg">
<path d="M38.5 0L77 19.1538V27.6667H0V19.1538L38.5 0ZM55.6111 31.9231H72.7222V65.9744H55.6111V31.9231ZM0 83V70.2308H77V83H0ZM29.9444 31.9231H47.0556V65.9744H29.9444V31.9231ZM4.27778 31.9231H21.3889V65.9744H4.27778V31.9231ZM4.27778 74.4872V78.7436H72.7222V74.4872H4.27778ZM8.55556 36.1795V61.7179H17.1111V36.1795H8.55556ZM34.2222 36.1795V61.7179H42.7778V36.1795H34.2222ZM59.8889 36.1795V61.7179H68.4444V36.1795H59.8889ZM4.27778 23.4103H72.7222V21.7077L38.5 4.60118L4.27778 21.7119V23.4103Z" fill="#F06988"/>
</svg>
