<svg width="89" height="75" viewBox="0 0 89 75" fill="none" xmlns="http://www.w3.org/2000/svg">
<path d="M82.6103 38.6364L89 45.0455L59.1964 75L43.359 59.0909L49.7487 52.6818L59.1964 62.1364L82.6103 38.6364ZM36.5128 0C41.3547 0 45.9983 1.91558 49.4221 5.32533C52.8458 8.73508 54.7692 13.3597 54.7692 18.1818C54.7692 23.0039 52.8458 27.6286 49.4221 31.0383C45.9983 34.4481 41.3547 36.3636 36.5128 36.3636C31.6709 36.3636 27.0273 34.4481 23.6036 31.0383C20.1798 27.6286 18.2564 23.0039 18.2564 18.1818C18.2564 13.3597 20.1798 8.73508 23.6036 5.32533C27.0273 1.91558 31.6709 0 36.5128 0ZM36.5128 9.09091C34.0919 9.09091 31.7701 10.0487 30.0582 11.7536C28.3463 13.4585 27.3846 15.7708 27.3846 18.1818C27.3846 20.5929 28.3463 22.9052 30.0582 24.6101C31.7701 26.3149 34.0919 27.2727 36.5128 27.2727C38.9338 27.2727 41.2556 26.3149 42.9674 24.6101C44.6793 22.9052 45.641 20.5929 45.641 18.1818C45.641 15.7708 44.6793 13.4585 42.9674 11.7536C41.2556 10.0487 38.9338 9.09091 36.5128 9.09091ZM36.5128 40.9091C39.6164 40.9091 43.359 41.3182 47.5123 42.0909L39.8903 49.6818L36.5128 49.5455C22.9574 49.5455 8.6718 56.1818 8.6718 59.0909V64.0909H36.9692L45.641 72.7273H0V59.0909C0 47 24.3267 40.9091 36.5128 40.9091Z" fill="#F06988"/>
</svg>
