<svg width="65" height="72" viewBox="0 0 65 72" fill="none" xmlns="http://www.w3.org/2000/svg">
<path fill-rule="evenodd" clip-rule="evenodd" d="M45.7877 0.388624C45.7877 0.458007 45.7009 0.476591 45.3665 0.478688C44.4192 0.484747 43.5499 0.547547 43.5097 0.612794C43.483 0.656195 43.2009 0.686663 42.711 0.699072C42.148 0.713345 41.9536 0.73723 41.9536 0.792224C41.9536 0.844888 41.7755 0.877045 41.3325 0.904193C40.9353 0.928602 40.6952 0.968566 40.6665 1.015C40.6371 1.06294 40.4231 1.09452 40.0387 1.10774C39.607 1.12254 39.4556 1.14753 39.4556 1.20404C39.4556 1.2602 39.3093 1.28566 38.9016 1.30051C38.4879 1.3156 38.3339 1.34286 38.2938 1.40811C38.2533 1.474 38.0967 1.50045 37.657 1.51554C37.2299 1.53016 37.0739 1.55567 37.0739 1.61067C37.0739 1.66193 36.9526 1.69357 36.6923 1.71017C36.4432 1.72607 36.2927 1.76382 36.2588 1.81894C36.2209 1.88051 36.0571 1.90877 35.6527 1.92351C35.2255 1.93906 35.0987 1.96236 35.0987 2.02545C35.0987 2.08779 35.0028 2.10719 34.695 2.10719C34.3718 2.10719 34.2799 2.1274 34.2347 2.2085C34.19 2.28854 34.0796 2.31429 33.7089 2.33118C33.3567 2.3472 33.2398 2.37278 33.2398 2.43377C33.2398 2.49547 33.1421 2.51498 32.8331 2.51498C32.5257 2.51498 32.4265 2.53462 32.4265 2.59555C32.4265 2.69575 32.2477 2.7462 31.8891 2.74719C31.6923 2.74778 31.6132 2.77131 31.6132 2.82922C31.6132 2.89021 31.4963 2.91579 31.144 2.93181C30.7734 2.9487 30.663 2.97445 30.6183 3.0545C30.5737 3.13442 30.4826 3.1558 30.187 3.1558C29.8927 3.1558 29.8123 3.17456 29.8123 3.24319C29.8123 3.3124 29.7292 3.33057 29.4125 3.33057C29.0614 3.33057 29.0089 3.34479 28.9822 3.44709C28.9569 3.54437 28.903 3.5636 28.656 3.5636C28.4317 3.5636 28.3601 3.58475 28.3601 3.65098C28.3601 3.72182 28.2665 3.73837 27.8663 3.73837C27.4112 3.73837 27.3725 3.74751 27.3725 3.85488C27.3725 3.95584 27.3337 3.97139 27.082 3.97139C26.8626 3.97139 26.7916 3.99277 26.7916 4.05878C26.7916 4.1281 26.7077 4.14616 26.3849 4.14616C26.0774 4.14616 25.9783 4.16579 25.9783 4.22673C25.9783 4.31854 25.804 4.37721 25.5281 4.37837C25.3993 4.37895 25.3393 4.40698 25.3393 4.46657C25.3393 4.5359 25.2554 4.55396 24.9326 4.55396C24.6251 4.55396 24.526 4.57359 24.526 4.63453C24.526 4.72337 24.3533 4.78494 24.1007 4.78617C24.0105 4.78663 23.8975 4.82631 23.8496 4.87437C23.7936 4.93058 23.65 4.96175 23.4471 4.96175C23.2157 4.96175 23.1318 4.98342 23.1318 5.04325C23.1318 5.10133 23.0153 5.1364 22.7251 5.16565C22.435 5.19489 22.3185 5.22996 22.3185 5.28805C22.3185 5.34799 22.234 5.36955 21.999 5.36955C21.7657 5.36955 21.6795 5.39128 21.6795 5.45012C21.6795 5.53843 21.507 5.60053 21.2583 5.60176C21.1554 5.60228 21.0985 5.63368 21.0985 5.68996C21.0985 5.75596 21.0276 5.77734 20.8081 5.77734C20.598 5.77734 20.5176 5.79989 20.5176 5.85884C20.5176 5.91692 20.4012 5.95199 20.111 5.98124C19.8208 6.01048 19.7043 6.04555 19.7043 6.10364C19.7043 6.16259 19.624 6.18514 19.4139 6.18514C19.1944 6.18514 19.1234 6.20652 19.1234 6.27252C19.1234 6.33212 19.0634 6.36014 18.9346 6.36072C18.6587 6.36189 18.4844 6.42055 18.4844 6.51236C18.4844 6.5712 18.3982 6.59293 18.1649 6.59293C17.9196 6.59293 17.8454 6.6132 17.8454 6.68032C17.8454 6.74417 17.7789 6.76793 17.5985 6.76852C17.2676 6.76957 17.0902 6.82246 17.0902 6.92016C17.0902 6.97533 17.0169 7.00073 16.8578 7.00073C16.69 7.00073 16.6255 7.02502 16.6255 7.08811C16.6255 7.15196 16.5589 7.17573 16.3786 7.17631C16.0476 7.17736 15.8703 7.23026 15.8703 7.32795C15.8703 7.44843 15.4835 7.4338 15.4148 7.31077C15.376 7.24115 15.258 7.20556 15.0053 7.18726C14.7547 7.16909 14.6503 7.13786 14.6503 7.08112C14.6503 7.02362 14.5685 7.00073 14.3628 7.00073C14.154 7.00073 14.0602 6.97393 14.0206 6.90297C13.9818 6.83336 13.8638 6.79776 13.6111 6.77947C13.3605 6.76129 13.2561 6.73007 13.2561 6.67333C13.2561 6.61472 13.1695 6.59293 12.9366 6.59293C12.7033 6.59293 12.6171 6.5712 12.6171 6.51236C12.6171 6.42055 12.4428 6.36189 12.1669 6.36072C12.0382 6.36014 11.9781 6.33212 11.9781 6.27252C11.9781 6.20652 11.9071 6.18514 11.6876 6.18514C11.4775 6.18514 11.3972 6.16259 11.3972 6.10364C11.3972 6.04555 11.2807 6.01048 10.9905 5.98124C10.7004 5.95199 10.5839 5.91692 10.5839 5.85884C10.5839 5.7989 10.4994 5.77734 10.2644 5.77734C10.0324 5.77734 9.94488 5.75544 9.94488 5.69747C9.94488 5.64562 9.84299 5.60403 9.65442 5.57892C9.45551 5.55247 9.36396 5.51338 9.36396 5.45495C9.36396 5.38807 9.27578 5.36955 8.95732 5.36955C8.64472 5.36955 8.55067 5.35044 8.55067 5.28682C8.55067 5.22793 8.44163 5.19233 8.17307 5.16349C7.9098 5.13524 7.79548 5.09854 7.79548 5.04238C7.79548 4.98348 7.70927 4.96175 7.47597 4.96175C7.2307 4.96175 7.15646 4.94148 7.15646 4.87437C7.15646 4.81809 7.09965 4.78669 6.99671 4.78617C6.74796 4.78494 6.57554 4.72284 6.57554 4.63453C6.57554 4.57079 6.44187 4.55396 5.93653 4.55396C5.43119 4.55396 5.29752 4.57079 5.29752 4.63453C5.29752 4.72284 5.1251 4.78494 4.87635 4.78617C4.77341 4.78669 4.7166 4.81809 4.7166 4.87437C4.7166 4.93542 4.65525 4.96175 4.51328 4.96175C4.3713 4.96175 4.30995 4.98808 4.30995 5.04914C4.30995 5.0972 4.27655 5.13652 4.23571 5.13652C4.19487 5.13652 4.11674 5.18895 4.06202 5.25303C4.00729 5.31712 3.90999 5.36955 3.8458 5.36955C3.77772 5.36955 3.72903 5.40823 3.72903 5.46241C3.72903 5.51344 3.67675 5.56896 3.61285 5.58568C3.54895 5.60246 3.49667 5.65244 3.49667 5.69677C3.49667 5.74105 3.45745 5.77734 3.40953 5.77734C3.36114 5.77734 3.32239 5.82913 3.32239 5.89385C3.32239 5.95858 3.28364 6.01037 3.23525 6.01037C3.18733 6.01037 3.14811 6.04969 3.14811 6.09775C3.14811 6.14628 3.09647 6.18514 3.03193 6.18514C2.93788 6.18514 2.91575 6.22399 2.91575 6.38903C2.91575 6.52378 2.8885 6.59293 2.8354 6.59293C2.7912 6.59293 2.74135 6.64536 2.72462 6.70944C2.70795 6.77353 2.65259 6.82596 2.6017 6.82596C2.53757 6.82596 2.5091 6.87967 2.5091 7.00073C2.5091 7.11101 2.47936 7.1755 2.42841 7.1755C2.38223 7.1755 2.33146 7.26259 2.30961 7.37939C2.28678 7.50144 2.23752 7.58329 2.18698 7.58329C2.12912 7.58329 2.10246 7.64761 2.10246 7.78719C2.10246 7.92234 2.07527 7.99109 2.02177 7.99109C1.97559 7.99109 1.92481 8.07818 1.90297 8.19498C1.88014 8.31703 1.83088 8.39888 1.78034 8.39888C1.71766 8.39888 1.69581 8.47409 1.69581 8.69016C1.69581 8.91026 1.67449 8.98144 1.60868 8.98144C1.5557 8.98144 1.52154 9.03568 1.52154 9.1198C1.52154 9.38225 1.44869 9.62226 1.36905 9.62226C1.31194 9.62226 1.28917 9.70522 1.28917 9.91355C1.28917 10.1336 1.26785 10.2048 1.20203 10.2048C1.13784 10.2048 1.11489 10.272 1.11489 10.4597C1.11489 10.8306 1.05378 11.0787 0.962402 11.0787C0.902219 11.0787 0.882525 11.1793 0.882525 11.4865C0.882525 11.8101 0.864517 11.8943 0.795387 11.8943C0.726606 11.8943 0.708135 11.977 0.707728 12.2875C0.706973 12.8934 0.646266 13.2924 0.554946 13.2924C0.490464 13.2924 0.475881 13.5502 0.475881 14.6906C0.475881 15.8946 0.463798 16.0887 0.388743 16.0887C0.315431 16.0887 0.301605 16.2182 0.301605 16.9043C0.301605 17.5905 0.315431 17.7199 0.388743 17.7199C0.463856 17.7199 0.475881 17.9173 0.475881 19.1472C0.475881 20.3121 0.490406 20.5745 0.554946 20.5745C0.646266 20.5745 0.706973 20.9735 0.707728 21.5794C0.708135 21.8898 0.726606 21.9726 0.795387 21.9726C0.864517 21.9726 0.882525 22.0567 0.882525 22.3804C0.882525 22.6876 0.902219 22.7882 0.962402 22.7882C1.05122 22.7882 1.11489 23.0345 1.11489 23.3781C1.11489 23.5399 1.13958 23.6038 1.20203 23.6038C1.26895 23.6038 1.28917 23.6783 1.28917 23.9242C1.28917 24.1582 1.31084 24.2446 1.36951 24.2446C1.45758 24.2446 1.51951 24.4175 1.52073 24.667C1.52125 24.7702 1.55256 24.8272 1.60868 24.8272C1.67449 24.8272 1.69581 24.8984 1.69581 25.1185C1.69581 25.3305 1.71812 25.4098 1.77784 25.4098C1.82826 25.4098 1.87503 25.4995 1.89914 25.6428C1.92324 25.786 1.97001 25.8758 2.02043 25.8758C2.07545 25.8758 2.10246 25.9429 2.10246 26.0797C2.10246 26.217 2.12941 26.2836 2.18501 26.2836C2.23038 26.2836 2.28475 26.3622 2.30578 26.4584C2.32681 26.5545 2.38118 26.6331 2.42655 26.6331C2.48215 26.6331 2.5091 26.6997 2.5091 26.837C2.5091 26.9718 2.53635 27.0409 2.58944 27.0409C2.63365 27.0409 2.68349 27.0934 2.70022 27.1574C2.7169 27.2215 2.77226 27.274 2.82315 27.274C2.88728 27.274 2.91575 27.3277 2.91575 27.4487C2.91575 27.5652 2.94479 27.6235 3.00288 27.6235C3.05127 27.6235 3.09002 27.6753 3.09002 27.74C3.09002 27.8177 3.12877 27.8565 3.20621 27.8565C3.28364 27.8565 3.32239 27.8954 3.32239 27.973C3.32239 28.0378 3.36114 28.0895 3.40953 28.0895C3.45745 28.0895 3.49667 28.1289 3.49667 28.1769C3.49667 28.2255 3.54831 28.2643 3.61285 28.2643C3.69029 28.2643 3.72903 28.3032 3.72903 28.3808C3.72903 28.4585 3.76778 28.4973 3.84522 28.4973C3.90976 28.4973 3.9614 28.5362 3.9614 28.5847C3.9614 28.643 4.01949 28.6721 4.13568 28.6721C4.24942 28.6721 4.30995 28.7015 4.30995 28.7569C4.30995 28.8076 4.39157 28.857 4.51328 28.8799C4.62975 28.9018 4.7166 28.9527 4.7166 28.999C4.7166 29.0526 4.78515 29.0799 4.91992 29.0799C5.05504 29.0799 5.12324 29.1072 5.12324 29.1611C5.12324 29.2218 5.2371 29.2476 5.57346 29.2631C6.29688 29.2964 6.74982 29.2575 6.74982 29.1621C6.74982 29.1023 6.82894 29.0799 7.04028 29.0799C7.24802 29.0799 7.33074 29.0571 7.33074 28.9998C7.33074 28.9199 7.57008 28.8469 7.83178 28.8469C7.91567 28.8469 7.96975 28.8126 7.96975 28.7595C7.96975 28.6924 8.04399 28.6721 8.28926 28.6721C8.53452 28.6721 8.60876 28.6518 8.60876 28.5847C8.60876 28.5209 8.67528 28.4971 8.85565 28.4965C9.1866 28.4955 9.36396 28.4426 9.36396 28.3449C9.36396 28.286 9.45017 28.2643 9.68347 28.2643C9.92873 28.2643 10.003 28.244 10.003 28.1769C10.003 28.1109 10.074 28.0895 10.2934 28.0895C10.502 28.0895 10.5839 28.0668 10.5839 28.009C10.5839 27.9088 10.7626 27.8583 11.1212 27.8573C11.3274 27.8567 11.3972 27.8344 11.3972 27.7691C11.3972 27.716 11.4513 27.6818 11.5351 27.6818C11.7969 27.6818 12.0362 27.6087 12.0362 27.5288C12.0362 27.4691 12.1322 27.4487 12.4138 27.4487C12.6935 27.4487 12.7914 27.4282 12.7914 27.3694C12.7914 27.3174 12.8946 27.2779 13.092 27.2545C13.2573 27.2349 13.4121 27.1872 13.4359 27.1485C13.4597 27.1098 13.6382 27.0666 13.8325 27.0525C14.0816 27.0345 14.1856 27.0032 14.1856 26.9466C14.1856 26.8916 14.2591 26.8662 14.418 26.8662C14.5771 26.8662 14.6503 26.8408 14.6503 26.7856C14.6503 26.6879 14.8277 26.635 15.1586 26.634C15.339 26.6334 15.4055 26.6096 15.4055 26.5458C15.4055 26.4827 15.4701 26.4584 15.6379 26.4584C15.8057 26.4584 15.8703 26.4827 15.8703 26.5458C15.8703 26.6118 15.9413 26.6331 16.1607 26.6331C16.4124 26.6331 16.4512 26.6487 16.4512 26.7497C16.4512 26.8506 16.4899 26.8662 16.7416 26.8662C16.9611 26.8662 17.0321 26.8875 17.0321 26.9535C17.0321 27.0207 17.1063 27.0409 17.3516 27.0409C17.5849 27.0409 17.6711 27.0627 17.6711 27.1215C17.6711 27.2133 17.8454 27.272 18.1213 27.2731C18.2427 27.2737 18.3101 27.3027 18.3101 27.3544C18.3101 27.4111 18.4145 27.4423 18.6651 27.4605C18.9178 27.4788 19.0358 27.5144 19.0746 27.584C19.113 27.6527 19.2061 27.6818 19.3877 27.6818C19.5788 27.6818 19.6462 27.7045 19.6462 27.7691C19.6462 27.8363 19.7205 27.8565 19.9658 27.8565C20.1981 27.8565 20.2853 27.8784 20.2853 27.9366C20.2853 28.0165 20.5246 28.0895 20.7863 28.0895C20.8702 28.0895 20.9243 28.1238 20.9243 28.1769C20.9243 28.2429 20.9953 28.2643 21.2147 28.2643C21.4225 28.2643 21.5052 28.2872 21.5052 28.3444C21.5052 28.4335 21.7508 28.4973 22.0934 28.4973C22.2548 28.4973 22.3185 28.5221 22.3185 28.5847C22.3185 28.6517 22.3923 28.6721 22.6339 28.6721C22.8407 28.6721 22.98 28.703 23.0389 28.7621C23.0882 28.8115 23.26 28.8676 23.4206 28.8867C23.6113 28.9093 23.7127 28.9489 23.7127 29.0006C23.7127 29.0579 23.8015 29.0799 24.0322 29.0799C24.2672 29.0799 24.3517 29.1015 24.3517 29.1614C24.3517 29.2195 24.4682 29.2546 24.7583 29.2838C25.0485 29.313 25.165 29.3481 25.165 29.4062C25.165 29.466 25.2489 29.4877 25.4804 29.4877C25.6872 29.4877 25.8265 29.5186 25.8854 29.5777C25.9347 29.6271 26.1065 29.6832 26.2671 29.7023C26.4578 29.7249 26.5592 29.7645 26.5592 29.8162C26.5592 29.8755 26.6616 29.8955 26.9658 29.8955C27.2886 29.8955 27.3725 29.9136 27.3725 29.9829C27.3725 30.0455 27.4362 30.0703 27.5976 30.0703C27.9402 30.0703 28.1858 30.1341 28.1858 30.2232C28.1858 30.2835 28.2861 30.3033 28.5924 30.3033C28.9 30.3033 28.9991 30.3229 28.9991 30.3839C28.9991 30.4401 29.1134 30.4768 29.3767 30.505C29.6452 30.5339 29.7543 30.5695 29.7543 30.6284C29.7543 30.692 29.8483 30.7111 30.1609 30.7111C30.4837 30.7111 30.5675 30.7291 30.5675 30.7985C30.5675 30.8605 30.6307 30.886 30.7854 30.8864C31.2285 30.8874 31.6132 30.9586 31.6132 31.0396C31.6132 31.0989 31.7156 31.1189 32.0198 31.1189C32.3426 31.1189 32.4265 31.1369 32.4265 31.2063C32.4265 31.2689 32.4902 31.2937 32.6516 31.2937C32.9942 31.2937 33.2398 31.3575 33.2398 31.4466C33.2398 31.5069 33.3401 31.5267 33.6464 31.5267C33.9554 31.5267 34.0531 31.5462 34.0531 31.6079C34.0531 31.6688 34.1696 31.6944 34.5202 31.7104C34.854 31.7256 35.0028 31.7565 35.041 31.8185C35.0798 31.8815 35.2305 31.911 35.5904 31.9259C35.9665 31.9415 36.0863 31.9661 36.0863 32.0279C36.0863 32.0888 36.1776 32.1094 36.4494 32.1101C36.8917 32.111 37.0739 32.1553 37.0739 32.2617C37.0739 32.3252 37.2032 32.3423 37.6838 32.3423C38.1667 32.3423 38.2938 32.3592 38.2938 32.4235C38.2938 32.4845 38.4116 32.51 38.7685 32.5263C39.077 32.5403 39.2516 32.5731 39.2671 32.6199C39.2802 32.6594 39.3509 32.6918 39.4241 32.6918C39.6814 32.6918 39.9204 32.7654 39.9204 32.8447C39.9204 32.8888 39.9566 32.9248 40.0007 32.9248C40.0449 32.9248 40.0948 32.9773 40.1115 33.0413C40.1282 33.1054 40.1835 33.1579 40.2344 33.1579C40.3015 33.1579 40.327 33.214 40.327 33.3618C40.327 33.5041 40.3533 33.5657 40.4141 33.5657C40.4728 33.5657 40.5013 33.6245 40.5013 33.7459C40.5013 33.8771 40.5329 33.9344 40.6175 33.9566C40.7137 33.9818 40.7337 34.036 40.7337 34.2715C40.7337 34.4856 40.7552 34.556 40.8208 34.556C40.8934 34.556 40.9079 34.6725 40.9079 35.2551C40.9079 35.8377 40.8934 35.9542 40.8208 35.9542C40.7605 35.9542 40.7337 36.0149 40.7337 36.1512C40.7337 36.2994 40.7048 36.356 40.6175 36.3789C40.5329 36.401 40.5013 36.4583 40.5013 36.5895C40.5013 36.7109 40.4728 36.7698 40.4141 36.7698C40.3658 36.7698 40.327 36.8215 40.327 36.8863C40.327 36.9503 40.289 37.0028 40.2425 37.0028C40.1919 37.0028 40.1427 37.0846 40.1198 37.2067C40.098 37.3235 40.0472 37.4106 40.0011 37.4106C39.9567 37.4106 39.9204 37.463 39.9204 37.5271C39.9204 37.5927 39.8816 37.6436 39.8318 37.6436C39.7798 37.6436 39.7288 37.7158 39.7083 37.8184C39.6892 37.9145 39.6375 37.9931 39.5936 37.9931C39.5497 37.9931 39.5137 38.0456 39.5137 38.1096C39.5137 38.1737 39.4757 38.2262 39.4292 38.2262C39.3787 38.2262 39.3294 38.308 39.3066 38.4301C39.2847 38.5469 39.2339 38.634 39.1878 38.634C39.1434 38.634 39.1071 38.6864 39.1071 38.7505C39.1071 38.8146 39.07 38.867 39.0245 38.867C38.9792 38.867 38.9248 38.9456 38.9038 39.0418C38.8827 39.1379 38.8312 39.2165 38.7894 39.2165C38.7476 39.2165 38.6967 39.3058 38.6763 39.4148C38.6559 39.5238 38.6007 39.6279 38.5536 39.646C38.5066 39.6641 38.4681 39.719 38.4681 39.7682C38.4681 39.8172 38.4288 39.8573 38.3809 39.8573C38.3228 39.8573 38.2938 39.9156 38.2938 40.0321C38.2938 40.1486 38.2647 40.2069 38.2066 40.2069C38.1583 40.2069 38.1195 40.2587 38.1195 40.3234C38.1195 40.4011 38.0808 40.4399 38.0033 40.4399C37.9093 40.4399 37.8871 40.4788 37.8871 40.6438C37.8871 40.779 37.86 40.8477 37.8064 40.8477C37.7603 40.8477 37.7095 40.9348 37.6877 41.0516C37.6648 41.1736 37.6156 41.2555 37.565 41.2555C37.5072 41.2555 37.4805 41.3198 37.4805 41.4594C37.4805 41.5967 37.4535 41.6633 37.3979 41.6633C37.3526 41.6633 37.2982 41.7419 37.2772 41.8381C37.2561 41.9342 37.2018 42.0128 37.1564 42.0128C37.0988 42.0128 37.0739 42.0834 37.0739 42.2459C37.0739 42.4058 37.0486 42.4789 36.9932 42.4789C36.947 42.4789 36.8962 42.566 36.8744 42.6828C36.8515 42.8048 36.8023 42.8867 36.7517 42.8867C36.6939 42.8867 36.6672 42.951 36.6672 43.0906C36.6672 43.233 36.6409 43.2945 36.5801 43.2945C36.524 43.2945 36.4926 43.3514 36.4921 43.4547C36.4909 43.7041 36.429 43.877 36.3409 43.877C36.2832 43.877 36.2606 43.9592 36.2606 44.1683C36.2606 44.3884 36.2392 44.4596 36.1734 44.4596C36.114 44.4596 36.0861 44.5198 36.0855 44.6489C36.0843 44.9257 36.0258 45.1004 35.9343 45.1004C35.8735 45.1004 35.8539 45.1999 35.8539 45.5082C35.8539 45.8122 35.8339 45.916 35.7753 45.916C35.716 45.916 35.6867 46.0839 35.6562 46.6005C35.6339 46.977 35.5909 47.2938 35.5605 47.3044C35.5302 47.3152 35.5054 47.4637 35.5054 47.6346C35.5054 47.8054 35.5302 47.954 35.5605 47.9647C35.5909 47.9754 35.6339 48.2922 35.6562 48.6686C35.6867 49.1852 35.716 49.3531 35.7753 49.3531C35.8339 49.3531 35.8539 49.457 35.8539 49.7609C35.8539 50.0693 35.8735 50.1687 35.9343 50.1687C36.0223 50.1687 36.0843 50.3416 36.0855 50.5911C36.086 50.6943 36.1173 50.7513 36.1734 50.7513C36.2403 50.7513 36.2606 50.8257 36.2606 51.0717C36.2606 51.3533 36.2746 51.3921 36.3767 51.3921C36.4774 51.3921 36.4929 51.431 36.4929 51.6834C36.4929 51.9035 36.5143 51.9747 36.5801 51.9747C36.6395 51.9747 36.6674 52.0349 36.668 52.164C36.6692 52.4407 36.7277 52.6155 36.8192 52.6155C36.8769 52.6155 36.8996 52.6976 36.8996 52.9068C36.8996 53.1269 36.9209 53.1981 36.9867 53.1981C37.0476 53.1981 37.0739 53.2596 37.0739 53.402C37.0739 53.5422 37.1004 53.6059 37.159 53.6059C37.2173 53.6059 37.2563 53.6977 37.2826 53.8971C37.3077 54.0862 37.3492 54.1884 37.4009 54.1884C37.4551 54.1884 37.4805 54.2629 37.4805 54.4214C37.4805 54.581 37.5058 54.6545 37.5608 54.6545C37.6489 54.6545 37.7108 54.8274 37.712 55.0768C37.7126 55.1801 37.7439 55.237 37.8 55.237C37.8609 55.237 37.8871 55.2986 37.8871 55.4409C37.8871 55.5812 37.9137 55.6448 37.9723 55.6448C38.0306 55.6448 38.0695 55.7366 38.0959 55.9361C38.121 56.1252 38.1624 56.2274 38.2141 56.2274C38.2664 56.2274 38.2938 56.2974 38.2938 56.4313C38.2938 56.5681 38.3208 56.6352 38.3758 56.6352C38.4262 56.6352 38.473 56.725 38.4971 56.8682C38.5212 57.0115 38.568 57.1012 38.6184 57.1012C38.6876 57.1012 38.7004 57.4473 38.7004 59.315C38.7004 61.2439 38.7116 61.5287 38.7876 61.5287C38.8405 61.5287 38.8747 61.583 38.8747 61.6671C38.8747 61.9295 38.9476 62.1696 39.0272 62.1696C39.0772 62.1696 39.1071 62.2349 39.1071 62.3443C39.1071 62.4582 39.1365 62.5191 39.1913 62.5191C39.2377 62.5191 39.3001 62.5631 39.3301 62.6168C39.369 62.6865 39.4869 62.7221 39.7396 62.7403C39.9903 62.7585 40.0946 62.7897 40.0946 62.8465C40.0946 62.9106 40.2421 62.9269 40.8208 62.9269H41.5469V64.6454C41.5469 66.1342 41.5586 66.364 41.6341 66.364C41.7059 66.364 41.7212 66.47 41.7212 66.9689C41.7212 67.5248 41.7306 67.5763 41.8374 67.6043C41.9264 67.6276 41.9536 67.6838 41.9536 67.8441C41.9536 67.9913 41.9794 68.0535 42.0407 68.0535C42.099 68.0535 42.1279 68.1119 42.1279 68.23C42.1279 68.3299 42.1642 68.4206 42.2114 68.4388C42.2574 68.4565 42.3118 68.5474 42.3322 68.6409C42.3527 68.7344 42.4066 68.8108 42.452 68.8108C42.5075 68.8108 42.5345 68.8774 42.5345 69.0147C42.5345 69.1797 42.5566 69.2186 42.6507 69.2186C42.7152 69.2186 42.7669 69.2574 42.7669 69.306C42.7669 69.354 42.8061 69.3933 42.854 69.3933C42.9024 69.3933 42.9411 69.4451 42.9411 69.5099C42.9411 69.5875 42.9799 69.6264 43.0573 69.6264C43.1348 69.6264 43.1735 69.6652 43.1735 69.7429C43.1735 69.8076 43.2123 69.8594 43.2607 69.8594C43.3086 69.8594 43.3478 69.8987 43.3478 69.9468C43.3478 69.9953 43.3994 70.0342 43.464 70.0342C43.5279 70.0342 43.5802 70.0714 43.5802 70.117C43.5802 70.1624 43.6586 70.217 43.7544 70.2381C43.8503 70.2592 43.9287 70.3137 43.9287 70.3592C43.9287 70.4047 43.981 70.442 44.0449 70.442C44.1088 70.442 44.1611 70.4784 44.1611 70.5229C44.1611 70.5692 44.2479 70.6201 44.3644 70.642C44.4861 70.6649 44.5677 70.7143 44.5677 70.765C44.5677 70.8279 44.6427 70.8498 44.8582 70.8498C45.0777 70.8498 45.1486 70.8711 45.1486 70.9371C45.1486 70.9903 45.2027 71.0245 45.2866 71.0245C45.5483 71.0245 45.7877 71.0976 45.7877 71.1775C45.7877 71.245 47.0674 71.2576 53.9786 71.2576C60.929 71.2576 62.1696 71.2453 62.1696 71.1766C62.1696 71.1303 62.2565 71.0794 62.3729 71.0575C62.4946 71.0346 62.5762 70.9852 62.5762 70.9345C62.5762 70.8879 62.6155 70.8498 62.6634 70.8498C62.7113 70.8498 62.7505 70.8117 62.7505 70.7653C62.7505 70.7188 62.7925 70.6572 62.8438 70.6284C62.8999 70.5969 62.9492 70.4681 62.9676 70.3051C62.9873 70.1294 63.026 70.0342 63.0776 70.0342C63.1214 70.0342 63.1572 69.9817 63.1572 69.9177C63.1572 69.8529 63.1184 69.8011 63.07 69.8011C63.0139 69.8011 62.9826 69.7442 62.9821 69.6409C62.9809 69.3915 62.9189 69.2186 62.8309 69.2186C62.7867 69.2186 62.7505 69.1661 62.7505 69.1021C62.7505 69.038 62.7141 68.9855 62.6696 68.9855C62.6251 68.9855 62.5736 68.9462 62.5552 68.8982C62.5369 68.8501 62.4818 68.8108 62.4328 68.8108C62.3839 68.8108 62.3439 68.7718 62.3439 68.724C62.3439 68.6477 61.4017 68.6354 54.4993 68.6221C48.7995 68.611 46.6435 68.5891 46.6133 68.5418C46.5905 68.506 46.3955 68.458 46.1798 68.4352C45.8991 68.4055 45.7877 68.3702 45.7877 68.3109C45.7877 68.2654 45.7354 68.2282 45.6715 68.2282C45.6076 68.2282 45.5553 68.1901 45.5553 68.1435C45.5553 68.0928 45.4737 68.0434 45.352 68.0205C45.2355 67.9986 45.1486 67.9477 45.1486 67.9013C45.1486 67.8568 45.1094 67.8204 45.0615 67.8204C45.0136 67.8204 44.9744 67.7803 44.9744 67.7312C44.9744 67.6821 44.9367 67.6275 44.8908 67.6098C44.8448 67.5921 44.7905 67.5012 44.77 67.4077C44.7495 67.3143 44.6985 67.2379 44.6567 67.2379C44.6149 67.2379 44.5639 67.1486 44.5436 67.0396C44.5232 66.9306 44.468 66.8265 44.4209 66.8084C44.348 66.7803 44.3354 66.4921 44.3354 64.8512V62.9269H45.0615C45.6682 62.9269 45.7877 62.9125 45.7877 62.8395C45.7877 62.7735 45.8586 62.7521 46.0781 62.7521C46.2936 62.7521 46.3686 62.7302 46.3686 62.6674C46.3686 62.6167 46.4502 62.5673 46.5719 62.5444C46.7486 62.5112 46.7752 62.484 46.7752 62.3379C46.7752 62.2339 46.8058 62.1696 46.8551 62.1696C46.9872 62.1696 47.0076 61.8843 47.0076 60.0359C47.0076 58.5018 47.0192 58.2664 47.0947 58.2664C47.1427 58.2664 47.1819 58.2301 47.1819 58.1858C47.1819 58.1415 47.2341 58.0915 47.298 58.0747C47.3619 58.058 47.4142 58.0025 47.4142 57.9514C47.4142 57.8871 47.4678 57.8586 47.5885 57.8586C47.7047 57.8586 47.7628 57.8294 47.7628 57.7712C47.7628 57.7227 47.8144 57.6838 47.879 57.6838C47.9564 57.6838 47.9952 57.645 47.9952 57.5673C47.9952 57.4896 48.0339 57.4508 48.1113 57.4508C48.1759 57.4508 48.2275 57.4119 48.2275 57.3634C48.2275 57.3153 48.2667 57.276 48.3147 57.276C48.3626 57.276 48.4018 57.2397 48.4018 57.1954C48.4018 57.1511 48.4541 57.1011 48.518 57.0844C48.5819 57.0676 48.6342 57.0121 48.6342 56.9611C48.6342 56.91 48.6734 56.8682 48.7213 56.8682C48.7692 56.8682 48.8084 56.8289 48.8084 56.7808C48.8084 56.7328 48.8477 56.6934 48.8956 56.6934C48.944 56.6934 48.9827 56.6417 48.9827 56.5769C48.9827 56.4993 49.0215 56.4604 49.0989 56.4604C49.1763 56.4604 49.2151 56.4216 49.2151 56.3439C49.2151 56.2792 49.2538 56.2274 49.3022 56.2274C49.3501 56.2274 49.3894 56.1881 49.3894 56.14C49.3894 56.0919 49.4274 56.0526 49.4739 56.0526C49.5244 56.0526 49.5737 55.9708 49.5965 55.8487C49.6184 55.7319 49.6691 55.6448 49.7153 55.6448C49.7597 55.6448 49.796 55.5922 49.796 55.5277C49.796 55.4634 49.8483 55.3658 49.9122 55.3109C49.9761 55.256 50.0284 55.1646 50.0284 55.1076C50.0284 55.0506 50.0676 55.004 50.1155 55.004C50.1733 55.004 50.2026 54.9461 50.2026 54.8322C50.2026 54.7364 50.2431 54.6375 50.294 54.609C50.3442 54.5808 50.3999 54.4484 50.4178 54.3148C50.438 54.164 50.4804 54.0719 50.5298 54.0719C50.5838 54.0719 50.6093 53.9972 50.6093 53.8389C50.6093 53.6793 50.6346 53.6059 50.6896 53.6059C50.7777 53.6059 50.8396 53.433 50.8408 53.1835C50.8414 53.0803 50.8727 53.0233 50.9288 53.0233C50.9957 53.0233 51.0159 52.9488 51.0159 52.7029C51.0159 52.4689 51.0376 52.3825 51.0963 52.3825C51.1937 52.3825 51.2464 52.2046 51.2475 51.8727C51.2481 51.6918 51.2718 51.6251 51.3354 51.6251C51.4046 51.6251 51.4226 51.541 51.4226 51.2173C51.4226 50.9108 51.4423 50.8096 51.5022 50.8096C51.5583 50.8096 51.5937 50.6888 51.6219 50.4018C51.6511 50.1044 51.6846 49.994 51.7456 49.994C51.8109 49.994 51.8292 49.8989 51.8292 49.5612C51.8292 49.2676 51.8554 49.1022 51.9107 49.0468C51.9555 49.0018 52.0108 48.7902 52.0337 48.5765C52.0627 48.3046 52.0992 48.188 52.1555 48.188C52.2163 48.188 52.2359 48.0883 52.2359 47.7784C52.2359 47.4803 52.2581 47.3602 52.3175 47.3374C52.3708 47.3168 52.4132 47.1654 52.4396 46.9022C52.4684 46.6146 52.5034 46.4986 52.5612 46.4986C52.6245 46.4986 52.6425 46.3888 52.6425 46.0034C52.6425 45.6021 52.659 45.5082 52.7296 45.5082C52.7921 45.5082 52.8168 45.4443 52.8168 45.2825C52.8168 44.9389 52.8805 44.6926 52.9693 44.6926C53.0295 44.6926 53.0492 44.592 53.0492 44.2848C53.0492 43.9612 53.0672 43.877 53.1363 43.877C53.1987 43.877 53.2234 43.8131 53.2234 43.6513C53.2234 43.3078 53.2871 43.0614 53.3759 43.0614C53.4361 43.0614 53.4558 42.9608 53.4558 42.6537C53.4558 42.33 53.4738 42.2459 53.5429 42.2459C53.6054 42.2459 53.6301 42.1819 53.6301 42.0201C53.6301 41.6766 53.6937 41.4303 53.7826 41.4303C53.8397 41.4303 53.8624 41.3473 53.8624 41.139C53.8624 40.9189 53.8838 40.8477 53.9496 40.8477C54.0177 40.8477 54.0369 40.7681 54.0375 40.4836C54.0385 40.04 54.0826 39.8573 54.1887 39.8573C54.2474 39.8573 54.2691 39.7709 54.2691 39.5369C54.2691 39.3034 54.2908 39.2165 54.3493 39.2165C54.4058 39.2165 54.437 39.1119 54.4551 38.8605C54.4733 38.6071 54.5088 38.4888 54.5783 38.4499C54.649 38.4101 54.6757 38.3161 54.6757 38.1067C54.6757 37.8893 54.6972 37.8184 54.7629 37.8184C54.8286 37.8184 54.85 37.7475 54.85 37.53C54.85 37.3258 54.8773 37.2263 54.9433 37.1893C54.9994 37.1577 55.0487 37.0289 55.067 36.8659C55.0868 36.6902 55.1255 36.595 55.1771 36.595C55.2338 36.595 55.2567 36.5115 55.2567 36.3037C55.2567 36.0917 55.279 36.0124 55.3387 36.0124C55.3891 36.0124 55.4359 35.9226 55.46 35.7794C55.4841 35.6361 55.5308 35.5464 55.5813 35.5464C55.641 35.5464 55.6633 35.4671 55.6633 35.2551C55.6633 35.039 55.6851 34.9638 55.7478 34.9638C55.7984 34.9638 55.8476 34.882 55.8705 34.7599C55.8923 34.6431 55.9431 34.556 55.9893 34.556C56.0428 34.556 56.0699 34.4873 56.0699 34.3521C56.0699 34.2174 56.0972 34.1482 56.1503 34.1482C56.2384 34.1482 56.3003 33.9753 56.3015 33.7259C56.302 33.6284 56.3339 33.5657 56.383 33.5657C56.4292 33.5657 56.48 33.4786 56.5018 33.3618C56.5228 33.2496 56.5637 33.1579 56.5928 33.1579C56.6218 33.1579 56.6628 33.0661 56.6837 32.954C56.7056 32.8372 56.7564 32.7501 56.8025 32.7501C56.8469 32.7501 56.8832 32.6976 56.8832 32.6335C56.8832 32.5695 56.9213 32.517 56.9678 32.517C57.0183 32.517 57.0676 32.4352 57.0904 32.3131C57.1122 32.1963 57.163 32.1092 57.2092 32.1092C57.2627 32.1092 57.2899 32.0405 57.2899 31.9053C57.2899 31.768 57.3168 31.7014 57.3724 31.7014C57.4178 31.7014 57.4722 31.6228 57.4932 31.5267C57.5142 31.4306 57.5686 31.3519 57.614 31.3519C57.6594 31.3519 57.6965 31.2995 57.6965 31.2354C57.6965 31.1713 57.7328 31.1189 57.7772 31.1189C57.8234 31.1189 57.8742 31.0318 57.896 30.915C57.9188 30.7929 57.9681 30.7111 58.0186 30.7111C58.0651 30.7111 58.1032 30.6587 58.1032 30.5946C58.1032 30.5305 58.1403 30.4781 58.1857 30.4781C58.2311 30.4781 58.2855 30.3994 58.3065 30.3033C58.3275 30.2072 58.3819 30.1285 58.4273 30.1285C58.4727 30.1285 58.5098 30.0761 58.5098 30.012C58.5098 29.9479 58.5461 29.8955 58.5905 29.8955C58.6367 29.8955 58.6875 29.8084 58.7093 29.6916C58.7321 29.5696 58.7814 29.4877 58.8319 29.4877C58.8784 29.4877 58.9165 29.4353 58.9165 29.3712C58.9165 29.3071 58.9536 29.2547 58.999 29.2547C59.0444 29.2547 59.0987 29.176 59.1198 29.0799C59.1408 28.9838 59.1952 28.9051 59.2405 28.9051C59.286 28.9051 59.3231 28.8527 59.3231 28.7886C59.3231 28.7239 59.3618 28.6721 59.4102 28.6721C59.4582 28.6721 59.4974 28.6303 59.4974 28.5793C59.4974 28.5282 59.5497 28.4727 59.6136 28.456C59.6944 28.4348 59.7297 28.3765 59.7297 28.2643C59.7297 28.1521 59.7651 28.0939 59.8459 28.0727C59.9098 28.0559 59.9621 28.0004 59.9621 27.9494C59.9621 27.8983 60.0013 27.8565 60.0492 27.8565C60.0972 27.8565 60.1364 27.8172 60.1364 27.7691C60.1364 27.7211 60.1756 27.6818 60.2235 27.6818C60.2719 27.6818 60.3107 27.63 60.3107 27.5652C60.3107 27.4876 60.3494 27.4487 60.4268 27.4487C60.5043 27.4487 60.543 27.4099 60.543 27.3322C60.543 27.2675 60.5818 27.2157 60.6302 27.2157C60.6781 27.2157 60.7173 27.1764 60.7173 27.1283C60.7173 27.0803 60.7544 27.0409 60.7999 27.0409C60.8452 27.0409 60.8996 26.9623 60.9206 26.8662C60.9417 26.77 60.996 26.6914 61.0414 26.6914C61.0868 26.6914 61.1239 26.639 61.1239 26.5749C61.1239 26.4972 61.1627 26.4584 61.2401 26.4584C61.3176 26.4584 61.3563 26.4195 61.3563 26.3419C61.3563 26.2771 61.3951 26.2253 61.4435 26.2253C61.492 26.2253 61.5306 26.1735 61.5306 26.1082C61.5306 26.0439 61.5829 25.9463 61.6468 25.8914C61.7107 25.8365 61.763 25.7582 61.763 25.7172C61.763 25.6763 61.7993 25.6428 61.8437 25.6428C61.8898 25.6428 61.9406 25.5557 61.9624 25.4389C61.9853 25.3168 62.0345 25.235 62.0851 25.235C62.1316 25.235 62.1696 25.1826 62.1696 25.1185C62.1696 25.0537 62.2084 25.002 62.2567 25.002C62.3148 25.002 62.3439 24.9437 62.3439 24.8272C62.3439 24.7169 62.3736 24.6524 62.4246 24.6524C62.4708 24.6524 62.5215 24.5653 62.5434 24.4485C62.5662 24.3265 62.6155 24.2446 62.666 24.2446C62.7239 24.2446 62.7505 24.1803 62.7505 24.0407C62.7505 23.9011 62.7772 23.8368 62.835 23.8368C62.8856 23.8368 62.9349 23.755 62.9577 23.6329C62.9795 23.5161 63.0303 23.429 63.0765 23.429C63.13 23.429 63.1572 23.3603 63.1572 23.2251C63.1572 23.0828 63.1834 23.0212 63.2443 23.0212C63.3052 23.0212 63.3314 22.9597 63.3314 22.8173C63.3314 22.6523 63.3536 22.6134 63.4476 22.6134C63.5498 22.6134 63.5638 22.5746 63.5638 22.293C63.5638 22.0471 63.584 21.9726 63.6509 21.9726C63.7071 21.9726 63.7384 21.9156 63.7389 21.8124C63.7401 21.563 63.802 21.3901 63.8901 21.3901C63.9488 21.3901 63.9705 21.3036 63.9705 21.0697C63.9705 20.8237 63.9907 20.7492 64.0576 20.7492C64.1171 20.7492 64.1449 20.6891 64.1453 20.5599C64.1464 20.1419 64.2194 19.7589 64.298 19.7589C64.3605 19.7589 64.3771 19.606 64.3771 19.0307C64.3771 18.4222 64.3914 18.3025 64.4642 18.3025C64.5122 18.3025 64.5514 18.2763 64.5514 18.2442C64.5514 18.2122 64.5122 18.186 64.4642 18.186C64.4158 18.186 64.3771 18.1342 64.3771 18.0694C64.3771 18.0047 64.4158 17.9529 64.4642 17.9529C64.5389 17.9529 64.5514 17.7782 64.5514 16.7295C64.5514 15.6809 64.5389 15.5062 64.4642 15.5062C64.3923 15.5062 64.3771 15.3994 64.3771 14.8945C64.3771 14.4174 64.3597 14.2828 64.298 14.2828C64.2133 14.2828 64.1461 13.8921 64.1453 13.3944C64.1448 13.1874 64.1228 13.1177 64.0576 13.1177C63.9907 13.1177 63.9705 13.0432 63.9705 12.7972C63.9705 12.5642 63.9487 12.4768 63.8906 12.4768C63.8109 12.4768 63.7381 12.2368 63.7381 11.9744C63.7381 11.8902 63.7039 11.836 63.6509 11.836C63.5851 11.836 63.5638 11.7648 63.5638 11.5447C63.5638 11.2923 63.5483 11.2534 63.4476 11.2534C63.3536 11.2534 63.3314 11.2146 63.3314 11.0495C63.3314 10.9072 63.3052 10.8456 63.2443 10.8456C63.1834 10.8456 63.1572 10.7841 63.1572 10.6418C63.1572 10.5066 63.13 10.4379 63.0765 10.4379C63.0303 10.4379 62.9795 10.3508 62.9577 10.234C62.9349 10.1119 62.8856 10.0301 62.835 10.0301C62.7772 10.0301 62.7505 9.96574 62.7505 9.82616C62.7505 9.69101 62.7233 9.62226 62.6698 9.62226C62.6236 9.62226 62.5729 9.53517 62.551 9.41837C62.5282 9.29632 62.4789 9.21447 62.4284 9.21447C62.3705 9.21447 62.3439 9.15016 62.3439 9.01057C62.3439 8.86819 62.3176 8.80667 62.2567 8.80667C62.2088 8.80667 62.1696 8.76491 62.1696 8.71381C62.1696 8.66278 62.1173 8.60726 62.0534 8.59054C61.9711 8.56893 61.9372 8.51108 61.9372 8.39206C61.9372 8.28161 61.9074 8.22411 61.8501 8.22411C61.8017 8.22411 61.763 8.17232 61.763 8.1076C61.763 8.02994 61.7242 7.99109 61.6468 7.99109C61.5527 7.99109 61.5306 7.95223 61.5306 7.78719C61.5306 7.64481 61.5043 7.58329 61.4435 7.58329C61.3955 7.58329 61.3563 7.54397 61.3563 7.49591C61.3563 7.44738 61.3047 7.40852 61.2401 7.40852C61.1627 7.40852 61.1239 7.36966 61.1239 7.29201C61.1239 7.22729 61.0852 7.1755 61.0368 7.1755C60.9889 7.1755 60.9497 7.142 60.9497 7.10104C60.9497 7.06009 60.8974 6.98173 60.8335 6.92686C60.7696 6.87198 60.7173 6.7744 60.7173 6.71003C60.7173 6.6456 60.6811 6.59293 60.637 6.59293C60.5928 6.59293 60.5429 6.5405 60.5262 6.47642C60.5095 6.41234 60.4541 6.35991 60.4033 6.35991C60.3523 6.35991 60.3107 6.32058 60.3107 6.27252C60.3107 6.22446 60.2714 6.18514 60.2235 6.18514C60.1756 6.18514 60.1364 6.14581 60.1364 6.09775C60.1364 6.04969 60.0947 6.01037 60.0438 6.01037C59.9929 6.01037 59.9375 5.95794 59.9209 5.89385C59.9041 5.82977 59.8543 5.77734 59.8101 5.77734C59.7659 5.77734 59.7297 5.73802 59.7297 5.68996C59.7297 5.6419 59.6881 5.60257 59.6371 5.60257C59.5863 5.60257 59.5309 5.55014 59.5142 5.48606C59.4975 5.42198 59.4476 5.36955 59.4034 5.36955C59.3593 5.36955 59.3231 5.33022 59.3231 5.28216C59.3231 5.2341 59.2814 5.19478 59.2305 5.19478C59.1796 5.19478 59.1242 5.14235 59.1076 5.07826C59.0908 5.01418 59.041 4.96175 58.9968 4.96175C58.9526 4.96175 58.9165 4.92534 58.9165 4.88083C58.9165 4.83452 58.8296 4.7836 58.7131 4.7617C58.5914 4.7388 58.5098 4.6894 58.5098 4.63872C58.5098 4.59212 58.4706 4.55396 58.4227 4.55396C58.3747 4.55396 58.3355 4.51463 58.3355 4.46657C58.3355 4.41805 58.2839 4.37919 58.2193 4.37919C58.1419 4.37919 58.1032 4.34033 58.1032 4.26268C58.1032 4.18502 58.0644 4.14616 57.987 4.14616C57.9231 4.14616 57.8708 4.10894 57.8708 4.06338C57.8708 4.01788 57.7924 3.96335 57.6965 3.94226C57.6007 3.92118 57.5222 3.86665 57.5222 3.82115C57.5222 3.77559 57.47 3.73837 57.4061 3.73837C57.3422 3.73837 57.2899 3.70196 57.2899 3.65745C57.2899 3.61114 57.203 3.56022 57.0866 3.53832C56.9648 3.51542 56.8832 3.46602 56.8832 3.41534C56.8832 3.36873 56.8309 3.33057 56.767 3.33057C56.7031 3.33057 56.6509 3.29335 56.6509 3.24779C56.6509 3.20229 56.5724 3.14776 56.4766 3.12668C56.3807 3.10559 56.3023 3.05106 56.3023 3.00556C56.3023 2.94981 56.2359 2.92278 56.099 2.92278C55.957 2.92278 55.8957 2.89645 55.8957 2.83539C55.8957 2.78687 55.844 2.74801 55.7795 2.74801C55.7156 2.74801 55.6633 2.70985 55.6633 2.66325C55.6633 2.61256 55.5817 2.56316 55.46 2.54027C55.3435 2.51836 55.2567 2.46745 55.2567 2.42113C55.2567 2.37039 55.1928 2.34021 55.0853 2.34021C54.9883 2.34021 54.8912 2.29961 54.8617 2.24665C54.8303 2.19038 54.7018 2.14098 54.5393 2.12257C54.3641 2.10276 54.2691 2.06396 54.2691 2.01223C54.2691 1.95986 54.1992 1.93242 54.0658 1.93242C53.9012 1.93242 53.8624 1.91022 53.8624 1.81591C53.8624 1.72159 53.8237 1.69939 53.6591 1.69939C53.5171 1.69939 53.4558 1.67306 53.4558 1.61201C53.4558 1.54612 53.3851 1.52462 53.1682 1.52462C52.9646 1.52462 52.8654 1.4973 52.8285 1.43106C52.797 1.37479 52.6686 1.32539 52.5061 1.30698C52.3308 1.28717 52.2359 1.24837 52.2359 1.19664C52.2359 1.13885 52.1488 1.11683 51.9205 1.11683C51.725 1.11683 51.5737 1.08525 51.5224 1.03381C51.4763 0.987616 51.2554 0.932564 51.0244 0.909785C50.7315 0.880832 50.6093 0.845237 50.6093 0.788903C50.6093 0.727501 50.495 0.709034 50.1155 0.709034C49.7401 0.709034 49.6217 0.690217 49.6217 0.630504C49.6217 0.548945 48.8495 0.476008 47.9861 0.476008C47.6714 0.476008 47.5885 0.457774 47.5885 0.388624C47.5885 0.314696 47.4497 0.301239 46.6881 0.301239C45.9264 0.301239 45.7877 0.314696 45.7877 0.388624ZM48.2771 3.13495C48.5208 3.16052 48.6342 3.19751 48.6342 3.25146C48.6342 3.3135 48.7783 3.33057 49.3022 3.33057C49.8573 3.33057 49.9703 3.34537 49.9703 3.41796C49.9703 3.4754 50.0276 3.50534 50.1373 3.50534C50.4258 3.50534 50.6674 3.57502 50.6674 3.65826C50.6674 3.71804 50.7634 3.73837 51.045 3.73837C51.3419 3.73837 51.4226 3.75707 51.4226 3.82575C51.4226 3.88535 51.4826 3.91337 51.6114 3.91395C51.8873 3.91512 52.0616 3.97378 52.0616 4.06559C52.0616 4.12344 52.1435 4.14616 52.3521 4.14616C52.5715 4.14616 52.6425 4.16754 52.6425 4.23355C52.6425 4.2946 52.7039 4.32093 52.8458 4.32093C53.0104 4.32093 53.0492 4.34313 53.0492 4.43744C53.0492 4.5384 53.0879 4.55396 53.3396 4.55396C53.5487 4.55396 53.6301 4.57662 53.6301 4.63488C53.6301 4.68119 53.7169 4.73211 53.8334 4.75401C53.9551 4.7769 54.0367 4.82631 54.0367 4.87699C54.0367 4.92359 54.089 4.96175 54.1529 4.96175C54.2174 4.96175 54.2691 5.00061 54.2691 5.04914C54.2691 5.11019 54.3304 5.13652 54.4724 5.13652C54.637 5.13652 54.6757 5.15872 54.6757 5.25303C54.6757 5.34735 54.7145 5.36955 54.8791 5.36955C55.016 5.36955 55.0824 5.39658 55.0824 5.45233C55.0824 5.49783 55.1586 5.55183 55.2518 5.5724C55.345 5.5929 55.4356 5.64743 55.4533 5.69351C55.471 5.73959 55.5254 5.77734 55.5744 5.77734C55.6233 5.77734 55.6633 5.81667 55.6633 5.86473C55.6633 5.91325 55.7149 5.95211 55.7795 5.95211C55.8434 5.95211 55.8957 5.99027 55.8957 6.03687C55.8957 6.08756 55.9773 6.13696 56.099 6.15985C56.2155 6.18176 56.3023 6.23267 56.3023 6.27899C56.3023 6.3235 56.3415 6.35991 56.3894 6.35991C56.4374 6.35991 56.4766 6.39923 56.4766 6.44729C56.4766 6.49535 56.5182 6.53468 56.5692 6.53468C56.6201 6.53468 56.6754 6.58711 56.6921 6.65119C56.709 6.71597 56.7713 6.7677 56.8325 6.7677C56.893 6.7677 56.9872 6.82013 57.0419 6.88421C57.0967 6.9483 57.1748 7.00073 57.2156 7.00073C57.2565 7.00073 57.2899 7.04005 57.2899 7.08811C57.2899 7.13617 57.3315 7.1755 57.3825 7.1755C57.4334 7.1755 57.4887 7.22793 57.5054 7.29201C57.5221 7.35609 57.572 7.40852 57.6162 7.40852C57.6603 7.40852 57.6965 7.44784 57.6965 7.49591C57.6965 7.54397 57.7382 7.58329 57.7891 7.58329C57.84 7.58329 57.8954 7.63572 57.912 7.6998C57.9288 7.76389 57.9786 7.81632 58.0228 7.81632C58.067 7.81632 58.1032 7.85564 58.1032 7.9037C58.1032 7.95176 58.1448 7.99109 58.1958 7.99109C58.2467 7.99109 58.302 8.04352 58.3187 8.1076C58.3354 8.17168 58.3853 8.22411 58.4295 8.22411C58.4736 8.22411 58.5098 8.27654 58.5098 8.34062C58.5098 8.40622 58.5486 8.45714 58.5984 8.45714C58.6503 8.45714 58.7014 8.52938 58.7218 8.63191C58.741 8.72803 58.7927 8.80667 58.8366 8.80667C58.8805 8.80667 58.9165 8.846 58.9165 8.89406C58.9165 8.94212 58.9581 8.98144 59.009 8.98144C59.0599 8.98144 59.1153 9.03388 59.132 9.09796C59.1487 9.16204 59.1985 9.21447 59.2427 9.21447C59.2958 9.21447 59.3231 9.28362 59.3231 9.41837C59.3231 9.58341 59.3452 9.62226 59.4393 9.62226C59.5032 9.62226 59.5555 9.65879 59.5555 9.70342C59.5555 9.74804 59.5947 9.79966 59.6426 9.81812C59.6935 9.8377 59.7297 9.92502 59.7297 10.0283C59.7297 10.166 59.7553 10.2048 59.8459 10.2048C59.9234 10.2048 59.9621 10.2437 59.9621 10.3213C59.9621 10.3861 60.0009 10.4379 60.0492 10.4379C60.1101 10.4379 60.1364 10.4994 60.1364 10.6418C60.1364 10.7813 60.163 10.8456 60.2209 10.8456C60.2714 10.8456 60.3207 10.9275 60.3435 11.0495C60.3654 11.1664 60.4162 11.2534 60.4623 11.2534C60.5133 11.2534 60.543 11.3179 60.543 11.4282C60.543 11.5375 60.5729 11.603 60.6227 11.603C60.6708 11.603 60.7172 11.6954 60.7396 11.836C60.7637 11.9868 60.8073 12.069 60.8632 12.069C60.9282 12.069 60.9497 12.1413 60.9497 12.3603C60.9497 12.5774 60.9714 12.6516 61.0348 12.6516C61.093 12.6516 61.132 12.7428 61.158 12.9393C61.1793 13.1004 61.2314 13.2407 61.2762 13.2579C61.3296 13.2785 61.3563 13.3865 61.3563 13.5819C61.3563 13.7893 61.3793 13.875 61.4349 13.875C61.4919 13.875 61.5241 14.014 61.5523 14.382C61.5753 14.6811 61.6205 14.9073 61.6626 14.9333C61.716 14.9664 61.7382 15.4431 61.7508 16.8284C61.7657 18.4524 61.7566 18.6873 61.677 18.7457C61.6138 18.7921 61.5751 18.9563 61.5498 19.2856C61.5236 19.6264 61.4914 19.7589 61.4349 19.7589C61.3764 19.7589 61.3563 19.8629 61.3563 20.1667C61.3563 20.475 61.3367 20.5745 61.276 20.5745C61.1879 20.5745 61.126 20.7474 61.1248 20.9968C61.1242 21.1001 61.0929 21.157 61.0368 21.157C60.9774 21.157 60.9494 21.2173 60.9489 21.3464C60.9477 21.6231 60.8892 21.7979 60.7976 21.7979C60.7446 21.7979 60.7173 21.867 60.7173 22.0018C60.7173 22.1441 60.691 22.2057 60.6302 22.2057C60.5719 22.2057 60.543 22.2641 60.543 22.3822C60.543 22.4841 60.5068 22.5728 60.4575 22.5918C60.4104 22.6099 60.3552 22.7139 60.3348 22.823C60.3138 22.9354 60.2629 23.0212 60.2171 23.0212C60.1669 23.0212 60.1364 23.0847 60.1364 23.1892C60.1364 23.3082 60.1025 23.3661 60.0202 23.3877C59.9507 23.4059 59.904 23.4671 59.904 23.5401C59.904 23.6097 59.8666 23.6621 59.8169 23.6621C59.7588 23.6621 59.7297 23.7203 59.7297 23.8368C59.7297 23.9468 59.6999 24.0116 59.6494 24.0116C59.6052 24.0116 59.5553 24.064 59.5386 24.1281C59.5219 24.1922 59.4666 24.2446 59.4157 24.2446C59.3516 24.2446 59.3231 24.2983 59.3231 24.4194C59.3231 24.5359 59.294 24.5942 59.236 24.5942C59.1876 24.5942 59.1488 24.646 59.1488 24.7107C59.1488 24.7883 59.1101 24.8272 59.0326 24.8272C58.9552 24.8272 58.9165 24.866 58.9165 24.9437C58.9165 25.0078 58.8793 25.0602 58.8339 25.0602C58.7885 25.0602 58.7342 25.1389 58.7131 25.235C58.6921 25.3311 58.6377 25.4098 58.5924 25.4098C58.5469 25.4098 58.5098 25.4622 58.5098 25.5263C58.5098 25.6039 58.4711 25.6428 58.3936 25.6428C58.3291 25.6428 58.2774 25.6816 58.2774 25.7302C58.2774 25.7782 58.2382 25.8175 58.1903 25.8175C58.1419 25.8175 58.1032 25.8693 58.1032 25.9341C58.1032 25.9988 58.0644 26.0506 58.016 26.0506C57.9681 26.0506 57.9289 26.0899 57.9289 26.138C57.9289 26.1865 57.8772 26.2253 57.8127 26.2253C57.7353 26.2253 57.6965 26.2642 57.6965 26.3419C57.6965 26.4195 57.6578 26.4584 57.5803 26.4584C57.5158 26.4584 57.4641 26.4972 57.4641 26.5458C57.4641 26.5938 57.4249 26.6331 57.377 26.6331C57.3286 26.6331 57.2899 26.6849 57.2899 26.7497C57.2899 26.8273 57.2511 26.8662 57.1737 26.8662C57.1098 26.8662 57.0575 26.9034 57.0575 26.9489C57.0575 26.9944 56.9791 27.049 56.8832 27.0701C56.7874 27.0912 56.709 27.1457 56.709 27.1912C56.709 27.2367 56.6567 27.274 56.5928 27.274C56.5282 27.274 56.4766 27.3128 56.4766 27.3613C56.4766 27.4094 56.4404 27.4487 56.3962 27.4487C56.352 27.4487 56.3022 27.5012 56.2855 27.5652C56.2633 27.6501 56.2062 27.6818 56.0754 27.6818C55.9611 27.6818 55.8957 27.7111 55.8957 27.7623C55.8957 27.8067 55.8434 27.8566 55.7795 27.8734C55.7156 27.8901 55.6633 27.9457 55.6633 27.9967C55.6633 28.0507 55.6147 28.0895 55.5471 28.0895C55.4826 28.0895 55.4309 28.1284 55.4309 28.1769C55.4309 28.2352 55.3728 28.2643 55.2567 28.2643C55.1211 28.2643 55.0824 28.2902 55.0824 28.3808C55.0824 28.4751 55.0436 28.4973 54.8791 28.4973C54.7443 28.4973 54.6757 28.5246 54.6757 28.5783C54.6757 28.6246 54.5889 28.6755 54.4724 28.6974C54.3507 28.7203 54.2691 28.7697 54.2691 28.8204C54.2691 28.867 54.2168 28.9051 54.1529 28.9051C54.0884 28.9051 54.0367 28.944 54.0367 28.9925C54.0367 29.0536 53.9754 29.0799 53.8334 29.0799C53.699 29.0799 53.6301 29.1072 53.6301 29.1605C53.6301 29.2488 53.4577 29.3109 53.2089 29.3121C53.106 29.3126 53.0492 29.344 53.0492 29.4003C53.0492 29.4614 52.9878 29.4877 52.8458 29.4877C52.7115 29.4877 52.6425 29.515 52.6425 29.5683C52.6425 29.6566 52.4701 29.7187 52.2213 29.7199C52.1184 29.7204 52.0616 29.7518 52.0616 29.8081C52.0616 29.8752 51.9874 29.8955 51.7421 29.8955C51.5088 29.8955 51.4226 29.9172 51.4226 29.9761C51.4226 30.0644 51.2502 30.1265 51.0014 30.1277C50.8985 30.1282 50.8417 30.1596 50.8417 30.2159C50.8417 30.2858 50.7545 30.3033 50.406 30.3033C50.0767 30.3033 49.9703 30.3227 49.9703 30.3828C49.9703 30.4772 49.6097 30.5363 49.0327 30.5363C48.7172 30.5363 48.6342 30.5545 48.6342 30.6237C48.6342 30.6997 48.3695 30.7111 46.6009 30.7111C44.8324 30.7111 44.5677 30.6997 44.5677 30.6237C44.5677 30.5562 44.4917 30.5363 44.2337 30.536C43.4658 30.5353 42.7669 30.4619 42.7669 30.3819C42.7669 30.3209 42.6301 30.3033 42.1569 30.3033C41.6534 30.3033 41.5469 30.288 41.5469 30.2159C41.5469 30.1494 41.4741 30.1284 41.242 30.128C40.7188 30.1271 40.327 30.0615 40.327 29.9748C40.327 29.9129 40.1928 29.8955 39.717 29.8955C39.2383 29.8955 39.1071 29.8783 39.1071 29.8154C39.1071 29.7557 38.98 29.7287 38.6085 29.7091C38.2622 29.6908 38.0943 29.6575 38.0588 29.5998C38.0219 29.54 37.8535 29.5112 37.4536 29.4966C37.0553 29.4821 36.8996 29.4557 36.8996 29.4025C36.8996 29.3525 36.766 29.319 36.4864 29.299C36.2254 29.2802 36.0549 29.2398 36.0238 29.1891C35.989 29.1327 35.8103 29.103 35.4204 29.0888C34.9932 29.0733 34.8664 29.05 34.8664 28.9869C34.8664 28.9283 34.7882 28.9049 34.5904 28.9043C34.2318 28.9033 34.0531 28.8529 34.0531 28.7527C34.0531 28.6913 33.9496 28.6721 33.6174 28.6721C33.2688 28.6721 33.1817 28.6546 33.1817 28.5847C33.1817 28.516 33.101 28.4973 32.8041 28.4973C32.5244 28.4973 32.4265 28.4768 32.4265 28.4181C32.4265 28.3392 32.0446 28.2659 31.6277 28.2648C31.506 28.2645 31.4389 28.2357 31.4389 28.1837C31.4389 28.1257 31.3318 28.0963 31.0574 28.0788C30.8299 28.0642 30.6569 28.0237 30.629 27.9785C30.6018 27.9344 30.4207 27.8896 30.1973 27.8716C29.9262 27.8497 29.8123 27.8171 29.8123 27.7612C29.8123 27.7017 29.7103 27.6818 29.4057 27.6818C29.0994 27.6818 28.9991 27.662 28.9991 27.6017C28.9991 27.5126 28.7534 27.4487 28.4109 27.4487C28.2495 27.4487 28.1858 27.424 28.1858 27.3613C28.1858 27.2952 28.1146 27.274 27.8935 27.274C27.6975 27.274 27.591 27.2473 27.5702 27.193C27.5507 27.1419 27.401 27.0971 27.1654 27.0718C26.8999 27.0433 26.7916 27.0077 26.7916 26.9489C26.7916 26.8853 26.6975 26.8662 26.3849 26.8662C26.0622 26.8662 25.9783 26.8481 25.9783 26.7788C25.9783 26.7256 25.9242 26.6914 25.8403 26.6914C25.5786 26.6914 25.3393 26.6183 25.3393 26.5385C25.3393 26.4781 25.2389 26.4584 24.9326 26.4584C24.6263 26.4584 24.526 26.4386 24.526 26.3783C24.526 26.2984 24.2866 26.2253 24.0249 26.2253C23.941 26.2253 23.887 26.1911 23.887 26.138C23.887 26.0693 23.8063 26.0506 23.5094 26.0506C23.2125 26.0506 23.1318 26.0319 23.1318 25.9632C23.1318 25.9101 23.0777 25.8758 22.9938 25.8758C22.7321 25.8758 22.4928 25.8028 22.4928 25.7229C22.4928 25.6631 22.3968 25.6428 22.1152 25.6428C21.8182 25.6428 21.7376 25.6241 21.7376 25.5554C21.7376 25.5023 21.6835 25.468 21.5996 25.468C21.3379 25.468 21.0985 25.395 21.0985 25.3151C21.0985 25.2578 21.0158 25.235 20.8081 25.235C20.5886 25.235 20.5176 25.2136 20.5176 25.1476C20.5176 25.0945 20.4635 25.0602 20.3797 25.0602C20.118 25.0602 19.8786 24.9872 19.8786 24.9073C19.8786 24.849 19.7915 24.8272 19.5591 24.8272C19.3258 24.8272 19.2396 24.8055 19.2396 24.7466C19.2396 24.6904 19.1253 24.6537 18.862 24.6254C18.5934 24.5966 18.4844 24.561 18.4844 24.5021C18.4844 24.4417 18.4062 24.4194 18.1939 24.4194C17.9745 24.4194 17.9035 24.398 17.9035 24.332C17.9035 24.2724 17.8434 24.2444 17.7147 24.2438C17.4387 24.2426 17.2645 24.184 17.2645 24.0922C17.2645 24.0479 17.2122 24.0116 17.1483 24.0116C17.0327 24.0116 17.0321 23.9727 17.0321 16.928C17.0321 9.89339 17.0329 9.84416 17.1483 9.81393C17.2122 9.79715 17.2645 9.74717 17.2645 9.70283C17.2645 9.64499 17.3464 9.62226 17.5549 9.62226C17.7627 9.62226 17.8454 9.59943 17.8454 9.54216C17.8454 9.45309 18.091 9.38924 18.4336 9.38924C18.595 9.38924 18.6587 9.36448 18.6587 9.30186C18.6587 9.23585 18.7297 9.21447 18.9491 9.21447C19.1569 9.21447 19.2396 9.19163 19.2396 9.13437C19.2396 9.0545 19.4789 8.98144 19.7406 8.98144C19.8245 8.98144 19.8786 8.94719 19.8786 8.89406C19.8786 8.82695 19.9529 8.80667 20.1981 8.80667C20.4301 8.80667 20.5176 8.78477 20.5176 8.72681C20.5176 8.67467 20.621 8.63319 20.8152 8.60732C20.9788 8.58553 21.1506 8.52978 21.1969 8.48329C21.2498 8.43034 21.3985 8.39888 21.5965 8.39888C21.8263 8.39888 21.9118 8.37703 21.9118 8.31831C21.9118 8.23 22.0843 8.16789 22.333 8.16667C22.4359 8.16615 22.4928 8.13475 22.4928 8.07847C22.4928 8.01136 22.567 7.99109 22.8123 7.99109C23.0446 7.99109 23.1318 7.96924 23.1318 7.91098C23.1318 7.83426 23.369 7.75806 23.6079 7.75806C23.6701 7.75806 23.7602 7.71874 23.8081 7.67068C23.8642 7.61446 24.0077 7.58329 24.2106 7.58329C24.439 7.58329 24.526 7.56127 24.526 7.50342C24.526 7.4472 24.6464 7.41167 24.9326 7.38341C25.2292 7.35411 25.3393 7.3205 25.3393 7.25933C25.3393 7.19653 25.4195 7.1755 25.6588 7.1755C25.8917 7.1755 25.9783 7.15371 25.9783 7.0951C25.9783 7.03836 26.0826 7.00713 26.3333 6.98896C26.586 6.97067 26.7039 6.93507 26.7428 6.86545C26.7851 6.78972 26.8817 6.7677 27.1721 6.7677C27.4493 6.7677 27.5468 6.74708 27.5468 6.68841C27.5468 6.63639 27.65 6.59689 27.8474 6.57347C28.0127 6.55384 28.1678 6.50566 28.1919 6.4664C28.2166 6.42649 28.404 6.38432 28.6175 6.37068C28.874 6.35431 28.9991 6.32216 28.9991 6.27252C28.9991 6.22289 29.1241 6.19073 29.3806 6.17436C29.6284 6.15851 29.7803 6.12059 29.8139 6.06618C29.8499 6.00775 30.0071 5.97588 30.3327 5.96102C30.6834 5.94506 30.7999 5.91949 30.7999 5.85855C30.7999 5.80006 30.8803 5.77734 31.0875 5.77734C31.3003 5.77734 31.3898 5.75101 31.4316 5.67603C31.4763 5.59599 31.5867 5.57024 31.9573 5.55335C32.3096 5.53733 32.4265 5.51175 32.4265 5.45076C32.4265 5.38953 32.5207 5.36955 32.8095 5.36955C33.1437 5.36955 33.1964 5.35469 33.2229 5.25303C33.2496 5.15074 33.3022 5.13652 33.6532 5.13652C33.9564 5.13652 34.0531 5.11689 34.0531 5.05531C34.0531 4.99438 34.1696 4.9688 34.5202 4.95284C34.8335 4.93857 35.0036 4.9053 35.0365 4.85194C35.0673 4.80201 35.2394 4.76135 35.4988 4.74271C35.7948 4.7215 35.912 4.69051 35.912 4.63354C35.912 4.57155 36.0407 4.55396 36.4929 4.55396C36.9488 4.55396 37.0739 4.5366 37.0739 4.47339C37.0739 4.37319 37.2526 4.32274 37.6112 4.32175C37.8174 4.32111 37.8871 4.29885 37.8871 4.23355C37.8871 4.16143 37.9936 4.14616 38.4971 4.14616C38.9759 4.14616 39.1071 4.12892 39.1071 4.06606C39.1071 3.96265 39.3633 3.91314 39.8986 3.91314C40.2407 3.91314 40.327 3.89554 40.327 3.82575C40.327 3.75293 40.4432 3.73837 41.0241 3.73837C41.5769 3.73837 41.7212 3.72176 41.7212 3.65826C41.7212 3.55486 41.9775 3.50534 42.5127 3.50534C42.8548 3.50534 42.9411 3.48775 42.9411 3.41796C42.9411 3.34403 43.0799 3.33057 43.8416 3.33057C44.5912 3.33057 44.742 3.31636 44.742 3.24575C44.742 3.18114 44.8423 3.15609 45.1632 3.14083C45.9825 3.10168 47.9249 3.09807 48.2771 3.13495ZM6.34317 7.49591C6.34317 7.56523 6.42706 7.58329 6.74982 7.58329C7.05753 7.58329 7.15646 7.60292 7.15646 7.66398C7.15646 7.71804 7.26173 7.75783 7.47597 7.78468C7.68005 7.81026 7.79548 7.8522 7.79548 7.9009C7.79548 7.95246 7.90951 7.98538 8.14862 8.00268C8.34288 8.01678 8.52134 8.05994 8.54515 8.09863C8.56897 8.13731 8.72373 8.18502 8.88906 8.20465C9.08646 8.22807 9.18968 8.26757 9.18968 8.31959C9.18968 8.37599 9.27421 8.39888 9.48195 8.39888C9.68172 8.39888 9.78432 8.42521 9.8061 8.48213C9.82666 8.53578 9.97044 8.57959 10.2109 8.6054C10.4705 8.6333 10.5839 8.67001 10.5839 8.72605C10.5839 8.78495 10.6701 8.80667 10.9034 8.80667C11.1367 8.80667 11.2229 8.82841 11.2229 8.8873C11.2229 8.94346 11.3372 8.98016 11.6005 9.00842C11.8691 9.03725 11.9781 9.07285 11.9781 9.13175C11.9781 9.19321 12.0603 9.21447 12.2976 9.21447C12.5429 9.21447 12.6171 9.23474 12.6171 9.30186C12.6171 9.35499 12.6712 9.38924 12.7551 9.38924C13.0168 9.38924 13.2561 9.46229 13.2561 9.54216C13.2561 9.60193 13.3521 9.62226 13.6337 9.62226C13.9306 9.62226 14.0113 9.64097 14.0113 9.70965C14.0113 9.75818 14.063 9.79703 14.1275 9.79703C14.2431 9.79703 14.2437 9.83589 14.2437 16.8979V23.9986L14.0446 24.0361C13.9351 24.0567 13.8369 24.0994 13.8264 24.131C13.8159 24.1626 13.6702 24.2048 13.5027 24.2247C13.3021 24.2485 13.198 24.288 13.198 24.3401C13.198 24.3964 13.1138 24.4194 12.9076 24.4194C12.6975 24.4194 12.6171 24.4419 12.6171 24.5009C12.6171 24.559 12.5006 24.594 12.2105 24.6233C11.9203 24.6525 11.8038 24.6876 11.8038 24.7457C11.8038 24.8056 11.7193 24.8272 11.4843 24.8272C11.247 24.8272 11.1648 24.8485 11.1648 24.9099C11.1648 24.9688 11.0558 25.0044 10.7872 25.0332C10.5239 25.0615 10.4096 25.0982 10.4096 25.1544C10.4096 25.2133 10.3234 25.235 10.0901 25.235C9.85664 25.235 9.7706 25.2567 9.7706 25.3157C9.7706 25.3697 9.66534 25.4095 9.4511 25.4364C9.23163 25.4639 9.13159 25.5024 9.13159 25.5596C9.13159 25.6231 9.04248 25.6428 8.75399 25.6428C8.46104 25.6428 8.3764 25.6619 8.3764 25.7282C8.3764 25.7865 8.28548 25.8256 8.08948 25.8517C7.92885 25.8731 7.78897 25.9253 7.77177 25.9702C7.75127 26.0238 7.64357 26.0506 7.44872 26.0506C7.22768 26.0506 7.15646 26.0718 7.15646 26.138C7.15646 26.2006 7.09274 26.2253 6.93136 26.2253C6.58879 26.2253 6.34317 26.2892 6.34317 26.3783C6.34317 26.4382 6.24639 26.4584 5.96012 26.4584C5.62597 26.4584 5.57322 26.4435 5.54673 26.3419C5.53 26.2778 5.48016 26.2253 5.43595 26.2253C5.3918 26.2253 5.35561 26.186 5.35561 26.138C5.35561 26.0894 5.30397 26.0506 5.23943 26.0506C5.14538 26.0506 5.12324 26.0117 5.12324 25.8467C5.12324 25.6816 5.10111 25.6428 5.00706 25.6428C4.92962 25.6428 4.89087 25.6039 4.89087 25.5263C4.89087 25.4615 4.85213 25.4098 4.80374 25.4098C4.74564 25.4098 4.7166 25.3515 4.7166 25.235C4.7166 25.1247 4.68686 25.0602 4.63591 25.0602C4.59013 25.0602 4.53918 24.9744 4.51816 24.862C4.49777 24.7529 4.44258 24.6489 4.39553 24.6307C4.34249 24.6104 4.30995 24.5195 4.30995 24.3921C4.30995 24.2481 4.28381 24.1864 4.22282 24.1864C4.1667 24.1864 4.13539 24.1294 4.13487 24.0262C4.13365 23.7767 4.07172 23.6038 3.98365 23.6038C3.92498 23.6038 3.90331 23.5174 3.90331 23.2834C3.90331 23.0498 3.88158 22.963 3.82314 22.963C3.76662 22.963 3.73548 22.8587 3.71748 22.6088C3.7015 22.3876 3.66072 22.2353 3.60878 22.2031C3.55017 22.1668 3.51967 22.0052 3.5052 21.6544C3.49086 21.3062 3.46297 21.157 3.41208 21.157C3.36038 21.157 3.32768 20.96 3.29875 20.474C3.2733 20.0476 3.23188 19.7748 3.18855 19.7479C3.08927 19.6864 3.08816 14.1812 3.18739 14.1197C3.22968 14.0934 3.2715 13.8059 3.29729 13.3645C3.32704 12.8544 3.35957 12.6516 3.41162 12.6516C3.4621 12.6516 3.49086 12.5082 3.50556 12.1831C3.51892 11.8882 3.55406 11.6976 3.60042 11.6689C3.64091 11.6439 3.69006 11.4877 3.70963 11.3219C3.73299 11.1239 3.77237 11.0204 3.82425 11.0204C3.88286 11.0204 3.90331 10.922 3.90331 10.6399C3.90331 10.3586 3.92562 10.2509 3.98888 10.2265C4.03594 10.2084 4.09112 10.1043 4.11151 9.99528C4.13254 9.88285 4.18349 9.79703 4.22927 9.79703C4.28736 9.79703 4.30995 9.71548 4.30995 9.50575C4.30995 9.29603 4.33255 9.21447 4.39064 9.21447C4.43683 9.21447 4.4876 9.12738 4.50944 9.01057C4.53227 8.88853 4.58153 8.80667 4.63207 8.80667C4.68993 8.80667 4.7166 8.74236 4.7166 8.60278C4.7166 8.4604 4.74286 8.39888 4.80374 8.39888C4.85166 8.39888 4.89087 8.35711 4.89087 8.30602C4.89087 8.25499 4.94316 8.19947 5.00706 8.18275C5.08938 8.16114 5.12324 8.10329 5.12324 7.98427C5.12324 7.86945 5.15252 7.81632 5.21584 7.81632C5.26673 7.81632 5.32209 7.76389 5.33877 7.6998C5.36032 7.61725 5.418 7.58329 5.53668 7.58329C5.64683 7.58329 5.70416 7.55341 5.70416 7.49591C5.70416 7.42879 5.7784 7.40852 6.02367 7.40852C6.26893 7.40852 6.34317 7.42879 6.34317 7.49591ZM37.0739 12.3894C37.0739 12.4505 37.0125 12.4768 36.8705 12.4768C36.7286 12.4768 36.6672 12.5032 36.6672 12.5642C36.6672 12.6123 36.628 12.6516 36.5801 12.6516C36.5317 12.6516 36.4929 12.7034 36.4929 12.7681C36.4929 12.8458 36.4542 12.8846 36.3767 12.8846C36.2761 12.8846 36.2606 12.9235 36.2606 13.1759C36.2606 13.396 36.2392 13.4672 36.1734 13.4672C36.1125 13.4672 36.0863 13.5287 36.0863 13.6711C36.0863 13.8135 36.1125 13.875 36.1734 13.875C36.2392 13.875 36.2606 13.9462 36.2606 14.1663C36.2606 14.3939 36.2808 14.4575 36.3532 14.4575C36.404 14.4575 36.4594 14.51 36.4761 14.5741C36.4928 14.6381 36.5427 14.6906 36.5869 14.6906C36.631 14.6906 36.6672 14.7307 36.6672 14.7798C36.6672 14.8289 36.7064 14.8841 36.7543 14.9025C36.8023 14.921 36.8415 14.9726 36.8415 15.0172C36.8415 15.0618 36.8938 15.0984 36.9577 15.0984C37.0351 15.0984 37.0739 15.1372 37.0739 15.2149C37.0739 15.2796 37.1126 15.3314 37.161 15.3314C37.2089 15.3314 37.2481 15.3707 37.2481 15.4188C37.2481 15.4673 37.2998 15.5062 37.3643 15.5062C37.4537 15.5062 37.4805 15.545 37.4805 15.6741C37.4805 15.7931 37.5144 15.851 37.5967 15.8726C37.6606 15.8893 37.7129 15.9448 37.7129 15.9959C37.7129 16.047 37.7521 16.0887 37.8 16.0887C37.8484 16.0887 37.8871 16.1405 37.8871 16.2052C37.8871 16.2829 37.9259 16.3218 38.0033 16.3218C38.0679 16.3218 38.1195 16.3606 38.1195 16.4091C38.1195 16.4572 38.1587 16.4965 38.2066 16.4965C38.2546 16.4965 38.2938 16.5358 38.2938 16.5839C38.2938 16.632 38.3354 16.6713 38.3864 16.6713C38.4373 16.6713 38.4926 16.7237 38.5093 16.7878C38.526 16.8519 38.5759 16.9043 38.6201 16.9043C38.6642 16.9043 38.7004 16.9436 38.7004 16.9917C38.7004 17.0398 38.7421 17.0791 38.793 17.0791C38.8439 17.0791 38.8993 17.1315 38.9159 17.1956C38.9327 17.2597 38.9825 17.3121 39.0267 17.3121C39.0709 17.3121 39.1071 17.3645 39.1071 17.4286C39.1071 17.5063 39.1458 17.5451 39.2233 17.5451C39.2878 17.5451 39.3394 17.584 39.3394 17.6325C39.3394 17.6806 39.3787 17.7199 39.4266 17.7199C39.475 17.7199 39.5137 17.7717 39.5137 17.8364C39.5137 17.9011 39.5525 17.9529 39.6009 17.9529C39.6488 17.9529 39.688 17.9923 39.688 18.0403C39.688 18.0888 39.7396 18.1277 39.8042 18.1277C39.8816 18.1277 39.9204 18.1666 39.9204 18.2442C39.9204 18.3089 39.9591 18.3607 40.0075 18.3607C40.0554 18.3607 40.0946 18.397 40.0946 18.4413C40.0946 18.4856 40.1469 18.5356 40.2108 18.5524C40.2747 18.5691 40.327 18.6246 40.327 18.6757C40.327 18.7268 40.3662 18.7685 40.4141 18.7685C40.4621 18.7685 40.5013 18.8078 40.5013 18.8559C40.5013 18.904 40.5405 18.9433 40.5884 18.9433C40.6363 18.9433 40.6756 18.9851 40.6756 19.0362C40.6756 19.0872 40.7278 19.1427 40.7917 19.1594C40.8556 19.1762 40.9079 19.2262 40.9079 19.2705C40.9079 19.3148 40.9471 19.3511 40.9951 19.3511C41.043 19.3511 41.0822 19.3929 41.0822 19.4439C41.0822 19.495 41.133 19.5501 41.1951 19.5663C41.2607 19.5836 41.3234 19.6666 41.3449 19.7648C41.3652 19.8577 41.419 19.9337 41.4644 19.9337C41.5098 19.9337 41.5469 19.9861 41.5469 20.0502C41.5469 20.1278 41.5857 20.1667 41.6631 20.1667C41.7277 20.1667 41.7793 20.2055 41.7793 20.2541C41.7793 20.3021 41.8185 20.3414 41.8664 20.3414C41.9148 20.3414 41.9536 20.3932 41.9536 20.458C41.9536 20.5227 41.9923 20.5745 42.0407 20.5745C42.0886 20.5745 42.1279 20.6138 42.1279 20.6619C42.1279 20.7104 42.1795 20.7492 42.244 20.7492C42.3215 20.7492 42.3602 20.7881 42.3602 20.8658C42.3602 20.9305 42.399 20.9823 42.4474 20.9823C42.4953 20.9823 42.5345 21.0216 42.5345 21.0697C42.5345 21.1182 42.5861 21.157 42.6507 21.157C42.7146 21.157 42.7669 21.1933 42.7669 21.2376C42.7669 21.3259 42.9393 21.388 43.188 21.3892C43.291 21.3898 43.3478 21.4212 43.3478 21.4774C43.3478 21.5446 43.422 21.5648 43.6673 21.5648C43.9126 21.5648 43.9868 21.5446 43.9868 21.4774C43.9868 21.4164 44.0481 21.3901 44.1901 21.3901C44.327 21.3901 44.3934 21.363 44.3934 21.3073C44.3934 21.2618 44.4719 21.2073 44.5677 21.1862C44.712 21.1544 44.742 21.119 44.742 20.9805C44.742 20.8818 44.7836 20.7899 44.8437 20.7562C44.9289 20.7084 44.9453 20.6133 44.9453 20.1667C44.9453 19.7201 44.9289 19.625 44.8437 19.5771C44.7827 19.5429 44.742 19.4513 44.742 19.3482C44.742 19.2501 44.7109 19.1759 44.6694 19.1753C44.5809 19.1741 44.3354 18.9226 44.3354 18.8331C44.3354 18.7976 44.2992 18.7685 44.255 18.7685C44.2108 18.7685 44.161 18.7161 44.1442 18.652C44.1276 18.5879 44.0722 18.5355 44.0213 18.5355C43.9704 18.5355 43.9287 18.4962 43.9287 18.4481C43.9287 18.4001 43.8895 18.3607 43.8416 18.3607C43.7932 18.3607 43.7544 18.3089 43.7544 18.2442C43.7544 18.1666 43.7157 18.1277 43.6382 18.1277C43.5737 18.1277 43.5221 18.0888 43.5221 18.0403C43.5221 17.9923 43.4829 17.9529 43.4349 17.9529C43.3865 17.9529 43.3478 17.9011 43.3478 17.8364C43.3478 17.7588 43.309 17.7199 43.2316 17.7199C43.1671 17.7199 43.1154 17.681 43.1154 17.6325C43.1154 17.5845 43.0762 17.5451 43.0283 17.5451C42.9799 17.5451 42.9411 17.4933 42.9411 17.4286C42.9411 17.351 42.9024 17.3121 42.825 17.3121C42.7604 17.3121 42.7088 17.2733 42.7088 17.2247C42.7088 17.1767 42.6696 17.1373 42.6216 17.1373C42.5732 17.1373 42.5345 17.0856 42.5345 17.0208C42.5345 16.9561 42.4958 16.9043 42.4474 16.9043C42.3994 16.9043 42.3602 16.865 42.3602 16.8169C42.3602 16.7684 42.3086 16.7295 42.244 16.7295C42.1666 16.7295 42.1279 16.6907 42.1279 16.613C42.1279 16.5483 42.0891 16.4965 42.0407 16.4965C41.9928 16.4965 41.9536 16.4602 41.9536 16.416C41.9536 16.3716 41.9013 16.3216 41.8374 16.3049C41.7735 16.2881 41.7212 16.2326 41.7212 16.1816C41.7212 16.1305 41.682 16.0887 41.6341 16.0887C41.5861 16.0887 41.5469 16.0552 41.5469 16.0143C41.5469 15.9733 41.4947 15.895 41.4308 15.8401C41.3669 15.7852 41.3146 15.6876 41.3146 15.6233C41.3146 15.545 41.2761 15.5062 41.1984 15.5062C41.1338 15.5062 41.0822 15.4673 41.0822 15.4188C41.0822 15.3707 41.043 15.3314 40.9951 15.3314C40.9467 15.3314 40.9079 15.2796 40.9079 15.2149C40.9079 15.1372 40.8692 15.0984 40.7917 15.0984C40.7272 15.0984 40.6756 15.0595 40.6756 15.011C40.6756 14.9629 40.6363 14.9236 40.5884 14.9236C40.54 14.9236 40.5013 14.8718 40.5013 14.8071C40.5013 14.7294 40.4625 14.6906 40.3851 14.6906C40.3206 14.6906 40.2689 14.6517 40.2689 14.6032C40.2689 14.5551 40.2297 14.5158 40.1818 14.5158C40.1334 14.5158 40.0946 14.464 40.0946 14.3993C40.0946 14.3346 40.0559 14.2828 40.0075 14.2828C39.9596 14.2828 39.9204 14.2435 39.9204 14.1954C39.9204 14.1469 39.8687 14.108 39.8042 14.108C39.7267 14.108 39.688 14.0692 39.688 13.9915C39.688 13.9268 39.6492 13.875 39.6009 13.875C39.5529 13.875 39.5137 13.8387 39.5137 13.7944C39.5137 13.7501 39.4614 13.7001 39.3975 13.6833C39.3336 13.6666 39.2813 13.6111 39.2813 13.56C39.2813 13.509 39.2421 13.4672 39.1942 13.4672C39.1463 13.4672 39.1071 13.4279 39.1071 13.3798C39.1071 13.3317 39.0654 13.2924 39.0145 13.2924C38.9636 13.2924 38.9082 13.24 38.8916 13.1759C38.8748 13.1118 38.825 13.0594 38.7808 13.0594C38.7366 13.0594 38.7004 13.0201 38.7004 12.972C38.7004 12.9239 38.6588 12.8846 38.6078 12.8846C38.5569 12.8846 38.5016 12.8322 38.4849 12.7681C38.4682 12.704 38.4183 12.6516 38.3741 12.6516C38.33 12.6516 38.2938 12.6123 38.2938 12.5642C38.2938 12.5032 38.2324 12.4768 38.0905 12.4768C37.9485 12.4768 37.8871 12.4505 37.8871 12.3894C37.8871 12.3201 37.8033 12.3021 37.4805 12.3021C37.1577 12.3021 37.0739 12.3201 37.0739 12.3894ZM42.9411 12.3577C42.9411 12.3883 42.8497 12.4305 42.7378 12.4515C42.6213 12.4735 42.5345 12.5244 42.5345 12.5707C42.5345 12.6152 42.4929 12.6516 42.4419 12.6516C42.391 12.6516 42.3357 12.704 42.319 12.7681C42.3022 12.8322 42.2524 12.8846 42.2082 12.8846C42.1641 12.8846 42.1279 12.9239 42.1279 12.972C42.1279 13.0201 42.0886 13.0594 42.0407 13.0594C41.9688 13.0594 41.9536 13.1662 41.9536 13.6711C41.9536 14.176 41.9688 14.2828 42.0407 14.2828C42.0891 14.2828 42.1279 14.3346 42.1279 14.3993C42.1279 14.4634 42.165 14.5158 42.2104 14.5158C42.2558 14.5158 42.3102 14.5944 42.3312 14.6906C42.3522 14.7867 42.4066 14.8653 42.452 14.8653C42.4974 14.8653 42.5345 14.9178 42.5345 14.9819C42.5345 15.0595 42.5732 15.0984 42.6507 15.0984C42.7152 15.0984 42.7669 15.1372 42.7669 15.1858C42.7669 15.2338 42.8061 15.2731 42.854 15.2731C42.9024 15.2731 42.9411 15.3249 42.9411 15.3897C42.9411 15.4673 42.9799 15.5062 43.0573 15.5062C43.1219 15.5062 43.1735 15.545 43.1735 15.5935C43.1735 15.6416 43.2127 15.6809 43.2607 15.6809C43.309 15.6809 43.3478 15.7327 43.3478 15.7974C43.3478 15.8622 43.3865 15.914 43.4349 15.914C43.4829 15.914 43.5221 15.9533 43.5221 16.0013C43.5221 16.0499 43.5737 16.0887 43.6382 16.0887C43.7157 16.0887 43.7544 16.1276 43.7544 16.2052C43.7544 16.27 43.7932 16.3218 43.8416 16.3218C43.8895 16.3218 43.9287 16.3611 43.9287 16.4091C43.9287 16.4577 43.9804 16.4965 44.0449 16.4965C44.1223 16.4965 44.1611 16.5354 44.1611 16.613C44.1611 16.6778 44.1998 16.7295 44.2482 16.7295C44.2961 16.7295 44.3354 16.7689 44.3354 16.8169C44.3354 16.8655 44.387 16.9043 44.4515 16.9043C44.529 16.9043 44.5677 16.9432 44.5677 17.0208C44.5677 17.0856 44.6065 17.1373 44.6549 17.1373C44.7028 17.1373 44.742 17.1767 44.742 17.2247C44.742 17.2728 44.7836 17.3121 44.8346 17.3121C44.8855 17.3121 44.9408 17.3645 44.9575 17.4286C44.9742 17.4927 45.0241 17.5451 45.0683 17.5451C45.1124 17.5451 45.1486 17.5814 45.1486 17.6257C45.1486 17.67 45.2009 17.72 45.2648 17.7368C45.3287 17.7535 45.381 17.809 45.381 17.8601C45.381 17.9112 45.4181 17.9529 45.4636 17.9529C45.5089 17.9529 45.5633 18.0316 45.5843 18.1277C45.6054 18.2238 45.6597 18.3025 45.7051 18.3025C45.7505 18.3025 45.7877 18.3549 45.7877 18.419C45.7877 18.4966 45.8264 18.5355 45.9038 18.5355C45.9684 18.5355 46.02 18.5744 46.02 18.6229C46.02 18.6709 46.0592 18.7103 46.1072 18.7103C46.1556 18.7103 46.1943 18.7621 46.1943 18.8268C46.1943 18.8915 46.233 18.9433 46.2814 18.9433C46.3294 18.9433 46.3686 18.9796 46.3686 19.0239C46.3686 19.0682 46.4209 19.1182 46.4848 19.135C46.5487 19.1517 46.6009 19.2072 46.6009 19.2582C46.6009 19.3093 46.6402 19.3511 46.6881 19.3511C46.736 19.3511 46.7752 19.3904 46.7752 19.4385C46.7752 19.487 46.8269 19.5259 46.8914 19.5259C46.9688 19.5259 47.0076 19.5647 47.0076 19.6424C47.0076 19.7071 47.0463 19.7589 47.0947 19.7589C47.1427 19.7589 47.1819 19.7982 47.1819 19.8463C47.1819 19.8943 47.2235 19.9337 47.2745 19.9337C47.3253 19.9337 47.3807 19.9861 47.3974 20.0502C47.4141 20.1142 47.464 20.1667 47.5082 20.1667C47.5523 20.1667 47.5885 20.206 47.5885 20.2541C47.5885 20.3021 47.6302 20.3414 47.6811 20.3414C47.732 20.3414 47.7874 20.3939 47.804 20.458C47.8208 20.522 47.8706 20.5745 47.9148 20.5745C47.959 20.5745 47.9952 20.6138 47.9952 20.6619C47.9952 20.7099 48.0313 20.7492 48.0755 20.7492C48.1197 20.7492 48.1695 20.8017 48.1863 20.8658C48.2029 20.9298 48.2583 20.9823 48.3092 20.9823C48.3601 20.9823 48.4018 21.0216 48.4018 21.0697C48.4018 21.1177 48.4434 21.157 48.4944 21.157C48.5453 21.157 48.6006 21.2095 48.6173 21.2735C48.6401 21.3611 48.6966 21.3901 48.8443 21.3901C48.9802 21.3901 49.0408 21.417 49.0408 21.4774C49.0408 21.5461 49.1215 21.5648 49.4184 21.5648C49.7153 21.5648 49.796 21.5461 49.796 21.4774C49.796 21.417 49.8566 21.3901 49.9925 21.3901C50.1403 21.3901 50.1967 21.3611 50.2195 21.2735C50.2362 21.2095 50.2915 21.157 50.3424 21.157C50.3934 21.157 50.435 21.1177 50.435 21.0697C50.435 21.0216 50.4742 20.9823 50.5222 20.9823C50.583 20.9823 50.6093 20.9207 50.6093 20.7784C50.6093 20.6411 50.6362 20.5745 50.6918 20.5745C50.7372 20.5745 50.7917 20.4952 50.8129 20.3984C50.867 20.1512 50.7925 19.7589 50.6913 19.7589C50.6363 19.7589 50.6093 19.6918 50.6093 19.555C50.6093 19.4126 50.583 19.3511 50.5222 19.3511C50.4742 19.3511 50.435 19.3148 50.435 19.2705C50.435 19.2262 50.3827 19.1762 50.3188 19.1594C50.2549 19.1427 50.2026 19.0872 50.2026 19.0362C50.2026 18.9851 50.1634 18.9433 50.1155 18.9433C50.0676 18.9433 50.0284 18.9032 50.0284 18.8541C50.0284 18.805 49.9892 18.7498 49.9412 18.7314C49.8933 18.7129 49.8541 18.6613 49.8541 18.6166C49.8541 18.572 49.8018 18.5355 49.7379 18.5355C49.6605 18.5355 49.6217 18.4966 49.6217 18.419C49.6217 18.3549 49.5846 18.3025 49.5392 18.3025C49.4938 18.3025 49.4394 18.2238 49.4184 18.1277C49.3974 18.0316 49.343 17.9529 49.2976 17.9529C49.2522 17.9529 49.2151 17.9166 49.2151 17.8724C49.2151 17.828 49.1628 17.778 49.0989 17.7613C49.035 17.7445 48.9827 17.689 48.9827 17.638C48.9827 17.5869 48.9435 17.5451 48.8956 17.5451C48.8477 17.5451 48.8084 17.5058 48.8084 17.4578C48.8084 17.4097 48.7668 17.3704 48.7158 17.3704C48.665 17.3704 48.6096 17.3179 48.5929 17.2539C48.5762 17.1898 48.5263 17.1373 48.4821 17.1373C48.438 17.1373 48.4018 17.0849 48.4018 17.0208C48.4018 16.9432 48.363 16.9043 48.2856 16.9043C48.2211 16.9043 48.1694 16.8655 48.1694 16.8169C48.1694 16.7689 48.1302 16.7295 48.0823 16.7295C48.0344 16.7295 47.9952 16.6933 47.9952 16.649C47.9952 16.6046 47.9429 16.5547 47.879 16.5379C47.8151 16.5212 47.7628 16.4656 47.7628 16.4146C47.7628 16.3635 47.7236 16.3218 47.6756 16.3218C47.6273 16.3218 47.5885 16.27 47.5885 16.2052C47.5885 16.1276 47.5498 16.0887 47.4723 16.0887C47.4078 16.0887 47.3561 16.0499 47.3561 16.0013C47.3561 15.9533 47.3169 15.914 47.269 15.914C47.2206 15.914 47.1819 15.8622 47.1819 15.7974C47.1819 15.7327 47.1431 15.6809 47.0947 15.6809C47.0468 15.6809 47.0076 15.6416 47.0076 15.5935C47.0076 15.545 46.9559 15.5062 46.8914 15.5062C46.814 15.5062 46.7752 15.4673 46.7752 15.3897C46.7752 15.3249 46.7365 15.2731 46.6881 15.2731C46.6402 15.2731 46.6009 15.2338 46.6009 15.1858C46.6009 15.1372 46.5493 15.0984 46.4848 15.0984C46.4073 15.0984 46.3686 15.0595 46.3686 14.9819C46.3686 14.9171 46.3298 14.8653 46.2814 14.8653C46.2335 14.8653 46.1943 14.826 46.1943 14.778C46.1943 14.7299 46.1581 14.6906 46.114 14.6906C46.0697 14.6906 46.0199 14.6381 46.0032 14.5741C45.9865 14.51 45.9311 14.4575 45.8803 14.4575C45.8293 14.4575 45.7877 14.4182 45.7877 14.3702C45.7877 14.3221 45.7505 14.2828 45.7051 14.2828C45.6597 14.2828 45.6059 14.2068 45.5856 14.114C45.5641 14.0157 45.5014 13.9327 45.4358 13.9155C45.3737 13.8992 45.3229 13.8441 45.3229 13.7931C45.3229 13.742 45.2837 13.7002 45.2358 13.7002C45.1879 13.7002 45.1486 13.6639 45.1486 13.6196C45.1486 13.5753 45.0964 13.5253 45.0325 13.5086C44.9686 13.4918 44.9163 13.4363 44.9163 13.3853C44.9163 13.3342 44.8771 13.2924 44.8291 13.2924C44.7807 13.2924 44.742 13.2406 44.742 13.1759C44.742 13.1112 44.7033 13.0594 44.6549 13.0594C44.6069 13.0594 44.5677 13.0201 44.5677 12.972C44.5677 12.9235 44.5161 12.8846 44.4515 12.8846C44.387 12.8846 44.3354 12.8458 44.3354 12.7972C44.3354 12.7492 44.2937 12.7099 44.2428 12.7099C44.1919 12.7099 44.1374 12.6606 44.1216 12.6003C44.1015 12.523 44.0224 12.4813 43.8524 12.4585C43.72 12.4407 43.6024 12.3982 43.5911 12.3641C43.5655 12.2871 42.9411 12.281 42.9411 12.3577ZM48.6342 12.3894C48.6342 12.4505 48.5728 12.4768 48.4308 12.4768C48.2835 12.4768 48.2275 12.5024 48.2275 12.5697C48.2275 12.6207 48.1752 12.6762 48.1113 12.693C48.029 12.7146 47.9952 12.7724 47.9952 12.8914C47.9952 12.9951 47.9646 13.0594 47.9153 13.0594C47.8245 13.0594 47.7628 13.307 47.7628 13.6711C47.7628 14.0351 47.8245 14.2828 47.9153 14.2828C47.9678 14.2828 47.9952 14.3525 47.9952 14.4867C47.9952 14.6517 48.0173 14.6906 48.1113 14.6906C48.1759 14.6906 48.2275 14.7294 48.2275 14.778C48.2275 14.826 48.2667 14.8653 48.3147 14.8653C48.363 14.8653 48.4018 14.9171 48.4018 14.9819C48.4018 15.0595 48.4405 15.0984 48.518 15.0984C48.5954 15.0984 48.6342 15.1372 48.6342 15.2149C48.6342 15.2796 48.6729 15.3314 48.7213 15.3314C48.7692 15.3314 48.8084 15.3707 48.8084 15.4188C48.8084 15.4668 48.8477 15.5062 48.8956 15.5062C48.9435 15.5062 48.9827 15.5425 48.9827 15.5867C48.9827 15.6311 49.035 15.681 49.0989 15.6978C49.1628 15.7145 49.2151 15.7701 49.2151 15.8211C49.2151 15.8722 49.2543 15.914 49.3022 15.914C49.3501 15.914 49.3894 15.9557 49.3894 16.0068C49.3894 16.0579 49.4416 16.1134 49.5055 16.1301C49.5694 16.1469 49.6217 16.1969 49.6217 16.2412C49.6217 16.2855 49.6609 16.3218 49.7089 16.3218C49.7568 16.3218 49.796 16.3508 49.796 16.3864C49.796 16.4735 50.0404 16.7273 50.1254 16.7286C50.1628 16.7291 50.2107 16.8082 50.2317 16.9043C50.2527 17.0004 50.3071 17.0791 50.3525 17.0791C50.3979 17.0791 50.435 17.1315 50.435 17.1956C50.435 17.2733 50.4738 17.3121 50.5512 17.3121C50.6151 17.3121 50.6674 17.3486 50.6674 17.3933C50.6674 17.4379 50.7066 17.4895 50.7545 17.508C50.8024 17.5264 50.8417 17.5816 50.8417 17.6307C50.8417 17.6798 50.8744 17.7204 50.9143 17.7209C51.0028 17.7221 51.2483 17.9736 51.2483 18.0631C51.2483 18.0986 51.2875 18.1277 51.3354 18.1277C51.3834 18.1277 51.4226 18.164 51.4226 18.2083C51.4226 18.2526 51.4749 18.3026 51.5388 18.3194C51.6027 18.3361 51.6549 18.3916 51.6549 18.4426C51.6549 18.4937 51.6942 18.5355 51.7421 18.5355C51.79 18.5355 51.8292 18.5718 51.8292 18.6161C51.8292 18.6604 51.8815 18.7104 51.9454 18.7272C52.0093 18.7439 52.0616 18.7994 52.0616 18.8504C52.0616 18.9015 52.1008 18.9433 52.1487 18.9433C52.1967 18.9433 52.2359 18.9851 52.2359 19.0362C52.2359 19.0872 52.2882 19.1427 52.3521 19.1594C52.416 19.1762 52.4682 19.2262 52.4682 19.2705C52.4682 19.3148 52.5075 19.3511 52.5554 19.3511C52.6038 19.3511 52.6425 19.4029 52.6425 19.4676C52.6425 19.5323 52.6813 19.5841 52.7296 19.5841C52.7776 19.5841 52.8168 19.6234 52.8168 19.6715C52.8168 19.72 52.8684 19.7589 52.933 19.7589C53.0104 19.7589 53.0492 19.7977 53.0492 19.8754C53.0492 19.9401 53.0879 19.9919 53.1363 19.9919C53.1842 19.9919 53.2234 20.0312 53.2234 20.0793C53.2234 20.1278 53.2751 20.1667 53.3396 20.1667C53.4171 20.1667 53.4558 20.2055 53.4558 20.2832C53.4558 20.3473 53.4929 20.3997 53.5383 20.3997C53.5837 20.3997 53.6381 20.4783 53.6591 20.5745C53.6802 20.6706 53.7345 20.7492 53.7799 20.7492C53.8253 20.7492 53.8624 20.7886 53.8624 20.8366C53.8624 20.8847 53.9041 20.924 53.955 20.924C54.0059 20.924 54.0609 20.9749 54.0771 21.0372C54.0943 21.103 54.1771 21.1659 54.275 21.1874C54.3676 21.2078 54.4434 21.2618 54.4434 21.3073C54.4434 21.363 54.5098 21.3901 54.6467 21.3901C54.7887 21.3901 54.85 21.4164 54.85 21.4774C54.85 21.5468 54.9339 21.5648 55.2567 21.5648C55.5794 21.5648 55.6633 21.5468 55.6633 21.4774C55.6633 21.4164 55.7246 21.3901 55.8666 21.3901C56.0312 21.3901 56.0699 21.3679 56.0699 21.2735C56.0699 21.1959 56.1087 21.157 56.1861 21.157C56.2636 21.157 56.3023 21.1182 56.3023 21.0405C56.3023 20.9758 56.3411 20.924 56.3894 20.924C56.4553 20.924 56.4766 20.8528 56.4766 20.6327C56.4766 20.4126 56.4979 20.3414 56.5637 20.3414C56.6647 20.3414 56.6826 20.187 56.5854 20.1545C56.5494 20.1424 56.5069 19.9961 56.4909 19.8293C56.4713 19.6251 56.4357 19.5259 56.3821 19.5259C56.3322 19.5259 56.3023 19.4604 56.3023 19.3511C56.3023 19.2152 56.2765 19.1763 56.1861 19.1763C56.1087 19.1763 56.0699 19.1375 56.0699 19.0598C56.0699 18.9951 56.0312 18.9433 55.9828 18.9433C55.9349 18.9433 55.8957 18.904 55.8957 18.8559C55.8957 18.8074 55.844 18.7685 55.7795 18.7685C55.702 18.7685 55.6633 18.7297 55.6633 18.652C55.6633 18.5873 55.6245 18.5355 55.5762 18.5355C55.5282 18.5355 55.489 18.4992 55.489 18.4549C55.489 18.4106 55.4367 18.3606 55.3728 18.3438C55.3089 18.3271 55.2567 18.2716 55.2567 18.2206C55.2567 18.1695 55.2174 18.1277 55.1695 18.1277C55.1216 18.1277 55.0824 18.0884 55.0824 18.0403C55.0824 17.9923 55.0462 17.9529 55.002 17.9529C54.9578 17.9529 54.908 17.9005 54.8913 17.8364C54.8746 17.7723 54.8192 17.7199 54.7683 17.7199C54.7174 17.7199 54.6753 17.6872 54.6747 17.6471C54.6736 17.562 54.4244 17.3121 54.3408 17.3121C54.3093 17.3121 54.2679 17.2335 54.2488 17.1373C54.2283 17.0348 54.1772 16.9626 54.1253 16.9626C54.0755 16.9626 54.0367 16.9117 54.0367 16.8461C54.0367 16.7813 53.998 16.7295 53.9496 16.7295C53.9017 16.7295 53.8624 16.6933 53.8624 16.649C53.8624 16.6046 53.8102 16.5547 53.7463 16.5379C53.6824 16.5212 53.6301 16.4656 53.6301 16.4146C53.6301 16.3635 53.5909 16.3218 53.5429 16.3218C53.495 16.3218 53.4558 16.2855 53.4558 16.2412C53.4558 16.1969 53.4035 16.1469 53.3396 16.1301C53.2757 16.1134 53.2234 16.0579 53.2234 16.0068C53.2234 15.9557 53.1842 15.914 53.1363 15.914C53.0884 15.914 53.0492 15.8777 53.0492 15.8334C53.0492 15.7891 52.9969 15.7391 52.933 15.7223C52.8691 15.7056 52.8168 15.6501 52.8168 15.599C52.8168 15.5479 52.7776 15.5062 52.7296 15.5062C52.6817 15.5062 52.6425 15.4699 52.6425 15.4256C52.6425 15.3813 52.5902 15.3313 52.5263 15.3145C52.4624 15.2978 52.4101 15.2423 52.4101 15.1912C52.4101 15.1401 52.3709 15.0984 52.323 15.0984C52.2751 15.0984 52.2359 15.059 52.2359 15.011C52.2359 14.9629 52.1967 14.9236 52.1487 14.9236C52.1003 14.9236 52.0616 14.8718 52.0616 14.8071C52.0616 14.7294 52.0228 14.6906 51.9454 14.6906C51.868 14.6906 51.8292 14.6517 51.8292 14.5741C51.8292 14.5093 51.7905 14.4575 51.7421 14.4575C51.6942 14.4575 51.6549 14.4182 51.6549 14.3702C51.6549 14.3216 51.6033 14.2828 51.5388 14.2828C51.4613 14.2828 51.4226 14.2439 51.4226 14.1663C51.4226 14.1015 51.3838 14.0498 51.3354 14.0498C51.2875 14.0498 51.2483 14.0104 51.2483 13.9624C51.2483 13.9138 51.1967 13.875 51.1321 13.875C51.0547 13.875 51.0159 13.8361 51.0159 13.7585C51.0159 13.6937 50.9772 13.642 50.9288 13.642C50.8809 13.642 50.8417 13.6026 50.8417 13.5546C50.8417 13.506 50.79 13.4672 50.7255 13.4672C50.648 13.4672 50.6093 13.4283 50.6093 13.3507C50.6093 13.286 50.5705 13.2342 50.5222 13.2342C50.4742 13.2342 50.435 13.1948 50.435 13.1468C50.435 13.0987 50.3988 13.0594 50.3547 13.0594C50.3105 13.0594 50.2606 13.007 50.2439 12.9429C50.2272 12.8788 50.1719 12.8264 50.121 12.8264C50.07 12.8264 50.0284 12.787 50.0284 12.739C50.0284 12.6905 49.9767 12.6516 49.9122 12.6516C49.8483 12.6516 49.796 12.6134 49.796 12.5668C49.796 12.5162 49.7144 12.4668 49.5927 12.4439C49.4809 12.4228 49.3894 12.3823 49.3894 12.3539C49.3894 12.3254 49.2194 12.3021 49.0118 12.3021C48.7149 12.3021 48.6342 12.3208 48.6342 12.3894ZM53.8624 32.4296C53.8624 32.6712 53.8417 32.7501 53.7779 32.7501C53.7274 32.7501 53.6781 32.8319 53.6553 32.954C53.6334 33.0708 53.5827 33.1579 53.5365 33.1579C53.483 33.1579 53.4558 33.2266 53.4558 33.3618C53.4558 33.4956 53.4284 33.5657 53.3762 33.5657C53.3245 33.5657 53.283 33.6678 53.2579 33.8569C53.2316 34.0564 53.1926 34.1482 53.1343 34.1482C53.0737 34.1482 53.0492 34.2154 53.0492 34.3812C53.0492 34.5495 53.0249 34.6143 52.962 34.6143C52.9106 34.6143 52.8745 34.668 52.8741 34.7453C52.8727 34.9678 52.807 35.1386 52.7229 35.1386C52.6642 35.1386 52.6425 35.225 52.6425 35.459C52.6425 35.7049 52.6223 35.7794 52.5554 35.7794C52.4993 35.7794 52.4679 35.8364 52.4674 35.9396C52.4662 36.1891 52.4043 36.362 52.3162 36.362C52.2575 36.362 52.2359 36.4484 52.2359 36.6824C52.2359 36.9138 52.2139 37.0028 52.1568 37.0028C52.1052 37.0028 52.0658 37.1045 52.0432 37.2957C52.0242 37.4568 51.9682 37.629 51.9189 37.6785C51.8685 37.7291 51.8292 37.8686 51.8292 37.9973C51.8292 38.1517 51.8034 38.2262 51.75 38.2262C51.6943 38.2262 51.6617 38.3403 51.64 38.6122C51.6222 38.8332 51.5772 39.018 51.5344 39.0445C51.4922 39.0706 51.4486 39.2447 51.4341 39.4449C51.4174 39.6779 51.3835 39.7991 51.3352 39.7991C51.286 39.7991 51.2538 39.9252 51.2376 40.1817C51.224 40.3959 51.1819 40.5838 51.1421 40.6085C51.103 40.6327 51.0549 40.7882 51.0353 40.954C51.0144 41.1318 50.9709 41.2555 50.9293 41.2555C50.8829 41.2555 50.8464 41.4177 50.8223 41.732C50.8012 42.0059 50.7556 42.2272 50.715 42.2524C50.6757 42.2767 50.6335 42.4664 50.62 42.6788C50.6026 42.954 50.5732 43.0614 50.5154 43.0614C50.4567 43.0614 50.435 43.1479 50.435 43.3819C50.435 43.6133 50.4131 43.7023 50.356 43.7023C50.2774 43.7023 50.2043 44.0852 50.2032 44.5033C50.2028 44.6254 50.1741 44.6926 50.1222 44.6926C50.0644 44.6926 50.0351 44.8001 50.0176 45.0753C50.0043 45.2857 49.9631 45.4767 49.9261 45.4996C49.8891 45.5225 49.841 45.7566 49.8191 46.0199C49.7905 46.3644 49.7572 46.4986 49.7005 46.4986C49.6437 46.4986 49.6217 46.5881 49.6217 46.819C49.6217 47.0539 49.6002 47.1394 49.5409 47.1394C49.4799 47.1394 49.4497 47.283 49.4184 47.722C49.3871 48.1609 49.3569 48.3045 49.2959 48.3045C49.2366 48.3045 49.2151 48.39 49.2151 48.6249C49.2151 48.8563 49.1931 48.9453 49.136 48.9453C49.0553 48.9453 48.9842 49.3311 48.9832 49.7755C48.9829 49.9306 48.9574 49.994 48.8956 49.994C48.8271 49.994 48.8084 50.0749 48.8084 50.3726C48.8084 50.6581 48.7885 50.7513 48.7272 50.7513C48.6692 50.7513 48.6343 50.8681 48.6051 51.1591C48.576 51.4501 48.541 51.5669 48.4831 51.5669C48.4233 51.5669 48.4018 51.6516 48.4018 51.8873C48.4018 52.1333 48.3816 52.2077 48.3147 52.2077C48.2585 52.2077 48.2272 52.2647 48.2267 52.3679C48.2255 52.6174 48.1636 52.7903 48.0755 52.7903C48.0224 52.7903 47.9952 52.8594 47.9952 52.9942C47.9952 53.1293 47.968 53.1981 47.9145 53.1981C47.8683 53.1981 47.8175 53.2852 47.7957 53.402C47.7728 53.524 47.7236 53.6059 47.673 53.6059C47.6152 53.6059 47.5885 53.6702 47.5885 53.8098C47.5885 53.9521 47.5622 54.0137 47.5014 54.0137C47.453 54.0137 47.4142 54.0654 47.4142 54.1302C47.4142 54.1942 47.3762 54.2467 47.3297 54.2467C47.2792 54.2467 47.2299 54.3285 47.2071 54.4506C47.1852 54.5674 47.1345 54.6545 47.0883 54.6545C47.0439 54.6545 47.0076 54.6938 47.0076 54.7419C47.0076 54.7904 46.9559 54.8292 46.8914 54.8292C46.814 54.8292 46.7752 54.8681 46.7752 54.9458C46.7752 55.0105 46.7365 55.0623 46.6881 55.0623C46.6402 55.0623 46.6009 55.1016 46.6009 55.1497C46.6009 55.1982 46.5493 55.237 46.4848 55.237C46.4073 55.237 46.3686 55.2759 46.3686 55.3535C46.3686 55.4312 46.3298 55.4701 46.2524 55.4701C46.1879 55.4701 46.1362 55.5089 46.1362 55.5574C46.1362 55.6185 46.0749 55.6448 45.9329 55.6448C45.7985 55.6448 45.7296 55.6722 45.7296 55.7254C45.7296 55.7697 45.6707 55.8218 45.5989 55.8412C45.527 55.8604 44.4421 55.8766 43.188 55.877L40.9079 55.8779V55.5866C40.9079 55.3746 40.8856 55.2953 40.8259 55.2953C40.7755 55.2953 40.7287 55.2055 40.7046 55.0623C40.6805 54.919 40.6337 54.8292 40.5833 54.8292C40.5283 54.8292 40.5013 54.7621 40.5013 54.6253C40.5013 54.4915 40.4739 54.4214 40.4216 54.4214C40.3699 54.4214 40.3285 54.3193 40.3034 54.1302C40.277 53.9307 40.2381 53.8389 40.1798 53.8389C40.1212 53.8389 40.0946 53.7753 40.0946 53.635C40.0946 53.4947 40.0681 53.4311 40.0095 53.4311C39.9513 53.4311 39.9123 53.3399 39.8863 53.1434C39.865 52.9823 39.813 52.842 39.7681 52.8248C39.7209 52.8066 39.688 52.7093 39.688 52.5882C39.688 52.4442 39.6618 52.3825 39.6009 52.3825C39.535 52.3825 39.5137 52.3113 39.5137 52.0912C39.5137 51.882 39.4911 51.7999 39.4334 51.7999C39.3453 51.7999 39.2834 51.627 39.2822 51.3775C39.2816 51.2743 39.2503 51.2173 39.1942 51.2173C39.1348 51.2173 39.1068 51.1571 39.1063 51.028C39.1051 50.7513 39.0466 50.5765 38.955 50.5765C38.8974 50.5765 38.8747 50.4944 38.8747 50.2852C38.8747 50.0651 38.8534 49.994 38.7876 49.994C38.7281 49.994 38.7002 49.9337 38.6996 49.8046C38.6985 49.5279 38.64 49.3531 38.5484 49.3531C38.4897 49.3531 38.4681 49.2667 38.4681 49.0327C38.4681 48.7868 38.4478 48.7123 38.3809 48.7123C38.3069 48.7123 38.2938 48.5634 38.2938 47.722C38.2938 46.8805 38.3069 46.7316 38.3809 46.7316C38.4501 46.7316 38.4681 46.6475 38.4681 46.3238C38.4681 46.0166 38.4878 45.916 38.5479 45.916C38.6368 45.916 38.7004 45.6697 38.7004 45.3262C38.7004 45.1643 38.7251 45.1004 38.7876 45.1004C38.8484 45.1004 38.8747 45.0389 38.8747 44.8965C38.8747 44.7618 38.902 44.6926 38.955 44.6926C39.0429 44.6926 39.105 44.5198 39.1063 44.2723L39.1071 44.1142L42.0138 44.0975C44.3874 44.084 44.9295 44.0664 44.9693 44.0018C44.9961 43.9582 45.1389 43.909 45.2867 43.8922C45.4478 43.874 45.5553 43.8325 45.5553 43.7885C45.5553 43.7482 45.6468 43.698 45.7586 43.677C45.8803 43.6541 45.9619 43.6047 45.9619 43.554C45.9619 43.5074 46.0142 43.4692 46.0781 43.4692C46.1427 43.4692 46.1943 43.4304 46.1943 43.3819C46.1943 43.3338 46.2335 43.2945 46.2814 43.2945C46.3294 43.2945 46.3686 43.2582 46.3686 43.2139C46.3686 43.1696 46.4209 43.1196 46.4848 43.1028C46.5487 43.0861 46.6009 43.0306 46.6009 42.9795C46.6009 42.9284 46.6402 42.8867 46.6881 42.8867C46.736 42.8867 46.7752 42.8474 46.7752 42.7993C46.7752 42.7512 46.8169 42.7119 46.8678 42.7119C46.9187 42.7119 46.9741 42.6595 46.9907 42.5954C47.0075 42.5313 47.0544 42.4789 47.095 42.4789C47.1357 42.4789 47.1861 42.3871 47.2071 42.275C47.2299 42.1529 47.2792 42.0711 47.3297 42.0711C47.3762 42.0711 47.4142 42.0187 47.4142 41.9546C47.4142 41.8899 47.453 41.8381 47.5014 41.8381C47.5672 41.8381 47.5885 41.7669 47.5885 41.5468C47.5885 41.3267 47.6098 41.2555 47.6756 41.2555C47.7286 41.2555 47.7628 41.2013 47.7628 41.1171C47.7628 40.8547 47.8356 40.6147 47.9153 40.6147C47.9799 40.6147 47.9952 40.4258 47.9952 39.6243C47.9952 38.8228 47.9799 38.634 47.9153 38.634C47.8356 38.634 47.7628 38.3939 47.7628 38.1315C47.7628 38.0474 47.7286 37.9931 47.6756 37.9931C47.6098 37.9931 47.5885 37.922 47.5885 37.7019C47.5885 37.4927 47.5658 37.4106 47.5082 37.4106C47.464 37.4106 47.4141 37.3581 47.3974 37.2941C47.3807 37.23 47.3253 37.1775 47.2745 37.1775C47.2103 37.1775 47.1819 37.1238 47.1819 37.0028C47.1819 36.8863 47.1528 36.828 47.0947 36.828C47.0463 36.828 47.0076 36.7762 47.0076 36.7115C47.0076 36.6338 46.9688 36.595 46.8914 36.595C46.814 36.595 46.7752 36.5561 46.7752 36.4785C46.7752 36.4137 46.7365 36.362 46.6881 36.362C46.6402 36.362 46.6009 36.3226 46.6009 36.2746C46.6009 36.226 46.5493 36.1872 46.4848 36.1872C46.4202 36.1872 46.3686 36.1483 46.3686 36.0998C46.3686 36.0517 46.3269 36.0124 46.276 36.0124C46.2251 36.0124 46.1697 35.96 46.1531 35.8959C46.1315 35.8134 46.0738 35.7794 45.9551 35.7794C45.851 35.7794 45.7877 35.7488 45.7877 35.6985C45.7877 35.6522 45.7008 35.6012 45.5843 35.5793C45.4626 35.5564 45.381 35.507 45.381 35.4564C45.381 35.3888 45.2806 35.3716 44.8872 35.3716C44.5055 35.3716 44.3934 35.3533 44.3934 35.291C44.3934 35.2332 44.2874 35.2036 44.0181 35.1865C43.8116 35.1732 43.6221 35.1418 43.5969 35.1166C43.5717 35.0914 43.542 34.8239 43.531 34.5221C43.5155 34.0996 43.4921 33.9734 43.4293 33.9734C43.3692 33.9734 43.3478 33.8892 43.3478 33.653V33.3326H44.1611C44.8235 33.3326 44.9744 33.3479 44.9744 33.4151C44.9744 33.5396 45.601 33.5778 47.2857 33.5557C48.4265 33.5408 48.7653 33.5193 48.8022 33.4593C48.8352 33.4058 49.0571 33.3719 49.5262 33.3487C50.0062 33.325 50.2026 33.2944 50.2026 33.2434C50.2026 33.1961 50.3333 33.1631 50.5842 33.1471C50.8116 33.1325 50.9847 33.092 51.0126 33.0468C51.0398 33.0027 51.2208 32.9579 51.4443 32.9399C51.7154 32.918 51.8292 32.8854 51.8292 32.8295C51.8292 32.7728 51.914 32.7501 52.1251 32.7501C52.3722 32.7501 52.4261 32.7308 52.4514 32.6335C52.4765 32.5371 52.5306 32.517 52.7655 32.517C52.9789 32.517 53.0492 32.4954 53.0492 32.4296C53.0492 32.3686 53.1105 32.3423 53.2525 32.3423C53.3901 32.3423 53.4558 32.3154 53.4558 32.259C53.4558 32.1852 53.5557 32.1427 53.7898 32.1172C53.8401 32.1117 53.8624 32.2079 53.8624 32.4296ZM44.3711 38.077C44.3887 38.1231 44.4777 38.1772 44.5688 38.1973C44.6904 38.2241 44.7441 38.2779 44.7708 38.3999C44.7908 38.4912 44.8448 38.5804 44.8908 38.5981C44.9381 38.6163 44.9744 38.707 44.9744 38.8069C44.9744 38.9251 45.0032 38.9835 45.0615 38.9835C45.1337 38.9835 45.1486 39.0935 45.1486 39.6243C45.1486 40.1551 45.1337 40.2651 45.0615 40.2651C45.0054 40.2651 44.9741 40.3221 44.9735 40.4253C44.9723 40.6748 44.9104 40.8477 44.8223 40.8477C44.7782 40.8477 44.742 40.887 44.742 40.9351C44.742 40.9832 44.7028 41.0225 44.6549 41.0225C44.6065 41.0225 44.5677 41.0743 44.5677 41.139C44.5677 41.2531 44.529 41.2555 42.7378 41.2555H40.9079V41.0516C40.9079 40.912 40.9346 40.8477 40.9924 40.8477C41.043 40.8477 41.0923 40.7659 41.1151 40.6438C41.1369 40.527 41.1877 40.4399 41.2339 40.4399C41.2783 40.4399 41.3146 40.3875 41.3146 40.3234C41.3146 40.2593 41.3517 40.2069 41.3971 40.2069C41.4425 40.2069 41.4969 40.1282 41.5179 40.0321C41.5389 39.936 41.5933 39.8573 41.6387 39.8573C41.6841 39.8573 41.7212 39.8049 41.7212 39.7408C41.7212 39.6768 41.7575 39.6243 41.8019 39.6243C41.8481 39.6243 41.8989 39.5372 41.9207 39.4204C41.9435 39.2984 41.9928 39.2165 42.0433 39.2165C42.0898 39.2165 42.1279 39.166 42.1279 39.1041C42.1279 39.0424 42.1671 38.9525 42.215 38.9044C42.2629 38.8564 42.3021 38.7759 42.3021 38.7255C42.3021 38.6728 42.3514 38.634 42.4183 38.634C42.5124 38.634 42.5345 38.5951 42.5345 38.4301C42.5345 38.2953 42.5617 38.2262 42.6148 38.2262C42.6591 38.2262 42.7089 38.1737 42.7256 38.1096C42.7541 38.0003 42.8049 37.9931 43.5475 37.9931C44.1825 37.9931 44.3453 38.0097 44.3711 38.077ZM44.3354 59.3664C44.3354 60.0352 44.3309 60.0599 44.2046 60.0939C44.1328 60.1132 43.5084 60.1293 42.8172 60.1298C41.5627 60.1306 41.5604 60.1303 41.5254 59.9995C41.4777 59.8207 41.4794 58.7613 41.5276 58.713C41.5489 58.6916 42.1893 58.6742 42.9508 58.6742H44.3354V59.3664Z" fill="#F0476D"/>
</svg>
